<svg width="296" height="295" viewBox="0 0 296 295" fill="none" xmlns="http://www.w3.org/2000/svg">
<path d="M147.669 55.1568C175.164 55.1568 201.208 67.3906 218.755 88.6097L147.669 147.498V55.1568Z" fill="#3E6DC7"/>
<path d="M147.669 55.1568C175.164 55.1568 201.208 67.3906 218.755 88.6097L147.669 147.498V55.1568Z" stroke="white" stroke-width="0.221066" stroke-miterlimit="10"/>
<path d="M218.755 88.6788C225.526 96.8347 230.845 106.166 234.437 116.118L147.669 147.498L218.755 88.6788Z" fill="#2A87C5"/>
<path d="M218.755 88.6788C225.526 96.8347 230.845 106.166 234.437 116.118L147.669 147.498L218.755 88.6788Z" stroke="white" stroke-width="0.221066" stroke-miterlimit="10"/>
<path d="M234.506 116.188C238.099 126.21 239.964 136.785 239.964 147.429L147.669 147.498L234.506 116.188Z" fill="#18D5DD"/>
<path d="M234.506 116.188C238.099 126.21 239.964 136.785 239.964 147.429L147.669 147.498L234.506 116.188Z" stroke="white" stroke-width="0.221066" stroke-miterlimit="10"/>
<path d="M239.964 147.498C239.964 183.232 219.377 215.786 187.046 230.992L147.669 147.498H239.964Z" fill="#E7298B"/>
<path d="M239.964 147.498C239.964 183.232 219.377 215.786 187.046 230.992L147.669 147.498H239.964Z" stroke="white" stroke-width="0.221066" stroke-miterlimit="10"/>
<path d="M186.978 231.061C165.769 241.014 141.521 242.604 119.276 235.346L147.739 147.498L186.978 231.061Z" fill="#BD2D94"/>
<path d="M186.978 231.061C165.769 241.014 141.521 242.604 119.276 235.346L147.739 147.498L186.978 231.061Z" stroke="white" stroke-width="0.221066" stroke-miterlimit="10"/>
<path d="M119.138 235.346C109.95 232.374 101.314 227.951 93.5078 222.283L147.669 147.498L119.138 235.346Z" fill="#9D35B0"/>
<path d="M119.138 235.346C109.95 232.374 101.314 227.951 93.5078 222.283L147.669 147.498L119.138 235.346Z" stroke="white" stroke-width="0.221066" stroke-miterlimit="10"/>
<path d="M93.4399 222.214C76.1 209.635 63.6651 191.318 58.3457 170.583L147.739 147.498L93.4399 222.214Z" fill="#7C3E95"/>
<path d="M93.4399 222.214C76.1 209.635 63.6651 191.318 58.3457 170.583L147.739 147.498L93.4399 222.214Z" stroke="white" stroke-width="0.221066" stroke-miterlimit="10"/>
<path d="M58.2759 170.514C50.9531 141.899 57.7232 111.488 76.5138 88.748L147.669 147.567L58.2759 170.514Z" fill="#5D48AE"/>
<path d="M58.2759 170.514C50.9531 141.899 57.7232 111.488 76.5138 88.748L147.669 147.567L58.2759 170.514Z" stroke="white" stroke-width="0.221066" stroke-miterlimit="10"/>
<path d="M76.583 88.6791C82.7314 81.2144 89.9851 74.7864 98.1369 69.6026L147.669 147.498L76.583 88.6791Z" fill="#484EA3"/>
<path d="M76.583 88.679C82.7314 81.2144 89.9851 74.7864 98.1369 69.6026L147.669 147.498L76.583 88.679Z" stroke="white" stroke-width="0.221066" stroke-miterlimit="10"/>
<path d="M98.207 69.5334C106.359 64.3495 115.271 60.479 124.597 58.0599L147.67 147.498L98.207 69.5334Z" fill="#325CA3"/>
<path d="M98.207 69.5334C106.359 64.3495 115.271 60.479 124.597 58.0599L147.67 147.498L98.207 69.5334Z" stroke="white" stroke-width="0.221066" stroke-miterlimit="10"/>
<path d="M124.733 58.0597C132.194 56.1244 139.863 55.1568 147.531 55.1568L147.669 147.498L124.733 58.0597Z" fill="#3462BB"/>
<path d="M124.733 58.0597C132.194 56.1244 139.863 55.1568 147.531 55.1568L147.669 147.498L124.733 58.0597Z" stroke="white" stroke-width="0.221066" stroke-miterlimit="10"/>
<path d="M183.177 147.498C183.177 167.127 167.288 183.024 147.669 183.024C128.049 183.024 112.16 167.127 112.16 147.498C112.16 127.869 128.049 111.972 147.669 111.972C167.288 111.972 183.177 127.869 183.177 147.498Z" fill="#060033"/>
<path d="M172.743 172.622C186.609 158.748 186.609 136.254 172.743 122.38C158.876 108.506 136.393 108.506 122.526 122.38C108.659 136.254 108.659 158.748 122.526 172.622C136.393 186.495 158.876 186.495 172.743 172.622Z" stroke="white" stroke-width="0.345415" stroke-miterlimit="10"/>
<path d="M221.347 221.251C262.057 180.52 262.057 114.483 221.347 73.7519C180.636 33.0213 114.632 33.0213 73.9215 73.7519C33.2112 114.483 33.2112 180.52 73.9215 221.251C114.632 261.981 180.636 261.981 221.347 221.251Z" stroke="white" stroke-width="0.345415" stroke-miterlimit="10" stroke-dasharray="2.75 2.75"/>
<path d="M109.605 51.2865C109.605 52.4615 108.707 53.3601 107.532 53.3601C106.358 53.3601 105.46 52.4615 105.46 51.2865C105.46 50.1115 106.358 49.213 107.532 49.213C108.707 49.213 109.605 50.1807 109.605 51.2865Z" fill="white"/>
<path d="M81.2807 68.5659C81.2807 69.7409 80.3826 70.6394 79.2082 70.6394C78.0338 70.6394 77.1357 69.7409 77.1357 68.5659C77.1357 67.3909 78.0338 66.4924 79.2082 66.4924C80.3826 66.4924 81.2807 67.46 81.2807 68.5659Z" fill="white"/>
<path d="M48.812 121.095C48.812 122.27 47.9139 123.169 46.7395 123.169C45.5651 123.169 44.667 122.27 44.667 121.095C44.667 119.92 45.5651 119.022 46.7395 119.022C47.9139 119.022 48.812 119.989 48.812 121.095Z" fill="white"/>
<path d="M61.9379 204.036C61.9379 205.211 61.0399 206.11 59.8655 206.11C58.691 206.11 57.793 205.211 57.793 204.036C57.793 202.861 58.691 201.963 59.8655 201.963C61.0399 201.963 61.9379 202.93 61.9379 204.036Z" fill="white"/>
<path d="M100.624 239.286C100.624 240.461 99.7264 241.36 98.552 241.36C97.3776 241.36 96.4795 240.461 96.4795 239.286C96.4795 238.111 97.3776 237.213 98.552 237.213C99.7264 237.213 100.624 238.18 100.624 239.286Z" fill="white"/>
<path d="M158.655 251.727C158.655 252.902 157.757 253.801 156.582 253.801C155.408 253.801 154.51 252.902 154.51 251.727C154.51 250.552 155.408 249.654 156.582 249.654C157.757 249.654 158.655 250.621 158.655 251.727Z" fill="white"/>
<path d="M239.481 201.272C239.481 202.447 238.583 203.345 237.408 203.345C236.234 203.345 235.336 202.447 235.336 201.272C235.336 200.097 236.234 199.198 237.408 199.198C238.583 199.198 239.481 200.166 239.481 201.272Z" fill="white"/>
<path d="M252.607 130.081C252.607 131.256 251.709 132.154 250.534 132.154C249.36 132.154 248.462 131.256 248.462 130.081C248.462 128.906 249.36 128.007 250.534 128.007C251.709 128.007 252.607 128.975 252.607 130.081Z" fill="white"/>
<path d="M240.172 95.5217C240.172 96.6967 239.274 97.5953 238.1 97.5953C236.925 97.5953 236.027 96.6967 236.027 95.5217C236.027 94.3467 236.925 93.4482 238.1 93.4482C239.274 93.4482 240.172 94.4159 240.172 95.5217Z" fill="white"/>
<path d="M193.886 53.3601C193.886 54.5351 192.988 55.4336 191.814 55.4336C190.639 55.4336 189.741 54.5351 189.741 53.3601C189.741 52.1851 190.639 51.2865 191.814 51.2865C192.988 51.2865 193.886 52.2542 193.886 53.3601Z" fill="white"/>
<path d="M137.238 43.6836C137.238 44.8586 136.34 45.7571 135.165 45.7571C133.991 45.7571 133.093 44.8586 133.093 43.6836C133.093 42.5086 133.991 41.6101 135.165 41.6101C136.34 41.6101 137.238 42.5777 137.238 43.6836Z" fill="white"/>
</svg>
