<svg width="428" height="429" viewBox="0 0 428 429" fill="none" xmlns="http://www.w3.org/2000/svg">
<path d="M213.84 80.7978C253.64 80.7978 291.34 98.4978 316.74 129.198L213.84 214.398V80.7978Z" fill="#3E6DC7"/>
<path d="M213.84 80.7978C253.64 80.7978 291.34 98.4978 316.74 129.198L213.84 214.398V80.7978Z" stroke="white" stroke-width="0.32" stroke-miterlimit="10"/>
<path d="M316.74 129.298C326.54 141.098 334.24 154.598 339.44 168.998L213.84 214.398L316.74 129.298Z" fill="#2A87C5"/>
<path d="M316.74 129.298C326.54 141.098 334.24 154.598 339.44 168.998L213.84 214.398L316.74 129.298Z" stroke="white" stroke-width="0.32" stroke-miterlimit="10"/>
<path d="M339.54 169.098C344.74 183.598 347.44 198.898 347.44 214.298L213.84 214.398L339.54 169.098Z" fill="#18D5DD"/>
<path d="M339.54 169.098C344.74 183.598 347.44 198.898 347.44 214.298L213.84 214.398L339.54 169.098Z" stroke="white" stroke-width="0.32" stroke-miterlimit="10"/>
<path d="M347.44 214.398C347.44 266.098 317.64 313.198 270.84 335.198L213.84 214.398H347.44Z" fill="#E7298B"/>
<path d="M347.44 214.398C347.44 266.098 317.64 313.198 270.84 335.198L213.84 214.398H347.44Z" stroke="white" stroke-width="0.32" stroke-miterlimit="10"/>
<path d="M270.74 335.298C240.04 349.698 204.94 351.998 172.74 341.498L213.94 214.398L270.74 335.298Z" fill="#BD2D94"/>
<path d="M270.74 335.298C240.04 349.698 204.94 351.998 172.74 341.498L213.94 214.398L270.74 335.298Z" stroke="white" stroke-width="0.32" stroke-miterlimit="10"/>
<path d="M172.54 341.498C159.24 337.198 146.74 330.798 135.44 322.598L213.84 214.398L172.54 341.498Z" fill="#9D35B0"/>
<path d="M172.54 341.498C159.24 337.198 146.74 330.798 135.44 322.598L213.84 214.398L172.54 341.498Z" stroke="white" stroke-width="0.32" stroke-miterlimit="10"/>
<path d="M135.34 322.498C110.24 304.298 92.24 277.798 84.54 247.798L213.94 214.398L135.34 322.498Z" fill="#7C3E95"/>
<path d="M135.34 322.498C110.24 304.298 92.24 277.798 84.54 247.798L213.94 214.398L135.34 322.498Z" stroke="white" stroke-width="0.32" stroke-miterlimit="10"/>
<path d="M84.4399 247.698C73.8399 206.298 83.6399 162.298 110.84 129.398L213.84 214.498L84.4399 247.698Z" fill="#5D48AE"/>
<path d="M84.4399 247.698C73.8399 206.298 83.6399 162.298 110.84 129.398L213.84 214.498L84.4399 247.698Z" stroke="white" stroke-width="0.32" stroke-miterlimit="10"/>
<path d="M110.94 129.298C119.84 118.498 130.34 109.198 142.14 101.698L213.84 214.398L110.94 129.298Z" fill="#484EA3"/>
<path d="M110.94 129.298C119.84 118.498 130.34 109.198 142.14 101.698L213.84 214.398L110.94 129.298Z" stroke="white" stroke-width="0.32" stroke-miterlimit="10"/>
<path d="M142.24 101.598C154.04 94.098 166.94 88.498 180.44 84.998L213.84 214.398L142.24 101.598Z" fill="#325CA3"/>
<path d="M142.24 101.598C154.04 94.098 166.94 88.498 180.44 84.998L213.84 214.398L142.24 101.598Z" stroke="white" stroke-width="0.32" stroke-miterlimit="10"/>
<path d="M180.64 84.9978C191.44 82.1978 202.54 80.7978 213.64 80.7978L213.84 214.398L180.64 84.9978Z" fill="#3462BB"/>
<path d="M180.64 84.9978C191.44 82.1978 202.54 80.7978 213.64 80.7978L213.84 214.398L180.64 84.9978Z" stroke="white" stroke-width="0.32" stroke-miterlimit="10"/>
<path d="M265.24 214.398C265.24 242.798 242.24 265.798 213.84 265.798C185.44 265.798 162.44 242.798 162.44 214.398C162.44 185.998 185.44 162.998 213.84 162.998C242.24 162.998 265.24 185.998 265.24 214.398Z" fill="#060033"/>
<path d="M250.133 250.747C270.206 230.675 270.206 198.13 250.133 178.057C230.061 157.985 197.516 157.985 177.444 178.057C157.371 198.13 157.371 230.674 177.444 250.747C197.516 270.82 230.061 270.82 250.133 250.747Z" stroke="white" stroke-width="0.5" stroke-miterlimit="10"/>
<path d="M320.49 321.104C379.419 262.175 379.419 166.631 320.49 107.701C261.56 48.7719 166.017 48.7719 107.087 107.701C48.1576 166.631 48.1576 262.175 107.087 321.104C166.017 380.034 261.56 380.034 320.49 321.104Z" stroke="white" stroke-width="0.5" stroke-miterlimit="10" stroke-dasharray="3.98 3.98"/>
<path d="M158.74 75.1982C158.74 76.8982 157.44 78.1982 155.74 78.1982C154.04 78.1982 152.74 76.8982 152.74 75.1982C152.74 73.4982 154.04 72.1982 155.74 72.1982C157.44 72.1982 158.74 73.5982 158.74 75.1982Z" fill="white"/>
<path d="M117.74 100.198C117.74 101.898 116.44 103.198 114.74 103.198C113.04 103.198 111.74 101.898 111.74 100.198C111.74 98.4982 113.04 97.1982 114.74 97.1982C116.44 97.1982 117.74 98.5982 117.74 100.198Z" fill="white"/>
<path d="M70.7402 176.198C70.7402 177.898 69.4402 179.198 67.7402 179.198C66.0402 179.198 64.7402 177.898 64.7402 176.198C64.7402 174.498 66.0402 173.198 67.7402 173.198C69.4402 173.198 70.7402 174.598 70.7402 176.198Z" fill="white"/>
<path d="M89.7402 296.198C89.7402 297.898 88.4402 299.198 86.7402 299.198C85.0402 299.198 83.7402 297.898 83.7402 296.198C83.7402 294.498 85.0402 293.198 86.7402 293.198C88.4402 293.198 89.7402 294.598 89.7402 296.198Z" fill="white"/>
<path d="M145.74 347.198C145.74 348.898 144.44 350.198 142.74 350.198C141.04 350.198 139.74 348.898 139.74 347.198C139.74 345.498 141.04 344.198 142.74 344.198C144.44 344.198 145.74 345.598 145.74 347.198Z" fill="white"/>
<path d="M229.74 365.198C229.74 366.898 228.44 368.198 226.74 368.198C225.04 368.198 223.74 366.898 223.74 365.198C223.74 363.498 225.04 362.198 226.74 362.198C228.44 362.198 229.74 363.598 229.74 365.198Z" fill="white"/>
<path d="M346.74 292.198C346.74 293.898 345.44 295.198 343.74 295.198C342.04 295.198 340.74 293.898 340.74 292.198C340.74 290.498 342.04 289.198 343.74 289.198C345.44 289.198 346.74 290.598 346.74 292.198Z" fill="white"/>
<path d="M365.74 189.198C365.74 190.898 364.44 192.198 362.74 192.198C361.04 192.198 359.74 190.898 359.74 189.198C359.74 187.498 361.04 186.198 362.74 186.198C364.44 186.198 365.74 187.598 365.74 189.198Z" fill="white"/>
<path d="M347.74 139.198C347.74 140.898 346.44 142.198 344.74 142.198C343.04 142.198 341.74 140.898 341.74 139.198C341.74 137.498 343.04 136.198 344.74 136.198C346.44 136.198 347.74 137.598 347.74 139.198Z" fill="white"/>
<path d="M280.74 78.1982C280.74 79.8982 279.44 81.1982 277.74 81.1982C276.04 81.1982 274.74 79.8982 274.74 78.1982C274.74 76.4982 276.04 75.1982 277.74 75.1982C279.44 75.1982 280.74 76.5982 280.74 78.1982Z" fill="white"/>
<path d="M198.74 64.1982C198.74 65.8982 197.44 67.1982 195.74 67.1982C194.04 67.1982 192.74 65.8982 192.74 64.1982C192.74 62.4982 194.04 61.1982 195.74 61.1982C197.44 61.1982 198.74 62.5982 198.74 64.1982Z" fill="white"/>
</svg>
