<svg width="201" height="100" viewBox="0 0 201 100" fill="none" xmlns="http://www.w3.org/2000/svg">
<g clip-path="url(#clip0)">
<path d="M14.8341 40.5693C18.3896 40.5693 21.2785 43.4579 21.2785 47.0131C21.2785 50.5682 18.3896 53.4568 14.8341 53.4568C11.2785 53.4568 8.38965 50.5682 8.38965 47.0131C8.38965 43.4579 11.2785 40.5693 14.8341 40.5693Z" fill="#E41513"/>
<path d="M30.2778 46.6806C30.2778 38.7926 23.2778 32.46 15.5 32.46C7.61111 32.46 0.5 38.3482 0.5 46.6806C0.5 56.0129 7.94444 61.4567 15.2778 61.6789H15.1667H23.3889H28.5H30.1666V46.5695C30.2778 46.5695 30.2778 46.6806 30.2778 46.6806ZM6.61111 47.0139C6.61111 42.4588 10.2778 38.7926 14.8333 38.7926C19.3889 38.7926 23.0555 42.4588 23.0555 47.0139C23.0555 51.5689 19.3889 55.2352 14.8333 55.2352C10.2778 55.2352 6.61111 51.5689 6.61111 47.0139Z" fill="white"/>
<path d="M44.2781 40.5684H48.3892L56.5003 61.6771H52.2781L50.6114 57.3443H42.0559L40.3892 61.6771H36.167L44.2781 40.5684ZM46.2781 46.1233L43.3892 53.3447H49.0559L46.2781 46.1233Z" fill="white"/>
<path d="M63.0554 46.0118V47.6783C63.7221 47.0117 64.4998 46.4562 65.3887 46.1229C66.1665 45.7896 67.0554 45.5674 68.0554 45.5674C70.0554 45.5674 71.8332 46.3451 73.2776 47.9005C74.7221 49.4558 75.3887 51.4556 75.3887 53.7887C75.3887 56.1218 74.6109 58.0104 73.1665 59.5658C71.7221 61.1212 69.9443 61.8989 67.9443 61.8989C67.0554 61.8989 66.1665 61.7878 65.3887 61.4545C64.6109 61.1212 63.8332 60.6768 63.0554 59.8991V67.2316H59.1665V46.0118H63.0554ZM67.1665 49.2336C65.9443 49.2336 64.9443 49.678 64.0554 50.4557C63.2776 51.2334 62.8332 52.4555 62.8332 53.7887C62.8332 55.233 63.2776 56.344 64.0554 57.1217C64.8332 58.0104 65.9443 58.3437 67.1665 58.3437C68.3887 58.3437 69.3887 57.8993 70.1665 57.0106C70.9443 56.1218 71.3887 55.0108 71.3887 53.6776C71.3887 52.3444 70.9443 51.2334 70.1665 50.3446C69.3887 49.678 68.3887 49.2336 67.1665 49.2336Z" fill="white"/>
<path d="M82.3889 46.0118V47.6783C83.0556 47.0117 83.8333 46.4562 84.7222 46.1229C85.5 45.7896 86.3889 45.5674 87.3889 45.5674C89.3889 45.5674 91.1667 46.3451 92.6111 47.9005C94.0556 49.4558 94.7222 51.4556 94.7222 53.7887C94.7222 56.1218 93.9444 58.0104 92.5 59.5658C91.0556 61.1212 89.2778 61.8989 87.2778 61.8989C86.3889 61.8989 85.5 61.7878 84.7222 61.4545C83.9444 61.1212 83.1667 60.6768 82.3889 59.8991V67.2316H78.5V46.0118H82.3889ZM86.5 49.2336C85.2778 49.2336 84.2778 49.678 83.3889 50.4557C82.6111 51.2334 82.1667 52.4555 82.1667 53.7887C82.1667 55.233 82.6111 56.344 83.3889 57.1217C84.1667 58.0104 85.2778 58.3437 86.5 58.3437C87.7222 58.3437 88.7222 57.8993 89.5 57.0106C90.2778 56.1218 90.7222 55.0108 90.7222 53.6776C90.7222 52.3444 90.2778 51.2334 89.5 50.3446C88.7222 49.678 87.7222 49.2336 86.5 49.2336Z" fill="white"/>
<path d="M97.501 40.0127H101.39V61.6769H97.501V40.0127Z" fill="white"/>
<path d="M106.5 39.6797C107.167 39.6797 107.723 39.9019 108.278 40.3463C108.834 40.9018 109.056 41.4573 109.056 42.1239C109.056 42.7905 108.834 43.457 108.278 43.9014C107.834 44.4569 107.167 44.6791 106.5 44.6791C105.834 44.6791 105.167 44.4569 104.723 43.9014C104.167 43.3459 103.945 42.7905 103.945 42.0128C103.945 41.3462 104.167 40.7907 104.723 40.2352C105.167 39.9019 105.723 39.6797 106.5 39.6797ZM104.5 46.0123H108.389V61.5661H104.5V46.0123Z" fill="white"/>
<path d="M127.279 49.2336L124.056 51.0112C123.39 50.3446 122.834 49.9002 122.279 49.678C121.723 49.4558 120.945 49.3447 120.167 49.3447C118.723 49.3447 117.501 49.7891 116.612 50.6779C115.723 51.5667 115.279 52.6777 115.279 54.0109C115.279 55.3441 115.723 56.4551 116.612 57.2328C117.501 58.0104 118.612 58.4548 120.056 58.4548C121.834 58.4548 123.167 57.8993 124.167 56.6773L127.279 58.7881C125.612 61.0101 123.279 62.01 120.167 62.01C117.39 62.01 115.279 61.2323 113.723 59.5658C112.167 57.8993 111.39 56.0107 111.39 53.8998C111.39 52.3444 111.723 51.0112 112.501 49.678C113.279 48.456 114.279 47.4561 115.612 46.6784C116.945 45.9007 118.501 45.5674 120.167 45.5674C121.723 45.5674 123.056 45.9007 124.39 46.4562C125.39 47.2339 126.39 48.1227 127.279 49.2336Z" fill="white"/>
<path d="M141.167 46.0118H145.056V61.5656H141.167V59.8991C140.389 60.6768 139.611 61.1212 138.834 61.4545C138.056 61.7878 137.278 61.8989 136.389 61.8989C134.389 61.8989 132.611 61.1212 131.167 59.5658C129.723 58.0104 128.945 56.1218 128.945 53.7887C128.945 51.3445 129.611 49.4558 131.056 47.9005C132.5 46.3451 134.167 45.5674 136.278 45.5674C137.278 45.5674 138.056 45.7896 138.945 46.1229C139.723 46.4562 140.5 47.0117 141.167 47.6783V46.0118ZM137.056 49.2336C135.834 49.2336 134.834 49.678 134.056 50.4557C133.278 51.3445 132.834 52.4555 132.834 53.7887C132.834 55.1219 133.278 56.2329 134.056 57.1217C134.834 58.0104 135.834 58.4548 137.056 58.4548C138.278 58.4548 139.278 58.0104 140.056 57.2328C140.834 56.344 141.278 55.233 141.278 53.8998C141.278 52.5666 140.834 51.4556 140.056 50.5668C139.389 49.678 138.389 49.2336 137.056 49.2336Z" fill="white"/>
<path d="M149.611 40.3457H153.5V46.1228H155.834V49.4558H153.5V61.6767H149.611V49.4558H147.611V46.1228H149.611V40.3457Z" fill="white"/>
<path d="M157.834 46.0127H161.834V53.5674C161.834 55.0117 161.945 56.0116 162.167 56.5671C162.39 57.1226 162.723 57.567 163.167 57.9003C163.612 58.2336 164.167 58.3447 164.834 58.3447C165.501 58.3447 166.056 58.2336 166.501 57.9003C166.945 57.567 167.278 57.1226 167.501 56.5671C167.723 56.1227 167.723 55.1228 167.723 53.6785V46.0127H171.612V52.5675C171.612 55.2339 171.39 57.1226 170.945 58.1225C170.39 59.3445 169.612 60.2333 168.612 60.8999C167.612 61.5665 166.278 61.8998 164.723 61.8998C163.056 61.8998 161.612 61.5665 160.612 60.7888C159.501 60.0111 158.834 58.9001 158.39 57.567C158.056 56.5671 157.945 54.9006 157.945 52.4564V46.0127H157.834Z" fill="white"/>
<path d="M174.611 46.012H177.944V48.0118C178.278 47.2341 178.833 46.6786 179.389 46.2342C179.944 45.7898 180.611 45.6787 181.389 45.6787C181.944 45.6787 182.389 45.7898 182.944 46.1231L181.722 49.4561C181.278 49.2339 180.944 49.1228 180.611 49.1228C180.056 49.1228 179.5 49.4561 179.056 50.2338C178.611 51.0114 178.389 52.4557 178.389 54.5666V55.3443V61.6769H174.5L174.611 46.012Z" fill="white"/>
<path d="M200.5 55.011H187.945C188.167 56.122 188.611 57.0108 189.389 57.6774C190.167 58.344 191.167 58.6773 192.389 58.6773C193.833 58.6773 195.056 58.1218 196.167 57.1219L199.5 58.6773C198.722 59.7882 197.722 60.677 196.5 61.2325C195.389 61.788 193.945 62.0102 192.389 62.0102C189.945 62.0102 187.945 61.2325 186.389 59.6772C184.833 58.1218 184.056 56.2331 184.056 53.9C184.056 51.5669 184.833 49.5672 186.389 48.0118C187.945 46.4564 189.833 45.6787 192.167 45.6787C194.611 45.6787 196.611 46.4564 198.167 48.0118C199.722 49.5672 200.5 51.678 200.5 54.2333V55.011ZM196.611 51.9002C196.389 51.0114 195.833 50.3449 195.056 49.7894C194.278 49.2339 193.389 49.0117 192.389 49.0117C191.278 49.0117 190.389 49.345 189.5 49.9005C188.945 50.2338 188.5 51.0114 188.056 51.9002H196.611Z" fill="white"/>
</g>
<defs>
<clipPath id="clip0">
<rect width="200" height="100" fill="white" transform="translate(0.5)"/>
</clipPath>
</defs>
</svg>
