<?xml version="1.0" encoding="utf-8"?>
<!-- Generator: Adobe Illustrator 25.3.1, SVG Export Plug-In . SVG Version: 6.00 Build 0)  -->
<svg version="1.1" id="Layer_1" xmlns="http://www.w3.org/2000/svg" xmlns:xlink="http://www.w3.org/1999/xlink" x="0px" y="0px"
	 viewBox="0 0 327.6 65.4" style="enable-background:new 0 0 327.6 65.4;" xml:space="preserve">
<style type="text/css">
	.st0{fill:#E6E6E6;}
	.st1{fill:#333333;}
	.st2{fill:#196F7D;}
	.st3{fill:#F3B723;}
	.st4{fill:#E4E4E4;}
	.st5{fill:#363636;}
	.st6{fill:#CACACA;}
	.st7{opacity:0.6;fill:#E9E9E9;}
	.st8{fill:#666666;}
	.st9{fill:#A1A1A1;}
	.st10{fill:#E3B638;}
</style>
<g id="Layer_2_1_">
	<g id="Layer_2-2">
		<path class="st0" d="M66.4,32.9C65.8-10.1,1.8-11.5,0,32.2C-0.3,76.5,66.3,76.2,66.4,32.9z"/>
		<path class="st1" d="M62.7,32.9C62.1-5.4,5.3-6.6,3.7,32.3C3.4,71.6,62.7,71.3,62.7,32.9z"/>
		<path class="st2" d="M59.8,33.1C59.3-1.4,8-2.6,6.6,32.6C6.3,68.1,59.8,67.8,59.8,33.1z"/>
		<path class="st0" d="M23.6,31.5c1.4,0.7,2.5,1.9,4.1,1.8c-4.6-2.2-2.1-7.2,2-8c1.8-0.4,2.4,2,3.5,3.1c1-1.2,1.9-3.8,3.9-3
			c3.8,1.2,6,5.6,1.7,7.9c0.6,0.3,1.9-0.3,3.9-1.8c4.7,2.6,8.4,10.7,4.5,14.8c-3.6-1.4-7.5-2.3-11.4-2.4c-5.1-0.4-10.2,0.2-15.1,1.9
			c-0.6,0-1.6,1-2,0.3C16.1,40.7,18.8,34.5,23.6,31.5z M38.2,28c-2.7-1.4-4.8,2.4-3.9,4.5c2.2,0.8,6.2-2.8,3.1-4.4L38.2,28z
			 M29,28.1c-3,1.7,0.5,4.7,2.8,4.5c1.9-0.5-0.9-6.5-3.5-4.6L29,28.1z"/>
		<path class="st0" d="M20,48.2c8.5-3.1,17.9-3.1,26.4,0C40.3,56.2,26.2,56.4,20,48.2z"/>
		<path class="st0" d="M41.7,26.7c5.4,1.1,7-6.7,1.2-7c-6.4,0-12.9,0-19.3,0c-5.8,0-4.5,8.2,1,7.1c-1,1.3-1.2,3.7-3.2,2.7
			c-2.5-0.7-4.3-2.8-4.5-5.3c-0.5-3.5,1.9-6.8,5.5-7.3c0.4-0.1,0.7-0.1,1.1-0.1H43c3.6-0.1,6.6,2.7,6.7,6.2c0.1,3.4-2.5,6.4-5.9,6.7
			C42.7,29.2,42.5,27.6,41.7,26.7z"/>
		<path class="st2" d="M38.2,28l-0.8,0.1c3.1,1.6-0.9,5.2-3.1,4.4C33.4,30.4,35.5,26.7,38.2,28z"/>
		<path class="st2" d="M29,28.1L28.3,28c2.6-1.9,5.4,4.1,3.5,4.6C29.5,32.8,26.1,29.8,29,28.1z"/>
		<path class="st3" d="M43.3,23.3H23.4c-0.3,0-0.5-0.2-0.5-0.5s0.2-0.5,0.5-0.5h19.9c0.3,0,0.5,0.2,0.5,0.6
			C43.8,23,43.6,23.3,43.3,23.3z"/>
	</g>
</g>
<g>
	<path class="st4" d="M324.9,21.9c-2.8-6.6-8.2-12-14.8-14.8c-3.4-1.4-7.1-2.2-10.8-2.2H101.8C71.7,5.2,63.3,46.3,90.9,58.3
		c3.4,1.4,7.1,2.2,10.8,2.2h197.6C318.6,61.1,332.9,39.3,324.9,21.9z"/>
	<g>
		<path class="st5" d="M317.2,15.2c-4.6-4.6-10.8-7.2-17.4-7.2H102.2c-32.3,0.5-32.3,48.7,0,49.2c0,0,197.6,0,197.6,0
			C321.2,57.7,332.8,30,317.2,15.2z"/>
		<path class="st6" d="M299.8,11.2H102.2c-28.1,0.5-28.2,42.4,0,42.8c0,0,197.6,0,197.6,0C327.9,53.6,328,11.7,299.8,11.2z"/>
		<g>
			<path class="st7" d="M102.2,11.2c-0.1,0-0.2,0-0.3,0l-19,30.2c2.9,7,9.3,12.4,19.4,12.6c0,0,35.4,0,76.3,0l27-42.8H102.2z"/>
			<path class="st7" d="M299.8,11.2h-51.7l-27,42.8c28.9,0,55.4,0,51.5,0L299.8,11.2z"/>
		</g>
	</g>
</g>
<path class="st8" d="M189.5,50.2c-0.2-0.2-0.4-0.5-0.4-0.9V47c0-0.3,0.1-0.6,0.4-0.9c0.2-0.2,0.5-0.4,0.9-0.4h12
	c0.3,0,0.6-0.1,0.8-0.4c0.2-0.2,0.4-0.5,0.4-0.9v-2.3c0-0.3-0.1-0.6-0.4-0.9c-0.2-0.2-0.5-0.4-0.8-0.4h-7.2c-0.3,0-0.6-0.1-0.9-0.4
	c-0.3-0.3-0.4-0.6-0.4-0.9v-2.3c0-0.3-0.1-0.6-0.4-0.9c-0.2-0.2-0.5-0.4-0.9-0.4l-2.3,0c-0.3,0-0.6-0.1-0.9-0.4
	c-0.2-0.3-0.4-0.5-0.4-0.9v-7.2c0-0.3,0.1-0.6,0.4-0.9c0.2-0.3,0.5-0.4,0.9-0.4h2.3c0.3,0,0.6-0.1,0.9-0.4c0.2-0.2,0.4-0.5,0.4-0.8
	v-2.3c0-0.3,0.1-0.6,0.4-0.9c0.3-0.3,0.5-0.4,0.9-0.4H212c0.3,0,0.6,0.1,0.9,0.4c0.3,0.3,0.4,0.6,0.4,0.9v2.3c0,0.3-0.1,0.6-0.4,0.8
	c-0.3,0.2-0.6,0.4-0.9,0.4h-12c-0.3,0-0.6,0.1-0.9,0.4c-0.3,0.3-0.4,0.5-0.4,0.9V30c0,0.3,0.1,0.6,0.4,0.9c0.3,0.3,0.5,0.4,0.9,0.4
	h7.2c0.3,0,0.6,0.1,0.9,0.4c0.3,0.2,0.4,0.5,0.4,0.8v2.3c0,0.3,0.1,0.6,0.4,0.9c0.2,0.3,0.5,0.4,0.8,0.4h2.3c0.3,0,0.6,0.1,0.9,0.4
	c0.3,0.2,0.4,0.5,0.4,0.9v7.2c0,0.3-0.1,0.6-0.4,0.9c-0.3,0.2-0.6,0.4-0.9,0.4h-2.3c-0.3,0-0.6,0.1-0.8,0.4
	c-0.2,0.2-0.4,0.5-0.4,0.9v2.3c0,0.3-0.1,0.6-0.4,0.9s-0.6,0.4-0.9,0.4h-16.8C190,50.6,189.7,50.5,189.5,50.2z"/>
<path class="st5" d="M192.9,46.7c-0.2-0.2-0.4-0.5-0.4-0.9v-2.3c0-0.3,0.1-0.6,0.4-0.9c0.2-0.2,0.5-0.4,0.9-0.4h12
	c0.3,0,0.6-0.1,0.8-0.4c0.2-0.2,0.4-0.5,0.4-0.9v-2.3c0-0.3-0.1-0.6-0.4-0.9c-0.2-0.2-0.5-0.4-0.8-0.4h-7.2c-0.3,0-0.6-0.1-0.9-0.4
	c-0.3-0.3-0.4-0.6-0.4-0.9v-2.3c0-0.3-0.1-0.6-0.4-0.9c-0.2-0.2-0.5-0.4-0.9-0.4l-2.3,0c-0.3,0-0.6-0.1-0.9-0.4
	c-0.2-0.3-0.4-0.5-0.4-0.9v-7.2c0-0.3,0.1-0.6,0.4-0.9c0.2-0.3,0.5-0.4,0.9-0.4h2.3c0.3,0,0.6-0.1,0.9-0.4c0.2-0.2,0.4-0.5,0.4-0.8
	v-2.3c0-0.3,0.1-0.6,0.4-0.9c0.3-0.3,0.5-0.4,0.9-0.4h16.8c0.3,0,0.6,0.1,0.9,0.4c0.3,0.3,0.4,0.6,0.4,0.9v2.3
	c0,0.3-0.1,0.6-0.4,0.8c-0.3,0.2-0.6,0.4-0.9,0.4h-12c-0.3,0-0.6,0.1-0.9,0.4c-0.3,0.3-0.4,0.5-0.4,0.9v2.3c0,0.3,0.1,0.6,0.4,0.9
	s0.5,0.4,0.9,0.4h7.2c0.3,0,0.6,0.1,0.9,0.4c0.3,0.2,0.4,0.5,0.4,0.8v2.3c0,0.3,0.1,0.6,0.4,0.9c0.2,0.3,0.5,0.4,0.8,0.4h2.3
	c0.3,0,0.6,0.1,0.9,0.4c0.3,0.2,0.4,0.5,0.4,0.9V41c0,0.3-0.1,0.6-0.4,0.9c-0.3,0.2-0.6,0.4-0.9,0.4H213c-0.3,0-0.6,0.1-0.8,0.4
	c-0.2,0.2-0.4,0.5-0.4,0.9v2.3c0,0.3-0.1,0.6-0.4,0.9s-0.6,0.4-0.9,0.4h-16.8C193.4,47.1,193.1,47,192.9,46.7z"/>
<path class="st2" d="M196.3,43.2c-0.2-0.2-0.4-0.5-0.4-0.9V40c0-0.3,0.1-0.6,0.4-0.9c0.2-0.2,0.5-0.4,0.9-0.4h12
	c0.3,0,0.6-0.1,0.8-0.4c0.2-0.2,0.4-0.5,0.4-0.9v-2.3c0-0.3-0.1-0.6-0.4-0.9c-0.2-0.2-0.5-0.4-0.8-0.4H202c-0.3,0-0.6-0.1-0.9-0.4
	c-0.3-0.3-0.4-0.6-0.4-0.9v-2.3c0-0.3-0.1-0.6-0.4-0.9c-0.2-0.2-0.5-0.4-0.9-0.4l-2.3,0c-0.3,0-0.6-0.1-0.9-0.4
	c-0.2-0.3-0.4-0.5-0.4-0.9v-7.2c0-0.3,0.1-0.6,0.4-0.9c0.2-0.3,0.5-0.4,0.9-0.4h2.3c0.3,0,0.6-0.1,0.9-0.4c0.2-0.2,0.4-0.5,0.4-0.8
	v-2.3c0-0.3,0.1-0.6,0.4-0.9c0.3-0.3,0.5-0.4,0.9-0.4h16.8c0.3,0,0.6,0.1,0.9,0.4c0.3,0.3,0.4,0.6,0.4,0.9v2.3
	c0,0.3-0.1,0.6-0.4,0.8s-0.6,0.4-0.9,0.4h-12c-0.3,0-0.6,0.1-0.9,0.4c-0.3,0.3-0.4,0.5-0.4,0.9V23c0,0.3,0.1,0.6,0.4,0.9
	c0.3,0.3,0.5,0.4,0.9,0.4h7.2c0.3,0,0.6,0.1,0.9,0.4c0.3,0.2,0.4,0.5,0.4,0.8v2.3c0,0.3,0.1,0.6,0.4,0.9c0.2,0.3,0.5,0.4,0.8,0.4
	h2.3c0.3,0,0.6,0.1,0.9,0.4c0.3,0.2,0.4,0.5,0.4,0.9v7.2c0,0.3-0.1,0.6-0.4,0.9c-0.3,0.2-0.6,0.4-0.9,0.4h-2.3
	c-0.3,0-0.6,0.1-0.8,0.4c-0.2,0.2-0.4,0.5-0.4,0.9v2.3c0,0.3-0.1,0.6-0.4,0.9s-0.6,0.4-0.9,0.4h-16.8
	C196.8,43.5,196.5,43.4,196.3,43.2z"/>
<path class="st8" d="M232.9,50.2c-0.3-0.2-0.4-0.5-0.4-0.9V27.7c0-0.3-0.1-0.6-0.4-0.9c-0.2-0.3-0.5-0.4-0.9-0.4h-7.1
	c-0.3,0-0.6-0.1-0.9-0.4c-0.2-0.2-0.4-0.5-0.4-0.8v-2.3c0-0.3,0.1-0.6,0.4-0.9c0.2-0.3,0.5-0.4,0.9-0.4h26.4c0.3,0,0.6,0.1,0.9,0.4
	c0.3,0.3,0.4,0.6,0.4,0.9v2.3c0,0.3-0.1,0.6-0.4,0.8c-0.3,0.2-0.6,0.4-0.9,0.4h-7.2c-0.3,0-0.6,0.1-0.9,0.4
	c-0.3,0.3-0.4,0.6-0.4,0.9v21.6c0,0.3-0.1,0.6-0.4,0.9c-0.2,0.2-0.5,0.4-0.8,0.4h-7.2C233.4,50.6,233.1,50.5,232.9,50.2z"/>
<path class="st5" d="M236.3,46.7c-0.3-0.2-0.4-0.5-0.4-0.9V24.2c0-0.3-0.1-0.6-0.4-0.9c-0.2-0.3-0.5-0.4-0.9-0.4h-7.1
	c-0.3,0-0.6-0.1-0.9-0.4c-0.2-0.2-0.4-0.5-0.4-0.8v-2.3c0-0.3,0.1-0.6,0.4-0.9c0.2-0.3,0.5-0.4,0.9-0.4h26.4c0.3,0,0.6,0.1,0.9,0.4
	c0.3,0.3,0.4,0.6,0.4,0.9v2.3c0,0.3-0.1,0.6-0.4,0.8c-0.3,0.2-0.6,0.4-0.9,0.4h-7.2c-0.3,0-0.6,0.1-0.9,0.4
	c-0.3,0.3-0.4,0.6-0.4,0.9v21.6c0,0.3-0.1,0.6-0.4,0.9c-0.2,0.2-0.5,0.4-0.8,0.4h-7.2C236.8,47.1,236.5,47,236.3,46.7z"/>
<path class="st2" d="M239.6,43.2c-0.3-0.2-0.4-0.5-0.4-0.9V20.7c0-0.3-0.1-0.6-0.4-0.9c-0.2-0.3-0.5-0.4-0.9-0.4h-7.1
	c-0.3,0-0.6-0.1-0.9-0.4c-0.2-0.2-0.4-0.5-0.4-0.8v-2.3c0-0.3,0.1-0.6,0.4-0.9c0.2-0.3,0.5-0.4,0.9-0.4h26.4c0.3,0,0.6,0.1,0.9,0.4
	c0.3,0.3,0.4,0.6,0.4,0.9v2.3c0,0.3-0.1,0.6-0.4,0.8s-0.6,0.4-0.9,0.4h-7.2c-0.3,0-0.6,0.1-0.9,0.4s-0.4,0.6-0.4,0.9v21.6
	c0,0.3-0.1,0.6-0.4,0.9c-0.2,0.2-0.5,0.4-0.8,0.4h-7.2C240.2,43.5,239.9,43.4,239.6,43.2z"/>
<g>
	<g>
		<g>
			<path class="st9" d="M276.8,39.7c0.3,0,0.6-0.1,0.9-0.4s0.4-0.5,0.4-0.9v-7.2c0-0.3-0.1-0.6-0.4-0.9s-0.6-0.4-0.9-0.4h-7.2
				c-0.3,0-0.6,0.1-0.9,0.4s-0.4,0.6-0.4,0.9v7.2c0,0.3,0.1,0.6,0.4,0.9s0.5,0.4,0.9,0.4H276.8z"/>
		</g>
	</g>
	<g>
		<g>
			<path class="st8" d="M262.5,50.2c-0.2-0.2-0.4-0.5-0.4-0.9V27.7c0-0.3,0.1-0.6,0.4-0.9c0.2-0.3,0.5-0.4,0.9-0.4h2.3
				c0.3,0,0.6-0.1,0.9-0.4c0.2-0.2,0.4-0.5,0.4-0.8v-2.3c0-0.3,0.1-0.6,0.4-0.9c0.3-0.3,0.5-0.4,0.9-0.4H285c0.3,0,0.6,0.1,0.9,0.4
				c0.3,0.3,0.4,0.6,0.4,0.9v2.3c0,0.3,0.1,0.6,0.4,0.8c0.2,0.2,0.5,0.4,0.9,0.4h2.3c0.3,0,0.6,0.1,0.9,0.4c0.3,0.3,0.4,0.6,0.4,0.9
				v21.6c0,0.3-0.1,0.6-0.4,0.9s-0.6,0.4-0.9,0.4h-7.2c-0.3,0-0.6-0.1-0.8-0.4s-0.4-0.5-0.4-0.9v-7.1c0-0.3-0.1-0.6-0.4-0.9
				c-0.3-0.2-0.6-0.4-0.9-0.4H273c-0.3,0-0.6,0.1-0.9,0.4c-0.3,0.2-0.4,0.5-0.4,0.9v7.1c0,0.3-0.1,0.6-0.4,0.9
				c-0.2,0.2-0.5,0.4-0.9,0.4h-7.1C263,50.6,262.7,50.5,262.5,50.2z M280.2,36.2c0.3,0,0.6-0.1,0.9-0.4c0.3-0.3,0.4-0.5,0.4-0.9
				v-7.2c0-0.3-0.1-0.6-0.4-0.9c-0.3-0.3-0.6-0.4-0.9-0.4H273c-0.3,0-0.6,0.1-0.9,0.4c-0.3,0.3-0.4,0.6-0.4,0.9v7.2
				c0,0.3,0.1,0.6,0.4,0.9c0.3,0.3,0.5,0.4,0.9,0.4H280.2z"/>
		</g>
	</g>
	<g>
		<path class="st5" d="M265.9,46.7c-0.2-0.2-0.4-0.5-0.4-0.9V24.2c0-0.3,0.1-0.6,0.4-0.9c0.2-0.3,0.5-0.4,0.9-0.4h2.3
			c0.3,0,0.6-0.1,0.9-0.4c0.2-0.2,0.4-0.5,0.4-0.8v-2.3c0-0.3,0.1-0.6,0.4-0.9c0.3-0.3,0.5-0.4,0.9-0.4h16.8c0.3,0,0.6,0.1,0.9,0.4
			c0.3,0.3,0.4,0.6,0.4,0.9v2.3c0,0.3,0.1,0.6,0.4,0.8c0.2,0.2,0.5,0.4,0.9,0.4h2.3c0.3,0,0.6,0.1,0.9,0.4c0.3,0.3,0.4,0.6,0.4,0.9
			v21.6c0,0.3-0.1,0.6-0.4,0.9s-0.6,0.4-0.9,0.4H286c-0.3,0-0.6-0.1-0.8-0.4s-0.4-0.5-0.4-0.9v-7.1c0-0.3-0.1-0.6-0.4-0.9
			c-0.3-0.2-0.6-0.4-0.9-0.4h-7.2c-0.3,0-0.6,0.1-0.9,0.4c-0.3,0.2-0.4,0.5-0.4,0.9v7.1c0,0.3-0.1,0.6-0.4,0.9
			c-0.2,0.2-0.5,0.4-0.9,0.4h-7.1C266.4,47.1,266.1,47,265.9,46.7z M283.6,32.6c0.3,0,0.6-0.1,0.9-0.4c0.3-0.3,0.4-0.5,0.4-0.9v-7.2
			c0-0.3-0.1-0.6-0.4-0.9c-0.3-0.3-0.6-0.4-0.9-0.4h-7.2c-0.3,0-0.6,0.1-0.9,0.4c-0.3,0.3-0.4,0.6-0.4,0.9v7.2
			c0,0.3,0.1,0.6,0.4,0.9c0.3,0.3,0.5,0.4,0.9,0.4H283.6z"/>
	</g>
	<g>
		<path class="st10" d="M269.3,43.2c-0.2-0.2-0.4-0.5-0.4-0.9V20.7c0-0.3,0.1-0.6,0.4-0.9c0.2-0.3,0.5-0.4,0.9-0.4h2.3
			c0.3,0,0.6-0.1,0.9-0.4c0.2-0.2,0.4-0.5,0.4-0.8v-2.3c0-0.3,0.1-0.6,0.4-0.9c0.3-0.3,0.5-0.4,0.9-0.4h16.8c0.3,0,0.6,0.1,0.9,0.4
			c0.3,0.3,0.4,0.6,0.4,0.9v2.3c0,0.3,0.1,0.6,0.4,0.8c0.2,0.2,0.5,0.4,0.9,0.4h2.3c0.3,0,0.6,0.1,0.9,0.4s0.4,0.6,0.4,0.9v21.6
			c0,0.3-0.1,0.6-0.4,0.9s-0.6,0.4-0.9,0.4h-7.2c-0.3,0-0.6-0.1-0.8-0.4c-0.2-0.2-0.4-0.5-0.4-0.9v-7.1c0-0.3-0.1-0.6-0.4-0.9
			c-0.3-0.2-0.6-0.4-0.9-0.4h-7.2c-0.3,0-0.6,0.1-0.9,0.4c-0.3,0.2-0.4,0.5-0.4,0.9v7.1c0,0.3-0.1,0.6-0.4,0.9
			c-0.2,0.2-0.5,0.4-0.9,0.4h-7.1C269.8,43.5,269.5,43.4,269.3,43.2z M286.9,29.1c0.3,0,0.6-0.1,0.9-0.4c0.3-0.3,0.4-0.5,0.4-0.9
			v-7.2c0-0.3-0.1-0.6-0.4-0.9s-0.6-0.4-0.9-0.4h-7.2c-0.3,0-0.6,0.1-0.9,0.4s-0.4,0.6-0.4,0.9v7.2c0,0.3,0.1,0.6,0.4,0.9
			c0.3,0.3,0.5,0.4,0.9,0.4H286.9z"/>
	</g>
</g>
<path class="st8" d="M105.4,50.2c-0.2-0.2-0.4-0.5-0.4-0.9V22.9c0-0.3,0.1-0.6,0.4-0.9c0.2-0.3,0.5-0.4,0.9-0.4h21.6
	c0.3,0,0.6,0.1,0.9,0.4c0.3,0.3,0.4,0.6,0.4,0.9v2.3c0,0.3,0.1,0.6,0.4,0.8c0.2,0.2,0.5,0.4,0.9,0.4h2.3c0.3,0,0.6,0.1,0.9,0.4
	c0.3,0.3,0.4,0.5,0.4,0.9V30c0,0.3-0.1,0.6-0.4,0.9c-0.3,0.3-0.6,0.4-0.9,0.4h-2.3c-0.3,0-0.6,0.1-0.9,0.4c-0.2,0.2-0.4,0.5-0.4,0.9
	v2.4c0,0.3,0.1,0.6,0.4,0.9c0.2,0.3,0.5,0.4,0.9,0.4h2.3c0.3,0,0.6,0.1,0.9,0.4c0.3,0.2,0.4,0.5,0.4,0.9v7.1c0,0.3-0.1,0.6-0.4,0.9
	s-0.6,0.4-0.9,0.4h-2.3c-0.3,0-0.6,0.1-0.9,0.4c-0.2,0.2-0.4,0.5-0.4,0.9v2.3c0,0.3-0.1,0.6-0.4,0.9c-0.3,0.2-0.6,0.4-0.9,0.4h-21.6
	C105.9,50.6,105.6,50.5,105.4,50.2z M123.1,31.3c0.3,0,0.6-0.1,0.9-0.4c0.3-0.3,0.4-0.5,0.4-0.9v-2.3c0-0.3-0.1-0.6-0.4-0.9
	c-0.3-0.3-0.6-0.4-0.9-0.4h-7.2c-0.3,0-0.6,0.1-0.9,0.4c-0.3,0.3-0.4,0.5-0.4,0.9V30c0,0.3,0.1,0.6,0.4,0.9c0.3,0.3,0.5,0.4,0.9,0.4
	H123.1z M123.1,45.8c0.3,0,0.6-0.1,0.9-0.4s0.4-0.5,0.4-0.9v-7.1c0-0.3-0.1-0.6-0.4-0.9c-0.3-0.2-0.6-0.4-0.9-0.4h-7.2
	c-0.3,0-0.6,0.1-0.9,0.4c-0.3,0.2-0.4,0.5-0.4,0.9v7.1c0,0.3,0.1,0.6,0.4,0.9c0.3,0.2,0.5,0.4,0.9,0.4H123.1z"/>
<path class="st5" d="M108.8,46.7c-0.2-0.2-0.4-0.5-0.4-0.9V19.4c0-0.3,0.1-0.6,0.4-0.9c0.2-0.3,0.5-0.4,0.9-0.4h21.6
	c0.3,0,0.6,0.1,0.9,0.4c0.3,0.3,0.4,0.6,0.4,0.9v2.3c0,0.3,0.1,0.6,0.4,0.8c0.2,0.2,0.5,0.4,0.9,0.4h2.3c0.3,0,0.6,0.1,0.9,0.4
	c0.3,0.3,0.4,0.5,0.4,0.9v2.3c0,0.3-0.1,0.6-0.4,0.9s-0.6,0.4-0.9,0.4h-2.3c-0.3,0-0.6,0.1-0.9,0.4c-0.2,0.2-0.4,0.5-0.4,0.9v2.4
	c0,0.3,0.1,0.6,0.4,0.9c0.2,0.3,0.5,0.4,0.9,0.4h2.3c0.3,0,0.6,0.1,0.9,0.4c0.3,0.2,0.4,0.5,0.4,0.9V41c0,0.3-0.1,0.6-0.4,0.9
	c-0.3,0.2-0.6,0.4-0.9,0.4h-2.3c-0.3,0-0.6,0.1-0.9,0.4c-0.2,0.2-0.4,0.5-0.4,0.9v2.3c0,0.3-0.1,0.6-0.4,0.9s-0.6,0.4-0.9,0.4h-21.6
	C109.3,47.1,109,47,108.8,46.7z M126.5,27.8c0.3,0,0.6-0.1,0.9-0.4s0.4-0.5,0.4-0.9v-2.3c0-0.3-0.1-0.6-0.4-0.9
	c-0.3-0.3-0.6-0.4-0.9-0.4h-7.2c-0.3,0-0.6,0.1-0.9,0.4c-0.3,0.3-0.4,0.5-0.4,0.9v2.3c0,0.3,0.1,0.6,0.4,0.9
	c0.3,0.3,0.5,0.4,0.9,0.4H126.5z M126.5,42.3c0.3,0,0.6-0.1,0.9-0.4c0.3-0.2,0.4-0.5,0.4-0.9v-7.1c0-0.3-0.1-0.6-0.4-0.9
	c-0.3-0.2-0.6-0.4-0.9-0.4h-7.2c-0.3,0-0.6,0.1-0.9,0.4c-0.3,0.2-0.4,0.5-0.4,0.9V41c0,0.3,0.1,0.6,0.4,0.9c0.3,0.2,0.5,0.4,0.9,0.4
	H126.5z"/>
<path class="st2" d="M112.2,43.2c-0.2-0.2-0.4-0.5-0.4-0.9V15.8c0-0.3,0.1-0.6,0.4-0.9c0.2-0.3,0.5-0.4,0.9-0.4h21.6
	c0.3,0,0.6,0.1,0.9,0.4c0.3,0.3,0.4,0.6,0.4,0.9v2.3c0,0.3,0.1,0.6,0.4,0.8s0.5,0.4,0.9,0.4h2.3c0.3,0,0.6,0.1,0.9,0.4
	c0.3,0.3,0.4,0.5,0.4,0.9V23c0,0.3-0.1,0.6-0.4,0.9c-0.3,0.3-0.6,0.4-0.9,0.4h-2.3c-0.3,0-0.6,0.1-0.9,0.4c-0.2,0.2-0.4,0.5-0.4,0.9
	v2.4c0,0.3,0.1,0.6,0.4,0.9c0.2,0.3,0.5,0.4,0.9,0.4h2.3c0.3,0,0.6,0.1,0.9,0.4c0.3,0.2,0.4,0.5,0.4,0.9v7.1c0,0.3-0.1,0.6-0.4,0.9
	c-0.3,0.2-0.6,0.4-0.9,0.4h-2.3c-0.3,0-0.6,0.1-0.9,0.4c-0.2,0.2-0.4,0.5-0.4,0.9v2.3c0,0.3-0.1,0.6-0.4,0.9s-0.6,0.4-0.9,0.4H113
	C112.7,43.5,112.4,43.4,112.2,43.2z M129.8,24.2c0.3,0,0.6-0.1,0.9-0.4c0.3-0.3,0.4-0.5,0.4-0.9v-2.3c0-0.3-0.1-0.6-0.4-0.9
	c-0.3-0.3-0.6-0.4-0.9-0.4h-7.2c-0.3,0-0.6,0.1-0.9,0.4c-0.3,0.3-0.4,0.5-0.4,0.9V23c0,0.3,0.1,0.6,0.4,0.9c0.3,0.3,0.5,0.4,0.9,0.4
	H129.8z M129.8,38.7c0.3,0,0.6-0.1,0.9-0.4c0.3-0.2,0.4-0.5,0.4-0.9v-7.1c0-0.3-0.1-0.6-0.4-0.9c-0.3-0.2-0.6-0.4-0.9-0.4h-7.2
	c-0.3,0-0.6,0.1-0.9,0.4c-0.3,0.2-0.4,0.5-0.4,0.9v7.1c0,0.3,0.1,0.6,0.4,0.9c0.3,0.2,0.5,0.4,0.9,0.4H129.8z"/>
<path class="st8" d="M152.6,50.2c-0.3-0.2-0.4-0.5-0.4-0.9V47c0-0.3-0.1-0.6-0.4-0.9c-0.2-0.2-0.5-0.4-0.9-0.4h-2.3
	c-0.3,0-0.6-0.1-0.9-0.4s-0.4-0.5-0.4-0.9V22.9c0-0.3,0.1-0.6,0.4-0.9c0.2-0.3,0.5-0.4,0.9-0.4h7.1c0.3,0,0.6,0.1,0.9,0.4
	c0.2,0.3,0.4,0.6,0.4,0.9v21.6c0,0.3,0.1,0.6,0.4,0.9s0.5,0.4,0.9,0.4h7.2c0.3,0,0.6-0.1,0.9-0.4s0.4-0.5,0.4-0.9V22.9
	c0-0.3,0.1-0.6,0.4-0.9c0.2-0.3,0.5-0.4,0.8-0.4h7.2c0.3,0,0.6,0.1,0.9,0.4c0.3,0.3,0.4,0.6,0.4,0.9v21.6c0,0.3-0.1,0.6-0.4,0.9
	s-0.6,0.4-0.9,0.4h-2.3c-0.3,0-0.6,0.1-0.9,0.4c-0.2,0.2-0.4,0.5-0.4,0.9v2.3c0,0.3-0.1,0.6-0.4,0.9s-0.6,0.4-0.9,0.4h-16.8
	C153.2,50.6,152.9,50.5,152.6,50.2z"/>
<path class="st5" d="M156,46.7c-0.3-0.2-0.4-0.5-0.4-0.9v-2.3c0-0.3-0.1-0.6-0.4-0.9c-0.2-0.2-0.5-0.4-0.9-0.4h-2.3
	c-0.3,0-0.6-0.1-0.9-0.4c-0.2-0.2-0.4-0.5-0.4-0.9V19.4c0-0.3,0.1-0.6,0.4-0.9c0.2-0.3,0.5-0.4,0.9-0.4h7.1c0.3,0,0.6,0.1,0.9,0.4
	c0.2,0.3,0.4,0.6,0.4,0.9V41c0,0.3,0.1,0.6,0.4,0.9c0.3,0.2,0.5,0.4,0.9,0.4h7.2c0.3,0,0.6-0.1,0.9-0.4c0.3-0.2,0.4-0.5,0.4-0.9
	V19.4c0-0.3,0.1-0.6,0.4-0.9c0.2-0.3,0.5-0.4,0.8-0.4h7.2c0.3,0,0.6,0.1,0.9,0.4c0.3,0.3,0.4,0.6,0.4,0.9V41c0,0.3-0.1,0.6-0.4,0.9
	c-0.3,0.2-0.6,0.4-0.9,0.4h-2.3c-0.3,0-0.6,0.1-0.9,0.4c-0.2,0.2-0.4,0.5-0.4,0.9v2.3c0,0.3-0.1,0.6-0.4,0.9s-0.6,0.4-0.9,0.4h-16.8
	C156.6,47.1,156.3,47,156,46.7z"/>
<path class="st2" d="M159.4,43.2c-0.3-0.2-0.4-0.5-0.4-0.9V40c0-0.3-0.1-0.6-0.4-0.9c-0.2-0.2-0.5-0.4-0.9-0.4h-2.3
	c-0.3,0-0.6-0.1-0.9-0.4c-0.2-0.2-0.4-0.5-0.4-0.9V15.8c0-0.3,0.1-0.6,0.4-0.9c0.2-0.3,0.5-0.4,0.9-0.4h7.1c0.3,0,0.6,0.1,0.9,0.4
	c0.2,0.3,0.4,0.6,0.4,0.9v21.6c0,0.3,0.1,0.6,0.4,0.9c0.3,0.2,0.5,0.4,0.9,0.4h7.2c0.3,0,0.6-0.1,0.9-0.4c0.3-0.2,0.4-0.5,0.4-0.9
	V15.8c0-0.3,0.1-0.6,0.4-0.9c0.2-0.3,0.5-0.4,0.8-0.4h7.2c0.3,0,0.6,0.1,0.9,0.4c0.3,0.3,0.4,0.6,0.4,0.9v21.6
	c0,0.3-0.1,0.6-0.4,0.9c-0.3,0.2-0.6,0.4-0.9,0.4h-2.3c-0.3,0-0.6,0.1-0.9,0.4c-0.2,0.2-0.4,0.5-0.4,0.9v2.3c0,0.3-0.1,0.6-0.4,0.9
	s-0.6,0.4-0.9,0.4h-16.8C160,43.5,159.7,43.4,159.4,43.2z"/>
</svg>
