<svg width="88" height="70" viewBox="0 0 88 70" fill="none" xmlns="http://www.w3.org/2000/svg">
<path fill-rule="evenodd" clip-rule="evenodd" d="M45.0304 0.320402C33.4891 0.320402 24.0996 9.6685 24.0996 21.1589C24.0996 22.8166 24.8177 26.7528 25.2236 28.4557C25.5401 30.3404 26.1435 32.4159 26.9635 34.456C26.9667 34.4641 26.97 34.4722 26.9733 34.4803C27.1354 34.8827 27.3057 35.2836 27.4841 35.6814C27.4855 35.6846 27.4869 35.6877 27.4883 35.6908C27.5752 35.8844 27.6642 36.077 27.7547 36.2689C27.7623 36.2851 27.77 36.3013 27.7777 36.3175C27.9579 36.6978 28.1454 37.0741 28.3393 37.4453C28.3481 37.4621 28.3568 37.4791 28.3657 37.4959C28.4596 37.6749 28.5552 37.8524 28.6521 38.0287C28.6649 38.0518 28.6778 38.0748 28.6905 38.098C28.8859 38.4509 29.0873 38.7975 29.294 39.1372C29.3106 39.1645 29.3271 39.1918 29.3438 39.219C29.443 39.3808 29.5436 39.5407 29.6453 39.699C29.6635 39.7273 29.6818 39.7552 29.7001 39.7834C29.7376 39.8416 29.775 39.8998 29.813 39.9573L30.1714 40.5004C31.6435 42.7308 33.3563 44.5659 35.1715 45.5533C38.0177 47.1007 36.541 45.6898 38.3113 47.9983C42.6447 53.6389 48.5054 53.044 52.0565 48.0621C53.5869 45.9138 52.9104 46.9805 55.0771 45.761C60.0766 42.9428 64.0634 35.1771 65.0163 28.6493C65.4441 26.9132 66.3181 23.3234 66.3181 21.702C66.3181 17.4918 65.0575 13.5692 62.8924 10.2888L62.534 9.74569C62.5002 9.69438 62.4645 9.64442 62.4302 9.59343C62.3936 9.53911 62.3566 9.48524 62.3196 9.43128C61.979 8.93512 61.6175 8.45442 61.2363 7.99021C61.1991 7.94488 61.162 7.8995 61.1244 7.85443C60.9327 7.62498 60.7369 7.39912 60.5358 7.17811C60.5139 7.15407 60.4914 7.13075 60.4694 7.1069C60.2775 6.89802 60.0811 6.69332 59.8809 6.49235C59.8513 6.46265 59.8222 6.43246 59.7924 6.4029C59.5776 6.18984 59.358 5.98164 59.1341 5.77798C59.1013 5.74805 59.0679 5.71876 59.0349 5.68906C58.81 5.48697 58.5815 5.28878 58.3479 5.0964C58.3429 5.09226 58.338 5.08795 58.333 5.08377C58.0927 4.88622 57.8469 4.69513 57.5978 4.50823C57.5618 4.48127 57.5258 4.45449 57.4896 4.42776C56.9864 4.05516 56.4657 3.70493 55.9293 3.37762C55.8987 3.35889 55.8682 3.33997 55.8373 3.32137C55.5667 3.15814 55.2924 3.00062 55.014 2.84948C54.9987 2.84117 54.9832 2.83326 54.9678 2.82499C54.6898 2.67488 54.4079 2.53102 54.1225 2.39327C54.11 2.38729 54.0978 2.381 54.0854 2.37502C53.7953 2.23574 53.5011 2.10369 53.2038 1.97758C53.1771 1.96621 53.1502 1.9552 53.1233 1.94397C52.5261 1.69349 51.9148 1.4705 51.2912 1.27515C51.2636 1.26653 51.236 1.2579 51.2084 1.24936C50.5764 1.05428 49.9315 0.889074 49.2757 0.753612C49.2587 0.750107 49.2418 0.746378 49.2248 0.742918C48.8942 0.675479 48.5606 0.616262 48.2247 0.564594C48.2152 0.563111 48.2057 0.561898 48.1962 0.56046C47.5193 0.457257 46.8314 0.388291 46.1349 0.351538C46.1144 0.35046 46.0937 0.349562 46.0731 0.348573C45.7276 0.33114 45.3803 0.320312 45.0305 0.320312L45.0304 0.320402ZM62.9124 10.3416C62.8343 10.2143 62.7508 10.0908 62.67 9.96544C62.6956 10.0026 62.7223 10.039 62.7476 10.0763C62.8033 10.1643 62.8581 10.2528 62.9124 10.3416ZM59.3085 12.1823C59.3697 12.2786 59.4332 12.3735 59.4926 12.4712C59.5058 12.4929 59.5188 12.515 59.5319 12.5369C59.6513 12.7353 59.7669 12.9363 59.8782 13.1398C59.8926 13.1662 59.9067 13.1928 59.921 13.2193C60.0293 13.4199 60.1337 13.6229 60.2339 13.8282C60.2485 13.8581 60.2628 13.8881 60.2772 13.9181C60.3751 14.1216 60.469 14.3274 60.5588 14.5354C60.5729 14.5678 60.5867 14.6004 60.6005 14.633C60.6884 14.8401 60.7721 15.0493 60.8518 15.2605C60.8647 15.2948 60.8775 15.3291 60.8902 15.3635C60.9683 15.5745 61.042 15.7877 61.1117 16.0026C61.1232 16.0381 61.1347 16.0735 61.1459 16.109C61.2142 16.3243 61.2779 16.5418 61.3376 16.7607C61.3474 16.7968 61.3573 16.8327 61.3669 16.8688C61.4253 17.0888 61.4788 17.3106 61.5283 17.534C61.5363 17.5701 61.5446 17.6062 61.5524 17.6424C61.6007 17.867 61.6437 18.0936 61.6828 18.3214C61.689 18.3575 61.6956 18.3936 61.7016 18.4298C61.7395 18.6589 61.7717 18.8898 61.8002 19.1219C61.8053 19.1636 61.8104 19.2052 61.8151 19.247C61.8415 19.4747 61.8623 19.7042 61.8792 19.9347C61.8808 19.9568 61.8828 19.9789 61.8843 20.0011C61.8529 20.0491 61.8105 20.1192 61.7373 20.2373C61.3469 20.8633 61.2798 21.5532 60.4126 22.9433C58.6482 25.7607 55.9168 28.0929 52.7412 29.6566C41.5904 35.1445 46.6777 37.8105 46.116 40.7316L44.0726 40.6605C44.2228 39.2485 45.6845 37.4974 43.9287 34.8371L43.5703 34.294C43.4219 34.0693 43.2507 33.838 43.0537 33.6C42.9479 33.4719 42.839 33.3485 42.7278 33.2284C42.7099 33.2091 42.691 33.1911 42.6729 33.1719C42.5792 33.0726 42.4843 32.975 42.387 32.8808C42.3596 32.8544 42.3313 32.8293 42.3037 32.8033C42.2134 32.718 42.1224 32.6339 42.0293 32.5525C41.9994 32.5265 41.9688 32.5014 41.9387 32.4757C41.8452 32.3959 41.7509 32.3173 41.6548 32.241C41.6259 32.2181 41.5965 32.1957 41.5674 32.1731C41.467 32.095 41.3655 32.0182 41.2625 31.9433C41.2378 31.9254 41.2129 31.9078 41.1881 31.89C41.0768 31.8105 40.9642 31.7323 40.85 31.656C40.8337 31.645 40.8174 31.6342 40.801 31.6233C40.6731 31.5385 40.5435 31.4553 40.4123 31.3738L40.4077 31.371C37.2088 29.3854 33.1005 28.3253 30.067 23.8887C30.0648 23.8855 30.0626 23.8824 30.0604 23.8792C29.8774 23.5858 29.6988 23.2787 29.5253 22.9569C29.3301 22.5979 29.2276 22.391 29.1201 22.2281L28.7617 21.6851L28.7597 21.6822C28.6855 21.5702 28.6087 21.4788 28.4973 21.3728C28.6748 12.2464 36.1817 4.87678 45.3888 4.87678C51.1597 4.87678 56.2599 7.77396 59.3084 12.1825L59.3085 12.1823ZM40.8957 35.8904C40.9187 35.9362 40.9415 35.9819 40.9608 36.0278C40.9633 36.0337 40.9657 36.0395 40.9681 36.0454C40.9915 36.1023 41.0116 36.1592 41.0291 36.2162C41.0317 36.2247 41.0342 36.2333 41.0366 36.2417C41.0526 36.2964 41.0651 36.351 41.0752 36.4058C41.0761 36.4106 41.0769 36.4154 41.0778 36.4202C40.9999 36.4456 40.9227 36.4692 40.8459 36.4913C40.8413 36.4926 40.8367 36.494 40.8321 36.4953C40.7549 36.5174 40.6782 36.5378 40.602 36.5565C40.5949 36.5583 40.5879 36.5598 40.5807 36.5616C40.4342 36.5972 40.2895 36.6268 40.1469 36.6506C40.1392 36.6519 40.1313 36.6534 40.1235 36.6547C40.0514 36.6664 39.9799 36.6766 39.9088 36.6854C39.8984 36.6867 39.8881 36.6877 39.8777 36.6889C39.7425 36.705 39.6093 36.7157 39.478 36.7214C39.4678 36.7218 39.4575 36.7225 39.4473 36.7229C39.38 36.7254 39.3132 36.7266 39.2469 36.7265C39.2342 36.7264 39.2216 36.7261 39.2089 36.7259C39.0839 36.7248 38.9608 36.719 38.8396 36.7088C38.8279 36.7078 38.816 36.7071 38.8043 36.706C38.7415 36.7002 38.6791 36.6932 38.6173 36.685C38.6032 36.6832 38.5892 36.681 38.5752 36.6789C38.4593 36.6626 38.3452 36.6421 38.233 36.6177C38.2205 36.615 38.2079 36.6125 38.1955 36.6097C38.1367 36.5964 38.0786 36.582 38.0209 36.5665C38.0061 36.5626 37.9917 36.5583 37.9771 36.5542C37.8694 36.5242 37.7636 36.4906 37.6596 36.4534C37.647 36.4489 37.6342 36.4447 37.6216 36.44C37.5668 36.4199 37.5126 36.3987 37.4589 36.3766C37.4441 36.3705 37.4295 36.3641 37.4148 36.3579C37.3151 36.3157 37.2172 36.2702 37.1211 36.2215C37.1086 36.2151 37.0959 36.209 37.0834 36.2025C37.0325 36.1763 36.9824 36.1489 36.9326 36.1209C36.9179 36.1126 36.9033 36.1039 36.8886 36.0954C36.7971 36.0425 36.7074 35.9867 36.6196 35.9281C36.6069 35.9196 36.594 35.9114 36.5813 35.9028C36.5348 35.8711 36.4888 35.8386 36.4433 35.8054C36.4282 35.7944 36.4135 35.7831 36.3986 35.7719C36.3163 35.7105 36.2357 35.6465 36.1569 35.5801C36.1434 35.5687 36.1297 35.5576 36.1163 35.5461C36.0744 35.5101 36.033 35.4733 35.9922 35.436C35.9762 35.4214 35.9606 35.4065 35.9448 35.3918C35.8732 35.3249 35.8033 35.2559 35.7349 35.1852C35.7195 35.1693 35.704 35.1536 35.6888 35.1375C35.6522 35.0987 35.6161 35.0591 35.5804 35.0192C35.5627 34.9994 35.5453 34.9791 35.5278 34.959C35.4688 34.8913 35.4114 34.8219 35.355 34.7515C35.3366 34.7283 35.318 34.7054 35.2999 34.682C35.2691 34.6424 35.239 34.602 35.2091 34.5615C35.2021 34.5519 35.1952 34.5421 35.1882 34.5324C34.7531 33.7969 34.4419 32.9679 34.2669 32.1165C36.1502 32.7819 39.5571 34.242 40.8956 35.8905L40.8957 35.8904ZM45.9443 48.1469L45.9429 48.1473C45.2973 48.3365 44.6685 48.3568 44.0716 48.2491C44.0604 48.2471 44.0491 48.2452 44.0379 48.2431C43.9484 48.2262 43.8596 48.2064 43.7717 48.1838C43.757 48.18 43.7424 48.176 43.7278 48.172C43.6403 48.1487 43.5534 48.1231 43.4676 48.0945C43.4583 48.0914 43.449 48.0878 43.4398 48.0847C43.0783 47.9614 42.7322 47.7917 42.4048 47.5872C42.3843 47.5744 42.3635 47.5622 42.3431 47.5491C42.2789 47.5078 42.2157 47.4645 42.1531 47.4204C42.1242 47.4001 42.0952 47.3799 42.0666 47.359C42.0085 47.3167 41.9511 47.2733 41.8944 47.2288C41.8628 47.2039 41.8314 47.1785 41.8002 47.153C41.7464 47.1092 41.6929 47.0649 41.6406 47.0192C41.6081 46.9909 41.5765 46.9617 41.5445 46.9327C41.4943 46.8872 41.4439 46.8418 41.3951 46.7947C41.363 46.7637 41.332 46.7313 41.3005 46.6996C41.2203 46.6194 41.1428 46.5369 41.0666 46.4532C41.0273 46.4101 40.9879 46.3671 40.9499 46.3231C40.9146 46.2822 40.8809 46.2402 40.8468 46.1985C40.809 46.1522 40.7708 46.1062 40.7341 46.0592C40.7019 46.0181 40.671 45.9762 40.6396 45.9346C40.6138 45.9001 40.5886 45.8652 40.5634 45.8304C40.4115 45.5745 40.278 45.3139 40.165 45.0534C40.7507 44.3709 40.928 44.5549 41.4764 43.6944C45.3329 44.6113 45.2614 44.5178 49.0881 43.7063C49.4559 44.2277 49.6829 44.3728 49.9387 44.6016C48.6242 46.6917 47.2502 47.7637 45.9442 48.1469L45.9443 48.1469ZM55.7541 32.3183C53.5544 33.1388 50.0246 34.895 49.2455 36.5618C52.6012 37.293 54.9242 35.0994 55.7541 32.3183Z" fill="url(#paint0_linear)"/>
<path d="M45.0304 0.320312C33.4891 0.320312 24.0996 9.66842 24.0996 21.1588C24.0996 22.8739 24.8683 27.0282 25.2646 28.6245L28.889 26.1378C28.6073 25.2402 28.4002 24.3085 28.2751 23.3531C28.2736 23.3412 28.2706 23.3294 28.2691 23.3175C28.1782 22.6113 28.1305 21.8902 28.1305 21.1588C28.1305 11.8804 35.7125 4.33345 45.0304 4.33345C54.3484 4.33345 61.9288 11.8804 61.9288 21.1588C61.9288 22.6958 61.7216 24.1854 61.3312 25.6007C61.282 25.7817 61.2284 25.9598 61.1733 26.1378L64.5882 28.3889C64.9816 26.7925 65.9597 22.8739 65.9597 21.1588C65.9597 9.66842 56.5702 0.320312 45.0304 0.320312ZM64.3555 26.6685C64.1871 25.2205 64.8175 24.8466 64.9441 24.0692L63.9085 24.8734L63.5895 23.9417C63.4107 23.6524 63.2766 23.4417 63.1768 23.2904C63.141 23.1539 63.0501 22.8928 62.8683 22.4403C62.8356 22.3602 62.4243 21.9952 62.32 21.2252L62.1352 19.7313C61.8923 19.9716 61.9698 19.8618 61.7373 20.2372C61.3469 20.8632 61.2798 21.5531 60.4126 22.9432C58.6482 25.7606 55.9168 28.0928 52.7412 29.6565C41.5904 35.1443 46.6777 37.8103 46.116 40.7315L43.7302 40.6484C43.4098 39.0298 45.8835 37.0196 43.0537 33.5999C39.598 29.4117 33.1069 29.7203 29.1669 22.4136C28.7467 21.6406 28.7556 21.5724 28.2207 21.1317C28.2445 22.1495 27.5084 22.5723 26.6694 23.4328C25.3954 24.7428 26.0644 25.2117 25.3402 27.348L25.1152 27.7441C25.9229 33.8506 30.0104 42.3976 34.8131 45.0102C37.6594 46.5576 36.1826 45.1467 37.9529 47.4552C42.2863 53.0958 48.1471 52.5009 51.6981 47.519C53.2286 45.3708 52.552 46.4375 54.7187 45.2179C59.8299 42.3368 63.8847 34.2839 64.7191 27.67C64.2751 27.1774 64.5448 28.2501 64.3555 26.6686L64.3555 26.6685ZM33.9086 31.5733C36.193 32.3803 40.7216 34.3564 41.0777 36.4201C37.178 37.693 34.5702 34.7926 33.9086 31.5733ZM39.8066 44.5102C40.3923 43.8277 40.5696 44.0117 41.118 43.1512C44.9745 44.0681 44.9029 43.9746 48.7297 43.1631C49.278 43.9405 49.5135 43.8811 49.9978 44.5102C45.9133 51.1092 41.2327 47.7978 39.8066 44.5102H39.8066ZM48.7491 36.4365C49.0858 34.5107 53.6695 32.3432 55.9376 31.5821C55.2938 34.8357 52.6727 37.5966 48.7491 36.4365Z" fill="url(#paint1_linear)"/>
<path d="M36.2439 16.975C36.2439 18.6199 34.9045 19.9534 33.2523 19.9534C31.6001 19.9534 30.2607 18.6199 30.2607 16.975C30.2607 15.33 31.6001 13.9966 33.2523 13.9966C34.9046 13.9966 36.2439 15.3301 36.2439 16.975Z" fill="url(#paint2_linear)"/>
<path d="M14.8671 68.792H8.46822C8.22771 68.792 8.0505 68.7416 7.93657 68.6408C7.8353 68.5274 7.78467 68.3509 7.78467 68.1115V55.8617C7.78467 55.6222 7.8353 55.4521 7.93657 55.3513C8.0505 55.2379 8.22771 55.1812 8.46822 55.1812H14.8671C16.4494 55.1812 17.6203 55.4962 18.3798 56.1264C19.1519 56.7565 19.538 57.7269 19.538 59.0376V64.9356C19.538 66.2463 19.1519 67.2167 18.3798 67.8468C17.6203 68.477 16.4494 68.792 14.8671 68.792ZM12.0949 58.7918V65.2192H14.3544C14.6582 65.2192 14.8797 65.1436 15.019 64.9923C15.1709 64.8411 15.2468 64.6079 15.2468 64.2929V59.6992C15.2468 59.3841 15.1709 59.1573 15.019 59.0187C14.8797 58.8674 14.6582 58.7918 14.3544 58.7918H12.0949Z" fill="url(#paint3_linear)"/>
<path d="M31.4451 68.792H22.6348C22.3943 68.792 22.2171 68.7416 22.1031 68.6408C22.0019 68.5274 21.9512 68.3509 21.9512 68.1115V55.8617C21.9512 55.6222 22.0019 55.4521 22.1031 55.3513C22.2171 55.2379 22.3943 55.1812 22.6348 55.1812H31.4451C31.6856 55.1812 31.8565 55.2379 31.9577 55.3513C32.0717 55.4521 32.1286 55.6222 32.1286 55.8617V58.0735C32.1286 58.3129 32.0717 58.4894 31.9577 58.6028C31.8565 58.7036 31.6856 58.754 31.4451 58.754H26.2045V60.2096H29.9071C30.1476 60.2096 30.3185 60.2663 30.4197 60.3798C30.5337 60.4806 30.5906 60.6507 30.5906 60.8902V62.9129C30.5906 63.1523 30.5337 63.3288 30.4197 63.4422C30.3185 63.543 30.1476 63.5934 29.9071 63.5934H26.2045V65.2192H31.4451C31.6856 65.2192 31.8565 65.2759 31.9577 65.3893C32.0717 65.4901 32.1286 65.6603 32.1286 65.8997V68.1115C32.1286 68.3509 32.0717 68.5274 31.9577 68.6408C31.8565 68.7416 31.6856 68.792 31.4451 68.792Z" fill="url(#paint4_linear)"/>
<path d="M38.0014 68.792H35.0583C34.8178 68.792 34.6406 68.7416 34.5267 68.6408C34.4254 68.5274 34.3748 68.3509 34.3748 68.1115V55.8617C34.3748 55.6222 34.4254 55.4521 34.5267 55.3513C34.6406 55.2379 34.8178 55.1812 35.0583 55.1812H43.5268C43.7673 55.1812 43.9382 55.2379 44.0395 55.3513C44.1534 55.4521 44.2104 55.6222 44.2104 55.8617V58.1113C44.2104 58.3507 44.1534 58.5272 44.0395 58.6406C43.9382 58.7414 43.7673 58.7918 43.5268 58.7918H38.685V60.7578H41.9888C42.2294 60.7578 42.4002 60.8145 42.5015 60.928C42.6154 61.0288 42.6724 61.1989 42.6724 61.4384V63.7069C42.6724 63.9463 42.6154 64.1227 42.5015 64.2362C42.4002 64.337 42.2294 64.3874 41.9888 64.3874H38.685V68.1115C38.685 68.3509 38.628 68.5274 38.5141 68.6408C38.4128 68.7416 38.2419 68.792 38.0014 68.792Z" fill="url(#paint5_linear)"/>
<path d="M46.492 68.792C46.2515 68.792 46.0743 68.7416 45.9604 68.6408C45.8591 68.5274 45.8085 68.3509 45.8085 68.1115V65.8619C45.8085 65.6225 45.8591 65.4523 45.9604 65.3515C46.0743 65.2381 46.2515 65.1814 46.492 65.1814H48.3718V58.8296H46.492C46.2515 58.8296 46.0743 58.7792 45.9604 58.6784C45.8591 58.565 45.8085 58.3885 45.8085 58.1491V55.8617C45.8085 55.6222 45.8591 55.4521 45.9604 55.3513C46.0743 55.2379 46.2515 55.1812 46.492 55.1812H54.5808C54.8213 55.1812 54.9922 55.2379 55.0934 55.3513C55.2074 55.4521 55.2643 55.6222 55.2643 55.8617V58.1491C55.2643 58.3885 55.2074 58.565 55.0934 58.6784C54.9922 58.7792 54.8213 58.8296 54.5808 58.8296H52.739V65.1814H54.5808C54.8213 65.1814 54.9922 65.2381 55.0934 65.3515C55.2074 65.4523 55.2643 65.6225 55.2643 65.8619V68.1115C55.2643 68.3509 55.2074 68.5274 55.0934 68.6408C54.9922 68.7416 54.8213 68.792 54.5808 68.792H46.492Z" fill="url(#paint6_linear)"/>
<path d="M70.5509 68.792H62.1583C61.9178 68.792 61.7406 68.7416 61.6267 68.6408C61.5254 68.5274 61.4748 68.3509 61.4748 68.1115V65.8241C61.4748 65.5847 61.5254 65.4145 61.6267 65.3137C61.7406 65.2003 61.9178 65.1436 62.1583 65.1436H64.2849V58.8296H62.5381C62.2976 58.8296 62.1203 58.7792 62.0064 58.6784C61.9052 58.565 61.8545 58.3885 61.8545 58.1491V55.8617C61.8545 55.6222 61.9052 55.4521 62.0064 55.3513C62.1203 55.2379 62.2976 55.1812 62.5381 55.1812H68.0445C68.285 55.1812 68.4559 55.2379 68.5572 55.3513C68.6711 55.4521 68.7281 55.6222 68.7281 55.8617V65.1436H70.5509C70.7914 65.1436 70.9623 65.2003 71.0635 65.3137C71.1775 65.4145 71.2344 65.5847 71.2344 65.8241V68.1115C71.2344 68.3509 71.1775 68.5274 71.0635 68.6408C70.9623 68.7416 70.7914 68.792 70.5509 68.792Z" fill="url(#paint7_linear)"/>
<path d="M81.9546 68.792H73.562C73.3215 68.792 73.1443 68.7416 73.0304 68.6408C72.9291 68.5274 72.8785 68.3509 72.8785 68.1115V65.8241C72.8785 65.5847 72.9291 65.4145 73.0304 65.3137C73.1443 65.2003 73.3215 65.1436 73.562 65.1436H75.6887V58.8296H73.9418C73.7013 58.8296 73.5241 58.7792 73.4101 58.6784C73.3089 58.565 73.2582 58.3885 73.2582 58.1491V55.8617C73.2582 55.6222 73.3089 55.4521 73.4101 55.3513C73.5241 55.2379 73.7013 55.1812 73.9418 55.1812H79.4482C79.6887 55.1812 79.8596 55.2379 79.9609 55.3513C80.0748 55.4521 80.1318 55.6222 80.1318 55.8617V65.1436H81.9546C82.1951 65.1436 82.366 65.2003 82.4673 65.3137C82.5812 65.4145 82.6381 65.5847 82.6381 65.8241V68.1115C82.6381 68.3509 82.5812 68.5274 82.4673 68.6408C82.366 68.7416 82.1951 68.792 81.9546 68.792Z" fill="url(#paint8_linear)"/>
<defs>
<linearGradient id="paint0_linear" x1="24.0996" y1="26.1682" x2="66.3181" y2="26.1682" gradientUnits="userSpaceOnUse">
<stop stop-color="#CF826F"/>
<stop offset="1" stop-color="#F1BB9D"/>
</linearGradient>
<linearGradient id="paint1_linear" x1="24.0996" y1="14.4724" x2="65.9597" y2="14.4724" gradientUnits="userSpaceOnUse">
<stop stop-color="#F1CFBA"/>
<stop offset="0.180392" stop-color="#F1BA9B"/>
<stop offset="0.741176" stop-color="#E38B78"/>
<stop offset="1" stop-color="#BE7B67"/>
</linearGradient>
<linearGradient id="paint2_linear" x1="30.2607" y1="16.975" x2="36.2439" y2="16.975" gradientUnits="userSpaceOnUse">
<stop stop-color="#F1CFBA"/>
<stop offset="0.180392" stop-color="#F1BA9B"/>
<stop offset="0.741176" stop-color="#E38B78"/>
<stop offset="1" stop-color="#BE7B53"/>
</linearGradient>
<linearGradient id="paint3_linear" x1="6.47357" y1="57.035" x2="87.7043" y2="57.035" gradientUnits="userSpaceOnUse">
<stop stop-color="#F1CFBA"/>
<stop offset="0.180392" stop-color="#F1BA9B"/>
<stop offset="0.741176" stop-color="#E38B78"/>
<stop offset="1" stop-color="#BE7B67"/>
</linearGradient>
<linearGradient id="paint4_linear" x1="6.47357" y1="57.035" x2="87.7043" y2="57.035" gradientUnits="userSpaceOnUse">
<stop stop-color="#F1CFBA"/>
<stop offset="0.180392" stop-color="#F1BA9B"/>
<stop offset="0.741176" stop-color="#E38B78"/>
<stop offset="1" stop-color="#BE7B67"/>
</linearGradient>
<linearGradient id="paint5_linear" x1="6.47357" y1="57.035" x2="87.7043" y2="57.035" gradientUnits="userSpaceOnUse">
<stop stop-color="#F1CFBA"/>
<stop offset="0.180392" stop-color="#F1BA9B"/>
<stop offset="0.741176" stop-color="#E38B78"/>
<stop offset="1" stop-color="#BE7B67"/>
</linearGradient>
<linearGradient id="paint6_linear" x1="6.47357" y1="57.035" x2="87.7043" y2="57.035" gradientUnits="userSpaceOnUse">
<stop stop-color="#F1CFBA"/>
<stop offset="0.180392" stop-color="#F1BA9B"/>
<stop offset="0.741176" stop-color="#E38B78"/>
<stop offset="1" stop-color="#BE7B67"/>
</linearGradient>
<linearGradient id="paint7_linear" x1="6.47357" y1="57.035" x2="87.7043" y2="57.035" gradientUnits="userSpaceOnUse">
<stop stop-color="#F1CFBA"/>
<stop offset="0.180392" stop-color="#F1BA9B"/>
<stop offset="0.741176" stop-color="#E38B78"/>
<stop offset="1" stop-color="#BE7B67"/>
</linearGradient>
<linearGradient id="paint8_linear" x1="6.47357" y1="57.035" x2="87.7043" y2="57.035" gradientUnits="userSpaceOnUse">
<stop stop-color="#F1CFBA"/>
<stop offset="0.180392" stop-color="#F1BA9B"/>
<stop offset="0.741176" stop-color="#E38B78"/>
<stop offset="1" stop-color="#BE7B67"/>
</linearGradient>
</defs>
</svg>
