<svg id="Layer_2" data-name="Layer 2" xmlns="http://www.w3.org/2000/svg" viewBox="0 0 842.63 129.68"><defs><style>.cls-1{fill:#123461;}.cls-2{fill:#406386;}.cls-3{fill:#becad6;}.cls-4{fill:#001a43;}</style></defs><title>Hex Trust Logo</title><path class="cls-1" d="M262.12,144.58V48.82h23.1V86.67H327V48.83h23.1v95.75H327V105.37h-41.8v39.22Z" transform="translate(-30.67 -30.18)"/><path class="cls-1" d="M425.82,122.4c-3.5,15.35-15.51,24-33.14,24-21.43,0-36.63-13.07-36.62-34.5,0-21.28,15.5-36.63,36.17-36.63,22.35,0,34,15.35,34,33.74v6.69H377.64c.61,9,7.29,14.13,15.81,14.13,7.59,0,12.31-2.88,14.74-9.11ZM405.15,104c-.45-6.69-4.71-12.77-13.07-12.77-8.81,0-12.92,5.62-14.14,12.76Z" transform="translate(-30.67 -30.18)"/><path class="cls-1" d="M470.81,109.18l26.9,35.42H473.24l-14.89-20.06L443.3,144.59H420.5l26.76-34.5-24.62-33h24.47l12.61,17.63,12.92-17.63h22.8Z" transform="translate(-30.67 -30.18)"/><path class="cls-1" d="M562,144.6V67.85H528.73v-19h90v19H585v76.76Z" transform="translate(-30.67 -30.18)"/><path class="cls-1" d="M673.28,98.56a21.68,21.68,0,0,0-11.56-2.74c-9.11,0-15.19,5.17-15.2,16.87v31.92H624.63V77.12h21.89V89.44c2.58-7.6,9.57-14.14,18.69-14.14,4.11,0,7.6,1.22,9.43,2.74Z" transform="translate(-30.67 -30.18)"/><path class="cls-1" d="M726.17,77.13h22v67.48h-22V134.13c-3.65,7.6-11.25,12.31-21.43,12.31-18.24,0-24-12.47-24-26.91V77.13h21.88v37.09c0,9.57,3.19,14.89,11.25,14.89s12.31-6.83,12.31-17.63Z" transform="translate(-30.67 -30.18)"/><path class="cls-1" d="M773.59,122.13c.91,6.53,6.08,10.18,14.29,10.18,5.93,0,9.88-2.13,9.88-5.77,0-3.35-2.13-5.17-7.6-6.08l-10.33-1.68C764.32,116.35,756,111,756,97.65c0-13.07,11.41-22.34,29.49-22.34,19.15,0,30.55,8.52,31.92,23l-18.09.6c-1.06-5.92-5.77-9.27-14.13-9.27-5.47,0-8.82,2.28-8.82,5.93,0,2.73,2.13,4.41,5.47,4.86l13.07,2.28c14.75,2.29,23.26,8.82,23.26,21.74,0,14.14-12,22-30.4,22s-32.07-7.45-33.29-23.87Z" transform="translate(-30.67 -30.18)"/><path class="cls-1" d="M832.88,92.49h-9.43V79.12l4.87-.76c6.68-1.22,8.66-4.71,10.33-10.94l2.28-9h13.53V77.14H872.4V92.5H854.46v28.11c0,5.78,2.73,8.21,7.9,8.21a26.93,26.93,0,0,0,10.94-2.73v14.44c-5,3.8-10.79,5.92-19.61,5.92-10.94,0-20.82-4.71-20.82-19.91Z" transform="translate(-30.67 -30.18)"/><polygon class="cls-2" points="183.94 25.06 183.94 30.7 126.97 46.36 126.96 46.36 92.75 36.96 91.2 36.96 56.99 46.36 56.97 46.36 0 30.7 0 25.06 91.2 0 92.75 0 183.94 25.06"/><polygon class="cls-3" points="183.94 62.01 183.94 67.66 126.93 83.32 92.75 73.92 91.2 73.92 57.01 83.32 0 67.66 0 62.01 56.97 46.36 56.99 46.36 91.2 55.76 92.75 55.76 126.96 46.36 126.97 46.36 183.94 62.01"/><polygon class="cls-2" points="183.94 98.98 183.94 104.62 92.75 129.68 91.2 129.68 0 104.62 0 98.98 57.01 83.32 91.2 92.71 92.75 92.71 126.93 83.32 183.94 98.98"/><polygon class="cls-4" points="92.75 73.92 126.93 83.32 92.75 92.71 91.2 92.71 57.01 83.32 91.2 73.92 92.75 73.92"/><polygon class="cls-4" points="91.2 55.76 56.99 46.36 91.2 36.96 92.75 36.96 126.96 46.36 92.75 55.76 91.2 55.76"/></svg>
