<?xml version="1.0" encoding="utf-8"?>
<!-- Generator: Adobe Illustrator 24.1.1, SVG Export Plug-In . SVG Version: 6.00 Build 0)  -->
<svg version="1.1" id="Layer_1" xmlns="http://www.w3.org/2000/svg" xmlns:xlink="http://www.w3.org/1999/xlink" x="0px" y="0px"
	 viewBox="0 0 1600 1200" style="enable-background:new 0 0 1600 1200;" xml:space="preserve">
<style type="text/css">
	.st0{fill:#0B0B56;}
	.st1{fill:#9373FF;}
	.st2{fill:#00D7FD;}
	.st3{fill:#FFFFFF;stroke:#FF0000;stroke-width:2;stroke-miterlimit:10;}
	.st4{fill:#FFFFFF;}
	.st5{fill:none;stroke:#FFFFFF;stroke-width:16;stroke-miterlimit:10;}
	.st6{fill:#00C4EC;}
</style>
<rect x="989.37" class="st0" width="610.63" height="600"/>
<g>
	<rect y="600" class="st0" width="989.37" height="600"/>
	<g>
		<g>
			<path class="st1" d="M156.34,906.57v-87.4c0-1.86-1.51-3.37-3.37-3.37h-21.95c-1.86,0-3.37,1.51-3.37,3.37v5.94
				c0,1.86,1.51,3.37,3.37,3.37h9.28c1.86,0,3.37,1.51,3.37,3.37v136.31c0,1.86-1.51,3.37-3.37,3.37h-9.28
				c-1.86,0-3.37,1.51-3.37,3.37v5.94c0,1.86,1.51,3.37,3.37,3.37h21.95c1.86,0,3.37-1.51,3.37-3.37v-54.85
				c0-1.86,1.51-3.37,3.37-3.37h78.95c1.86,0,3.37,1.51,3.37,3.37v42.18c0,1.86-1.51,3.37-3.37,3.37h-7.7
				c-1.86,0-3.37,1.51-3.37,3.37v5.94c0,1.86,1.51,3.37,3.37,3.37h20.36c1.86,0,3.37-1.51,3.37-3.37v-67.52
				c0-1.86-1.51-3.37-3.37-3.37h-91.62C157.85,909.94,156.34,908.43,156.34,906.57z"/>
			<path class="st1" d="M204.73,971.52h-5.78c-1.86,0-3.37-1.51-3.37-3.37v-19.11c0-1.02-0.4-2.01-1.17-2.68
				c-5.36-4.65-11.5-0.93-11.5,4.21v30.24c0,1.86,1.51,3.37,3.37,3.37h19.99c1.02,0,2.01-0.4,2.68-1.17
				C213.59,977.66,209.87,971.52,204.73,971.52z"/>
			<path class="st2" d="M309.95,825.11v-5.94c0-1.86-1.51-3.37-3.37-3.37h-21.95c-1.86,0-3.37,1.51-3.37,3.37v54.85
				c0,1.86-1.51,3.37-3.37,3.37h-78.95c-1.86,0-3.37-1.51-3.37-3.37v-42.18c0-1.86,1.51-3.37,3.37-3.37h8.75
				c1.86,0,3.37-1.51,3.37-3.37v-5.94c0-1.86-1.51-3.37-3.37-3.37h-21.42c-1.86,0-3.37,1.51-3.37,3.37v67.52
				c0,1.86,1.51,3.37,3.37,3.37h91.62c1.86,0,3.37,1.51,3.37,3.37v87.4c0,1.86,1.51,3.37,3.37,3.37h21.95
				c1.86,0,3.37-1.51,3.37-3.37v-5.94c0-1.86-1.51-3.37-3.37-3.37h-9.28c-1.86,0-3.37-1.51-3.37-3.37V831.84
				c0-1.86,1.51-3.37,3.37-3.37h9.28C308.44,828.48,309.95,826.97,309.95,825.11z"/>
			<g>
				<g>
					<g>
						<g>
							<path class="st3" d="M249.77,860.5"/>
						</g>
					</g>
				</g>
			</g>
			<path class="st2" d="M251.33,815.81h-20.06c-1.86,0-3.37,1.51-3.37,3.37v5.94c0,1.86,1.51,3.37,3.37,3.37h7.39
				c1.86,0,3.37,1.51,3.37,3.37v20.54c0,1.86,1.51,3.37,3.37,3.37h5.94c1.86,0,3.37-1.51,3.37-3.37v-33.21
				C254.7,817.32,253.19,815.81,251.33,815.81z"/>
		</g>
		<g>
			<path class="st4" d="M435.07,907h-66.33v57.23h-12.25V841.89h12.25v54.95h66.33v-54.95h12.25v122.33h-12.25V907z"/>
			<path class="st4" d="M465.52,841.54c0-5.25,4.03-8.93,8.92-8.93c4.9,0,8.93,3.68,8.93,8.93s-4.03,9.1-8.93,9.1
				C469.54,850.64,465.52,846.79,465.52,841.54z M468.32,868.67h12.25v95.55h-12.25V868.67z"/>
			<path class="st4" d="M572.97,909.62c0-21.18-11.55-32.03-29.05-32.03c-17.85,0-30.28,11.2-30.28,34.48v52.15h-12.25v-95.55h12.25
				v16.28c6.13-11.9,18.38-18.03,32.55-18.03c21.7,0,38.85,13.3,38.85,41.3v56h-12.08V909.62z"/>
			<path class="st4" d="M645.24,867.27c19.25,0,32.38,10.33,37.8,22.4v-21h12.25v95.55h-12.25v-21.18
				c-5.6,12.25-18.9,22.58-37.98,22.58c-26.08,0-45.5-19.43-45.5-49.35C599.56,886.35,618.99,867.27,645.24,867.27z M647.51,877.95
				c-20.13,0-35.53,14-35.53,38.33c0,24.15,15.4,38.68,35.53,38.68c19.6,0,35.53-14.7,35.53-38.5
				C683.04,892.65,667.11,877.95,647.51,877.95z"/>
			<path class="st4" d="M719.79,878.99h-13.3v-10.33h13.3v-23.98h12.43v23.98h26.25v10.33h-26.25v59.33
				c0,11.73,4.02,15.4,15.05,15.4h11.2v10.5h-13.13c-16.63,0-25.55-6.83-25.55-25.9V878.99z"/>
			<path class="st4" d="M811.66,867.27c19.25,0,32.38,10.33,37.8,22.4v-21h12.25v95.55h-12.25v-21.18
				c-5.6,12.25-18.9,22.58-37.98,22.58c-26.08,0-45.5-19.43-45.5-49.35C765.98,886.35,785.41,867.27,811.66,867.27z M813.94,877.95
				c-20.13,0-35.53,14-35.53,38.33c0,24.15,15.4,38.68,35.53,38.68c19.6,0,35.53-14.7,35.53-38.5
				C849.46,892.65,833.54,877.95,813.94,877.95z"/>
		</g>
	</g>
</g>
<g>
	<path class="st1" d="M156.34,306.57v-87.4c0-1.86-1.51-3.37-3.37-3.37h-21.95c-1.86,0-3.37,1.51-3.37,3.37v5.94
		c0,1.86,1.51,3.37,3.37,3.37h9.28c1.86,0,3.37,1.51,3.37,3.37v136.31c0,1.86-1.51,3.37-3.37,3.37h-9.28
		c-1.86,0-3.37,1.51-3.37,3.37v5.94c0,1.86,1.51,3.37,3.37,3.37h21.95c1.86,0,3.37-1.51,3.37-3.37v-54.85
		c0-1.86,1.51-3.37,3.37-3.37h78.95c1.86,0,3.37,1.51,3.37,3.37v42.18c0,1.86-1.51,3.37-3.37,3.37h-7.7c-1.86,0-3.37,1.51-3.37,3.37
		v5.94c0,1.86,1.51,3.37,3.37,3.37h20.36c1.86,0,3.37-1.51,3.37-3.37v-67.52c0-1.86-1.51-3.37-3.37-3.37h-91.62
		C157.85,309.94,156.34,308.43,156.34,306.57z"/>
	<path class="st1" d="M204.73,371.52h-5.78c-1.86,0-3.37-1.51-3.37-3.37v-19.11c0-1.02-0.4-2.01-1.17-2.68
		c-5.36-4.65-11.5-0.93-11.5,4.21v30.24c0,1.86,1.51,3.37,3.37,3.37h19.99c1.02,0,2.01-0.4,2.68-1.17
		C213.59,377.66,209.87,371.52,204.73,371.52z"/>
	<path class="st2" d="M309.95,225.11v-5.94c0-1.86-1.51-3.37-3.37-3.37h-21.95c-1.86,0-3.37,1.51-3.37,3.37v54.85
		c0,1.86-1.51,3.37-3.37,3.37h-78.95c-1.86,0-3.37-1.51-3.37-3.37v-42.18c0-1.86,1.51-3.37,3.37-3.37h8.75
		c1.86,0,3.37-1.51,3.37-3.37v-5.94c0-1.86-1.51-3.37-3.37-3.37h-21.42c-1.86,0-3.37,1.51-3.37,3.37v67.52
		c0,1.86,1.51,3.37,3.37,3.37h91.62c1.86,0,3.37,1.51,3.37,3.37v87.4c0,1.86,1.51,3.37,3.37,3.37h21.95c1.86,0,3.37-1.51,3.37-3.37
		v-5.94c0-1.86-1.51-3.37-3.37-3.37h-9.28c-1.86,0-3.37-1.51-3.37-3.37V231.84c0-1.86,1.51-3.37,3.37-3.37h9.28
		C308.44,228.48,309.95,226.97,309.95,225.11z"/>
	<g>
		<g>
			<g>
				<g>
					<path class="st3" d="M249.77,260.5"/>
				</g>
			</g>
		</g>
	</g>
	<path class="st2" d="M251.33,215.81h-20.06c-1.86,0-3.37,1.51-3.37,3.37v5.94c0,1.86,1.51,3.37,3.37,3.37h7.39
		c1.86,0,3.37,1.51,3.37,3.37v20.54c0,1.86,1.51,3.37,3.37,3.37h5.94c1.86,0,3.37-1.51,3.37-3.37v-33.21
		C254.7,217.32,253.19,215.81,251.33,215.81z"/>
</g>
<g>
	<path d="M435.07,307h-66.33v57.23h-12.25V241.89h12.25v54.95h66.33v-54.95h12.25v122.33h-12.25V307z"/>
	<path d="M465.52,241.54c0-5.25,4.03-8.93,8.92-8.93c4.9,0,8.93,3.68,8.93,8.93s-4.03,9.1-8.93,9.1
		C469.54,250.64,465.52,246.79,465.52,241.54z M468.32,268.67h12.25v95.55h-12.25V268.67z"/>
	<path d="M572.97,309.62c0-21.18-11.55-32.03-29.05-32.03c-17.85,0-30.28,11.2-30.28,34.48v52.15h-12.25v-95.55h12.25v16.28
		c6.13-11.9,18.38-18.03,32.55-18.03c21.7,0,38.85,13.3,38.85,41.3v56h-12.08V309.62z"/>
	<path d="M645.24,267.27c19.25,0,32.38,10.33,37.8,22.4v-21h12.25v95.55h-12.25v-21.18c-5.6,12.25-18.9,22.58-37.98,22.58
		c-26.08,0-45.5-19.43-45.5-49.35C599.56,286.35,618.99,267.27,645.24,267.27z M647.51,277.95c-20.13,0-35.53,14-35.53,38.33
		c0,24.15,15.4,38.68,35.53,38.68c19.6,0,35.53-14.7,35.53-38.5C683.04,292.65,667.11,277.95,647.51,277.95z"/>
	<path d="M719.79,278.99h-13.3v-10.33h13.3v-23.98h12.43v23.98h26.25v10.33h-26.25v59.33c0,11.73,4.02,15.4,15.05,15.4h11.2v10.5
		h-13.13c-16.63,0-25.55-6.83-25.55-25.9V278.99z"/>
	<path d="M811.66,267.27c19.25,0,32.38,10.33,37.8,22.4v-21h12.25v95.55h-12.25v-21.18c-5.6,12.25-18.9,22.58-37.98,22.58
		c-26.08,0-45.5-19.43-45.5-49.35C765.98,286.35,785.41,267.27,811.66,267.27z M813.94,277.95c-20.13,0-35.53,14-35.53,38.33
		c0,24.15,15.4,38.68,35.53,38.68c19.6,0,35.53-14.7,35.53-38.5C849.46,292.65,833.54,277.95,813.94,277.95z"/>
</g>
<path class="st5" d="M1535.73,247.43"/>
<g>
	<path class="st1" d="M1206.53,333.37V208.11c0-2.66-2.16-4.82-4.82-4.82h-31.45c-2.66,0-4.82,2.16-4.82,4.82v8.51
		c0,2.66,2.16,4.82,4.82,4.82h13.3c2.66,0,4.82,2.16,4.82,4.82v195.37c0,2.66-2.16,4.82-4.82,4.82h-13.3
		c-2.66,0-4.82,2.16-4.82,4.82v8.51c0,2.66,2.16,4.82,4.82,4.82h31.45c2.66,0,4.82-2.16,4.82-4.82v-78.61
		c0-2.66,2.16-4.82,4.82-4.82h113.16c2.66,0,4.82,2.16,4.82,4.82v60.46c0,2.66-2.16,4.82-4.82,4.82h-11.03
		c-2.66,0-4.82,2.16-4.82,4.82v8.51c0,2.66,2.16,4.82,4.82,4.82h29.19c2.66,0,4.82-2.16,4.82-4.82v-96.77
		c0-2.66-2.16-4.82-4.82-4.82h-131.32C1208.69,338.2,1206.53,336.04,1206.53,333.37z"/>
	<path class="st1" d="M1275.88,426.46h-8.29c-2.66,0-4.82-2.16-4.82-4.82v-27.38c0-1.46-0.58-2.89-1.68-3.84
		c-7.68-6.66-16.48-1.34-16.48,6.04v43.34c0,2.66,2.16,4.82,4.82,4.82h28.64c1.46,0,2.89-0.58,3.84-1.68
		C1288.58,435.26,1283.26,426.46,1275.88,426.46z"/>
	<path class="st2" d="M1426.69,216.61v-8.51c0-2.66-2.16-4.82-4.82-4.82h-31.46c-2.66,0-4.82,2.16-4.82,4.82v78.61
		c0,2.66-2.16,4.82-4.82,4.82H1267.6c-2.66,0-4.82-2.16-4.82-4.82v-60.46c0-2.66,2.16-4.82,4.82-4.82h12.54
		c2.66,0,4.82-2.16,4.82-4.82v-8.51c0-2.66-2.16-4.82-4.82-4.82h-30.7c-2.66,0-4.82,2.16-4.82,4.82v96.77
		c0,2.66,2.16,4.82,4.82,4.82h131.32c2.66,0,4.82,2.16,4.82,4.82v125.26c0,2.66,2.16,4.82,4.82,4.82h31.46
		c2.66,0,4.82-2.16,4.82-4.82v-8.51c0-2.66-2.16-4.82-4.82-4.82h-13.3c-2.66,0-4.82-2.16-4.82-4.82V226.26
		c0-2.66,2.16-4.82,4.82-4.82h13.3C1424.53,221.44,1426.69,219.28,1426.69,216.61z"/>
	<g>
		<g>
			<g>
				<g>
					<path class="st3" d="M1340.44,267.34"/>
				</g>
			</g>
		</g>
	</g>
	<path class="st2" d="M1342.68,203.28h-28.75c-2.66,0-4.82,2.16-4.82,4.82v8.51c0,2.66,2.16,4.82,4.82,4.82h10.6
		c2.66,0,4.82,2.16,4.82,4.82v29.44c0,2.66,2.16,4.82,4.82,4.82h8.51c2.66,0,4.82-2.16,4.82-4.82v-47.59
		C1347.5,205.44,1345.34,203.28,1342.68,203.28z"/>
</g>
<g>
	<rect x="993.51" y="309.71" class="st4" width="610.63" height="0.36"/>
</g>
<g>
	<rect x="993.51" y="203.1" class="st4" width="610.63" height="0.36"/>
</g>
<g>
	<rect x="993.51" y="260.35" class="st4" width="610.63" height="0.36"/>
</g>
<g>
	<rect x="993.51" y="291.4" class="st4" width="610.63" height="0.36"/>
</g>
<g>
	<rect x="993.51" y="337.83" class="st4" width="610.63" height="0.36"/>
</g>
<g>
	<rect x="993.51" y="356.35" class="st4" width="610.63" height="0.36"/>
</g>
<g>
	<rect x="993.51" y="387.19" class="st4" width="610.63" height="0.36"/>
</g>
<g>
	<rect x="993.51" y="426.13" class="st4" width="610.63" height="0.35"/>
</g>
<g>
	<rect x="993.51" y="444.44" class="st4" width="610.63" height="0.35"/>
</g>
<g>
	<rect x="1187.88" y="-4.06" class="st4" width="0.43" height="600"/>
</g>
<g>
	<rect x="1244.39" y="-4.06" class="st4" width="0.43" height="600"/>
</g>
<g>
	<rect x="1262.76" y="-4.06" class="st4" width="0.43" height="600"/>
</g>
<g>
	<rect x="1329.4" y="-4.06" class="st4" width="0.43" height="600"/>
</g>
<g>
	<rect x="1347.77" y="-4.06" class="st4" width="0.43" height="600"/>
</g>
<g>
	<rect x="1385.07" y="-4.06" class="st4" width="0.43" height="600"/>
</g>
<g>
	<rect x="1403.74" y="-4.06" class="st4" width="0.43" height="600"/>
</g>
<g>
	<rect x="1244.39" class="st4" width="0.43" height="600"/>
</g>
<g>
	<rect x="1262.76" class="st4" width="0.43" height="600"/>
</g>
<g>
	<rect x="1329.4" class="st4" width="0.43" height="600"/>
</g>
<g>
	<rect x="1347.77" class="st4" width="0.43" height="600"/>
</g>
<g>
	<rect x="1385.07" class="st4" width="0.43" height="600"/>
</g>
<g>
	<rect x="1403.74" class="st4" width="0.43" height="600"/>
</g>
<g>
	<rect x="989.37" y="600" class="st6" width="610.63" height="600"/>
	<g>
		<path class="st4" d="M1387.04,1053.02h-184.71c-33.5,0-60.66-27.16-60.66-60.66V807.65c0-33.5,27.16-60.66,60.66-60.66h184.71
			c33.5,0,60.66,27.16,60.66,60.66v184.71C1447.7,1025.86,1420.54,1053.02,1387.04,1053.02z"/>
		<g>
			<path class="st1" d="M1232.22,906.57v-87.4c0-1.86-1.51-3.37-3.37-3.37h-21.95c-1.86,0-3.37,1.51-3.37,3.37v5.94
				c0,1.86,1.51,3.37,3.37,3.37h9.28c1.86,0,3.37,1.51,3.37,3.37v136.31c0,1.86-1.51,3.37-3.37,3.37h-9.28
				c-1.86,0-3.37,1.51-3.37,3.37v5.94c0,1.86,1.51,3.37,3.37,3.37h21.95c1.86,0,3.37-1.51,3.37-3.37v-54.85
				c0-1.86,1.51-3.37,3.37-3.37h78.95c1.86,0,3.37,1.51,3.37,3.37v42.18c0,1.86-1.51,3.37-3.37,3.37h-7.7
				c-1.86,0-3.37,1.51-3.37,3.37v5.94c0,1.86,1.51,3.37,3.37,3.37h20.36c1.86,0,3.37-1.51,3.37-3.37v-67.52
				c0-1.86-1.51-3.37-3.37-3.37h-91.62C1233.73,909.94,1232.22,908.43,1232.22,906.57z"/>
			<path class="st1" d="M1280.61,971.52h-5.78c-1.86,0-3.37-1.51-3.37-3.37v-19.11c0-1.02-0.4-2.01-1.17-2.68
				c-5.36-4.65-11.5-0.93-11.5,4.21v30.24c0,1.86,1.51,3.37,3.37,3.37h19.99c1.02,0,2.01-0.4,2.68-1.17
				C1289.47,977.66,1285.76,971.52,1280.61,971.52z"/>
			<path class="st2" d="M1385.83,825.11v-5.94c0-1.86-1.51-3.37-3.37-3.37h-21.95c-1.86,0-3.37,1.51-3.37,3.37v54.85
				c0,1.86-1.51,3.37-3.37,3.37h-78.95c-1.86,0-3.37-1.51-3.37-3.37v-42.18c0-1.86,1.51-3.37,3.37-3.37h8.75
				c1.86,0,3.37-1.51,3.37-3.37v-5.94c0-1.86-1.51-3.37-3.37-3.37h-21.42c-1.86,0-3.37,1.51-3.37,3.37v67.52
				c0,1.86,1.51,3.37,3.37,3.37h91.62c1.86,0,3.37,1.51,3.37,3.37v87.4c0,1.86,1.51,3.37,3.37,3.37h21.95
				c1.86,0,3.37-1.51,3.37-3.37v-5.94c0-1.86-1.51-3.37-3.37-3.37h-9.28c-1.86,0-3.37-1.51-3.37-3.37V831.84
				c0-1.86,1.51-3.37,3.37-3.37h9.28C1384.32,828.48,1385.83,826.97,1385.83,825.11z"/>
			<g>
				<g>
					<g>
						<g>
							<path class="st3" d="M1325.66,860.5"/>
						</g>
					</g>
				</g>
			</g>
			<path class="st2" d="M1327.21,815.81h-20.06c-1.86,0-3.37,1.51-3.37,3.37v5.94c0,1.86,1.51,3.37,3.37,3.37h7.39
				c1.86,0,3.37,1.51,3.37,3.37v20.54c0,1.86,1.51,3.37,3.37,3.37h5.94c1.86,0,3.37-1.51,3.37-3.37v-33.21
				C1330.58,817.32,1329.07,815.81,1327.21,815.81z"/>
		</g>
	</g>
</g>
</svg>
