<svg xmlns="http://www.w3.org/2000/svg" viewBox="0 0 130.84 31.55"><defs><style>.cls-1{fill:#fff;}.cls-2{fill:#0d6284;}.cls-3{fill:#62c6f9;}</style></defs><title>Logo-footer</title><g id="Layer_2" data-name="Layer 2"><g id="footer"><path class="cls-1" d="M14.17.2v6a31.52,31.52,0,0,1,5.36-.46q1.59,0,3.15.15V.2Z"/><path class="cls-1" d="M14.17,16.53V31.39l8.51-5.67V16.05a21,21,0,0,0-8.51.48Z"/><path class="cls-2" d="M0,25.72H0l8.5,5.67V17.16A22.47,22.47,0,0,0,0,25.72Z"/><path class="cls-1" d="M8.5.2H0V10.76A33,33,0,0,1,8.5,6.15Z"/><path class="cls-3" d="M19.53,5.71a31.52,31.52,0,0,0-5.36.46A30.93,30.93,0,0,0,0,12.62v13.1H0A22.36,22.36,0,0,1,19.53,14.25a23.36,23.36,0,0,1,3.15.22V5.86Q21.12,5.71,19.53,5.71Z"/><path class="cls-1" d="M56.72,0a8.33,8.33,0,1,0,8.33,8.33A8.33,8.33,0,0,0,56.72,0Zm0,13.44a5.12,5.12,0,1,1,5.12-5.11A5.11,5.11,0,0,1,56.72,13.44Z"/><path class="cls-1" d="M36.14,16.31H32.91V.2h3.23V6.65h6.43V.2h3.22V16.31H42.57V9.87H36.14Z"/><path class="cls-1" d="M86.44,16.31H83.22V.2h3.22Z"/><path class="cls-1" d="M101.5,16.31H89L95.91,3.43H89V.2H101.5L94.65,13.09h6.85Z"/><path class="cls-1" d="M115.12,16.31h-11V.2h11V3.43H107.3V6.65h5.29V9.87H107.3v3.22h7.82Z"/><path class="cls-1" d="M130.84,16.31h-3.45l-6.21-10.6v10.6H118V.2h3.45l6.21,10.62V.2h3.23Z"/><path class="cls-1" d="M80.58,5.53c0-3.44-2-5.33-5.4-5.33H67.65V16.31h3.22V10.85H73.7L77,16.31h3.56l-3.3-5.74C79.35,9.93,80.58,8.2,80.58,5.53ZM70.87,5.3V3.43h3.85c1.4,0,2.57.71,2.57,2.1s-1.17,2.1-2.57,2.1H70.87V5.3Z"/></g></g></svg>
