<svg width="95" height="25" viewBox="0 0 95 25" fill="none" xmlns="http://www.w3.org/2000/svg">
<path d="M16.7767 12.4995L15.6757 11.3994H13.774V9.39941L12.673 8.2998L11.572 9.39941V11.3994H9.57023L8.56934 12.4995L9.57023 13.5996H11.572V15.4995L12.673 16.5996L13.774 15.4995V13.5996H15.6757L16.7767 12.4995Z" fill="#E7298B"/>
<path d="M33.5916 9.99951C33.5916 10.6995 32.991 11.3994 32.1903 11.3994C31.4897 11.3994 30.7891 10.7995 30.7891 9.99951C30.7891 9.19951 31.3896 8.59961 32.1903 8.59961C32.991 8.69961 33.5916 9.29951 33.5916 9.99951Z" fill="#E7298B"/>
<path d="M33.5916 14.8994C33.5916 15.5994 32.991 16.2998 32.1903 16.2998C31.4897 16.2998 30.7891 15.6994 30.7891 14.8994C30.7891 14.0994 31.3896 13.4995 32.1903 13.4995C32.991 13.5995 33.5916 14.1994 33.5916 14.8994Z" fill="#E7298B"/>
<path d="M29.788 11.0996C30.4886 11.0996 31.1893 11.6995 31.1893 12.4995C31.1893 13.1995 30.5887 13.8994 29.788 13.8994C29.0874 13.8994 28.3867 13.2995 28.3867 12.4995C28.3867 11.6995 28.9873 11.0996 29.788 11.0996Z" fill="#E7298B"/>
<path d="M34.6923 11.0996C35.3929 11.0996 36.0935 11.6995 36.0935 12.4995C36.0935 13.1995 35.493 13.8994 34.6923 13.8994C33.9916 13.8994 33.291 13.2995 33.291 12.4995C33.291 11.6995 33.8915 11.0996 34.6923 11.0996Z" fill="#E7298B"/>
<path d="M32.1901 0L12.673 19.5L5.56682 12.5L12.673 5.3999L18.2779 11L20.9803 8.30029L12.673 0L0.162109 12.5L12.673 25L32.1901 5.3999L39.2963 12.5L32.1901 19.5L26.5852 13.8999L23.8828 16.6001L32.1901 25L44.701 12.5L32.1901 0Z" fill="#E7298B"/>
<path d="M64.0179 7.6001H68.4219L67.0206 2.7002H69.9232L72.8259 12.8999H69.8232L69.0224 10H66.32L65.5193 12.8999H62.6167L64.0179 7.6001Z" fill="#E7298B"/>
<path d="M73.7266 12.8999V2.7002H77.1296L79.4317 6.8999L81.7337 2.7002H85.0367V12.8999H82.2342V6.80029L79.4317 12L76.5291 6.80029V12.8999H73.7266Z" fill="#E7298B"/>
<path d="M53.509 18.0996C54.0094 18.0996 54.5099 18.1998 54.8102 18.2998C55.2105 18.3998 55.4107 18.5998 55.711 18.7998C55.9112 18.9998 56.1113 19.1995 56.2114 19.4995C56.3115 19.7995 56.4116 19.9998 56.4116 20.2998C56.4116 20.5998 56.3115 20.8996 56.2114 21.0996C56.1113 21.3996 55.9112 21.5994 55.711 21.8994C55.5108 22.0994 55.1104 22.2994 54.7101 22.3994C54.3097 22.4994 53.8093 22.5996 53.3088 22.5996C53.0086 22.5996 52.8084 22.5995 52.5081 22.4995C52.2078 22.3995 52.0077 22.3998 51.8075 22.2998C51.6073 22.1998 51.4071 22.0995 51.207 21.9995C51.0068 21.8995 50.9067 21.7997 50.7065 21.6997L52.0077 20.4995C52.1077 20.6995 52.3079 20.7994 52.5081 20.8994C52.7083 20.9994 53.0086 20.9995 53.3088 20.9995C53.7092 20.9995 53.9094 20.8998 54.1095 20.7998C54.3097 20.6998 54.4098 20.5994 54.4098 20.3994C54.4098 20.1994 54.3097 20.0995 54.1095 19.9995C53.9094 19.8995 53.509 19.7998 53.0086 19.7998C52.5081 19.7998 52.0077 19.6996 51.7074 19.5996C51.307 19.4996 51.1069 19.2996 50.8066 19.0996C50.6064 18.8996 50.4062 18.6994 50.3062 18.3994C50.2061 18.0994 50.2061 17.8996 50.2061 17.5996C50.2061 17.2996 50.3061 16.9998 50.4062 16.7998C50.5063 16.4998 50.7065 16.2995 50.9067 15.9995C51.1068 15.7995 51.5072 15.5995 51.9076 15.4995C52.3079 15.3995 52.8084 15.2998 53.3088 15.2998C53.6091 15.2998 53.8093 15.2994 54.1095 15.3994C54.4098 15.4994 54.61 15.4996 54.8102 15.5996C55.0104 15.6996 55.2105 15.7994 55.4107 15.8994C55.6109 15.9994 55.711 16.0997 55.9111 16.1997L54.61 17.3994C54.5099 17.1994 54.3097 17.0995 54.1095 16.9995C53.9094 16.8995 53.6091 16.8994 53.3088 16.8994C52.9085 16.8994 52.7083 16.9996 52.5081 17.0996C52.3079 17.1996 52.2078 17.2995 52.2078 17.4995C52.2078 17.6995 52.3079 17.7994 52.5081 17.8994C52.7083 18.0994 53.1086 18.0996 53.509 18.0996Z" fill="#E7298B"/>
<path d="M56.5117 15.4995H63.3178V17.1997H60.9157V20.6997L59.014 22.4995V17.1997H56.5117V15.4995Z" fill="#E7298B"/>
<path d="M63.5175 18.7998H66.4201L65.5193 15.4995H67.5211L69.4228 22.3994H67.421L66.9205 20.4995H65.0188L64.4183 22.3994H62.5166L63.5175 18.7998Z" fill="#E7298B"/>
<path d="M69.1221 15.4995H75.9282V17.1997H73.526V20.6997L71.6243 22.4995V17.1997H69.1221V15.4995Z" fill="#E7298B"/>
<path d="M78.7308 15.4995H76.8291V22.3994H78.7308V15.4995Z" fill="#E7298B"/>
<path d="M79.6318 18.9995C79.6318 18.4995 79.7319 17.9995 79.9321 17.4995C80.1323 17.0995 80.3325 16.6998 80.6327 16.2998C80.933 15.9998 81.3334 15.6996 81.8338 15.5996C82.2342 15.3996 82.7346 15.2998 83.3352 15.2998C83.9357 15.2998 84.4361 15.3996 84.8365 15.5996C85.2369 15.7996 85.6372 15.9998 86.0376 16.2998C86.3378 16.5998 86.6381 16.9995 86.7382 17.4995C86.9384 17.8995 87.0385 18.3995 87.0385 18.9995C87.0385 19.5995 86.9384 20.0995 86.7382 20.4995C86.538 20.8995 86.3378 21.2997 86.0376 21.6997C85.7373 21.9997 85.3369 22.2994 84.8365 22.3994C84.3361 22.5994 83.8356 22.6997 83.3352 22.6997C82.8347 22.6997 82.3343 22.5994 81.8338 22.3994C81.4335 22.1994 81.0331 21.9997 80.6327 21.6997C80.3325 21.3997 80.0322 20.9995 79.9321 20.4995C79.7319 19.9995 79.6318 19.4995 79.6318 18.9995ZM81.5335 18.9995C81.5335 19.5995 81.6336 20.0995 81.9339 20.4995C82.2342 20.8995 82.6345 20.9995 83.2351 20.9995C83.5353 20.9995 83.7355 20.9994 84.0358 20.8994C84.2359 20.7994 84.4361 20.6995 84.6363 20.4995C84.8365 20.2995 84.9366 20.0994 84.9366 19.8994C85.0367 19.6994 85.0367 19.3996 85.0367 19.0996C85.0367 18.7996 85.0367 18.4998 84.9366 18.2998C84.8365 18.0998 84.7364 17.7997 84.6363 17.6997C84.4361 17.4997 84.336 17.3998 84.0358 17.2998C83.8356 17.1998 83.5353 17.1997 83.2351 17.1997C82.6345 17.1997 82.2342 17.3998 81.9339 17.7998C81.7337 17.8998 81.5335 18.3995 81.5335 18.9995Z" fill="#E7298B"/>
<path d="M89.7406 15.4995L92.7432 19.5996V17.2998L94.6449 15.4995V22.4995H92.7432V22.3994L89.7406 18.2998V22.4995H87.8389V15.4995H89.7406Z" fill="#E7298B"/>
<path d="M86.0371 6.69971V9.09961H92.0425L94.6448 6.69971H86.0371Z" fill="#E7298B"/>
<path d="M94.6448 10.4995H86.0371V12.8994H94.6448V10.4995Z" fill="#E7298B"/>
<path d="M94.6448 2.7002H86.0371V5.1001H94.6448V2.7002Z" fill="#E7298B"/>
<path d="M57.8129 9.7002C57.3124 10.3002 56.5117 10.6001 55.711 10.6001C54.1096 10.6001 52.9085 9.30029 52.9085 7.80029C52.9085 6.20029 54.2096 5 55.711 5C56.5117 5 57.3124 5.3999 57.8129 5.8999H60.8156C60.0148 3.7999 58.013 2.30029 55.711 2.30029C52.7083 2.30029 50.2061 4.70029 50.2061 7.80029C50.2061 10.9003 52.7083 13.3003 55.711 13.3003C58.1131 13.3003 60.1149 11.8002 60.8156 9.7002H57.8129Z" fill="#E7298B"/>
<path d="M62.5166 6.59961H56.4111V8.89941H62.5166V6.59961Z" fill="#E7298B"/>
</svg>
