<svg width="573" height="34" viewBox="0 0 573 34" fill="none" xmlns="http://www.w3.org/2000/svg">
<path d="M5.99582 0.586212H13.2907V26.8678H30.079V33.4138H5.99582V0.586212Z" fill="#F8008B"/>
<path d="M35.675 0.586212H60.9573V7.0345H42.9699V13.6782H58.8588V20.1265H42.9699V26.9656H61.2571V33.4138H35.675V0.586212Z" fill="#F8008B"/>
<path d="M75.6471 7.22991H65.3543V0.586212H93.2348V7.22991H82.942V33.4138H75.6471V7.22991Z" fill="#F8008B"/>
<path d="M122.115 7.22991H111.823V0.586212H139.703V7.22991H129.41V33.4138H122.115V7.22991Z" fill="#F8008B"/>
<path d="M145.299 0.586212H152.694V13.5805H166.384V0.586212H173.779V33.4138H166.384V20.2242H152.694V33.4138H145.299V0.586212Z" fill="#F8008B"/>
<path d="M181.774 0.586212H207.156V7.0345H189.168V13.6782H204.957V20.1265H189.168V26.9656H207.356V33.4138H181.774V0.586212Z" fill="#F8008B"/>
<path d="M226.842 17.0977C226.842 7.71839 234.237 0 244.43 0C250.426 0 254.123 1.56322 257.621 4.49426L252.924 9.96553C250.326 7.81611 248.027 6.6437 244.13 6.6437C238.734 6.6437 234.537 11.3333 234.537 16.9023V17C234.537 22.9598 238.734 27.4541 244.73 27.4541C247.428 27.4541 249.826 26.7702 251.725 25.5V20.8103H244.33V14.5575H258.82V28.8218C255.322 31.6552 250.625 34 244.43 34C234.037 34 226.842 26.7701 226.842 17.0977Z" fill="#F8008B"/>
<path d="M277.407 0.390839H284.202L298.592 33.4138H290.897L287.799 26.0862H273.609L270.511 33.4138H263.017L277.407 0.390839ZM285.201 19.638L280.704 8.98853L276.208 19.638H285.201Z" fill="#F8008B"/>
<path d="M303.788 0.586212H311.783L320.576 14.4598L329.47 0.586212H337.365V33.4138H330.07V12.0172L320.576 25.9885H320.377L311.083 12.115V33.4138H303.788V0.586212Z" fill="#F8008B"/>
<path d="M345.459 0.586212H370.741V7.0345H352.754V13.6782H368.643V20.1265H352.754V26.9656H371.041V33.4138H345.459V0.586212Z" fill="#F8008B"/>
<path d="M375.238 28.6264L379.635 23.546C382.633 25.9886 385.831 27.5518 389.628 27.5518C392.626 27.5518 394.425 26.3793 394.425 24.4253V24.3276C394.425 22.4713 393.226 21.592 387.63 20.1265C380.834 18.4656 376.537 16.6092 376.537 10.0632V9.96554C376.537 4.00577 381.434 0.0977173 388.329 0.0977173C393.226 0.0977173 397.423 1.56325 400.82 4.29889L397.023 9.77013C394.025 7.7184 391.127 6.546 388.329 6.546C385.531 6.546 384.032 7.81614 384.032 9.37936V9.47704C384.032 11.6265 385.431 12.3104 391.227 13.7759C398.022 15.5345 401.92 17.8793 401.92 23.6437V23.7414C401.92 30.2874 396.823 33.9023 389.628 33.9023C384.432 33.9023 379.335 32.1437 375.238 28.6264Z" fill="#F8008B"/>
<path d="M422.705 0.586212H438.294C442.091 0.586212 445.189 1.66093 447.088 3.51725C448.587 4.98277 449.386 6.83907 449.386 9.0862V9.18393C449.386 12.8966 447.388 14.9483 444.989 16.2184C448.887 17.6839 451.285 19.8334 451.285 24.3276V24.4253C451.285 30.3851 446.289 33.4138 438.694 33.4138H422.705V0.586212ZM441.992 10.2586C441.992 8.1092 440.293 6.83908 437.195 6.83908H429.9V13.7759H436.695C439.993 13.8736 441.992 12.7989 441.992 10.2586ZM438.394 19.8333H429.9V27.0632H438.694C441.992 27.0632 443.89 25.8908 443.89 23.546V23.4483C443.89 21.2012 442.191 19.8333 438.394 19.8333Z" fill="#F8008B"/>
<path d="M457.281 0.586212H482.663V7.0345H464.676V13.6782H480.465V20.1265H464.676V26.9656H482.863V33.4138H457.281V0.586212Z" fill="#F8008B"/>
<path d="M487.959 17.0977C487.959 7.71839 495.354 0 505.547 0C511.543 0 515.24 1.56322 518.738 4.49426L514.041 9.96553C511.443 7.81611 509.145 6.6437 505.247 6.6437C499.851 6.6437 495.654 11.3333 495.654 16.9023V17C495.654 22.9598 499.851 27.4541 505.847 27.4541C508.545 27.4541 510.943 26.7702 512.842 25.5V20.8103H505.447V14.5575H520.037V28.8218C516.54 31.6552 511.843 34 505.647 34C495.154 34 487.959 26.7701 487.959 17.0977Z" fill="#F8008B"/>
<path d="M534.827 0.586212H527.432V33.4138H534.827V0.586212Z" fill="#F8008B"/>
<path d="M543.121 0.586212H550.016L565.705 20.8103V0.586212H573V33.4138H566.704L550.416 12.5057V33.4138H543.121V0.586212Z" fill="#F8008B"/>
<path d="M0 0.586212H7.29489V26.8678H24.0832V33.4138H0V0.586212Z" fill="#00D7DD"/>
<path d="M29.6792 0.586212H54.9615V7.0345H36.9741V13.6782H52.863V20.1265H36.9741V26.9656H55.2613V33.4138H29.6792V0.586212Z" fill="#00D7DD"/>
<path d="M69.6513 7.22991H59.3585V0.586212H87.239V7.22991H76.9462V33.4138H69.6513V7.22991Z" fill="#00D7DD"/>
<path d="M115.12 7.22991H104.827V0.586212H132.707V7.22991H122.414V33.4138H115.12V7.22991Z" fill="#00D7DD"/>
<path d="M139.303 0.586212H146.698V13.5805H160.389V0.586212H167.783V33.4138H160.389V20.2242H146.698V33.4138H139.303V0.586212Z" fill="#00D7DD"/>
<path d="M175.778 0.586212H201.16V7.0345H183.173V13.6782H198.962V20.1265H183.173V26.9656H201.36V33.4138H175.778V0.586212Z" fill="#00D7DD"/>
<path d="M220.846 17.0977C220.846 7.71839 228.241 0 238.434 0C244.43 0 248.127 1.56322 251.625 4.49426L246.928 9.96553C244.33 7.81611 242.031 6.6437 238.134 6.6437C232.738 6.6437 228.541 11.3333 228.541 16.9023V17C228.541 22.9598 232.738 27.4541 238.734 27.4541C241.432 27.4541 243.83 26.7702 245.729 25.5V20.8103H238.334V14.5575H252.824V28.8218C249.326 31.6552 244.63 34 238.434 34C228.041 34 220.846 26.7701 220.846 17.0977Z" fill="#00D7DD"/>
<path d="M271.411 0.390839H278.206L292.596 33.4138H284.901L281.804 26.0862H267.613L264.516 33.4138H257.021L271.411 0.390839ZM279.205 19.638L274.709 8.98853L270.212 19.638H279.205Z" fill="#00D7DD"/>
<path d="M297.792 0.586212H305.787L314.581 14.4598L323.475 0.586212H331.369V33.4138H324.074V12.0172L314.581 25.9885H314.381L305.087 12.115V33.4138H297.792V0.586212Z" fill="#00D7DD"/>
<path d="M339.463 0.586212H364.746V7.0345H346.758V13.6782H362.647V20.1265H346.758V26.9656H365.045V33.4138H339.463V0.586212Z" fill="#00D7DD"/>
<path d="M369.242 28.6264L373.639 23.546C376.637 25.9886 379.835 27.5518 383.632 27.5518C386.63 27.5518 388.429 26.3793 388.429 24.4253V24.3276C388.429 22.4713 387.23 21.592 381.634 20.1265C374.839 18.4656 370.542 16.6092 370.542 10.0632V9.96554C370.542 4.00577 375.438 0.0977173 382.333 0.0977173C387.23 0.0977173 391.427 1.56325 394.825 4.29889L391.027 9.77013C388.029 7.7184 385.131 6.546 382.333 6.546C379.535 6.546 378.036 7.81614 378.036 9.37936V9.47704C378.036 11.6265 379.435 12.3104 385.231 13.7759C392.026 15.5345 395.924 17.8793 395.924 23.6437V23.7414C395.924 30.2874 390.827 33.9023 383.632 33.9023C378.436 33.9023 373.34 32.1437 369.242 28.6264Z" fill="#00D7DD"/>
<path d="M416.709 0.586212H432.298C436.096 0.586212 439.194 1.66093 441.092 3.51725C442.591 4.98277 443.391 6.83907 443.391 9.0862V9.18393C443.391 12.8966 441.392 14.9483 438.994 16.2184C442.891 17.6839 445.289 19.8334 445.289 24.3276V24.4253C445.289 30.3851 440.293 33.4138 432.698 33.4138H416.709V0.586212ZM435.996 10.2586C435.996 8.1092 434.297 6.83908 431.199 6.83908H423.904V13.7759H430.7C433.997 13.8736 435.996 12.7989 435.996 10.2586ZM432.398 19.8333H423.904V27.0632H432.698C435.996 27.0632 437.894 25.8908 437.894 23.546V23.4483C437.894 21.2012 436.196 19.8333 432.398 19.8333Z" fill="#00D7DD"/>
<path d="M451.285 0.586212H476.667V7.0345H458.68V13.6782H474.469V20.1265H458.68V26.9656H476.867V33.4138H451.285V0.586212Z" fill="#00D7DD"/>
<path d="M481.964 17.0977C481.964 7.71839 489.359 0 499.551 0C505.547 0 509.245 1.56322 512.742 4.49426L508.045 9.96553C505.447 7.81611 503.149 6.6437 499.252 6.6437C493.855 6.6437 489.658 11.3333 489.658 16.9023V17C489.658 22.9598 493.855 27.4541 499.851 27.4541C502.549 27.4541 504.948 26.7702 506.846 25.5V20.8103H499.451V14.5575H514.041V28.8218C510.544 31.6552 505.847 34 499.651 34C489.159 34 481.964 26.7701 481.964 17.0977Z" fill="#00D7DD"/>
<path d="M528.831 0.586212H521.436V33.4138H528.831V0.586212Z" fill="#00D7DD"/>
<path d="M537.125 0.586212H544.02L559.709 20.8103V0.586212H567.004V33.4138H560.709L544.42 12.5057V33.4138H537.125V0.586212Z" fill="#00D7DD"/>
<path d="M2.99789 0.586212H10.2928V26.8678H27.0811V33.4138H2.99789V0.586212Z" fill="white"/>
<path d="M32.6771 0.586212H57.9594V7.0345H39.972V13.6782H55.8609V20.1265H39.972V26.9656H58.2592V33.4138H32.6771V0.586212Z" fill="white"/>
<path d="M72.6492 7.22991H62.3564V0.586212H90.2369V7.22991H79.9441V33.4138H72.6492V7.22991Z" fill="white"/>
<path d="M118.117 7.22991H107.825V0.586212H135.705V7.22991H125.412V33.4138H118.117V7.22991Z" fill="white"/>
<path d="M142.301 0.586212H149.696V13.5805H163.386V0.586212H170.781V33.4138H163.386V20.2242H149.696V33.4138H142.301V0.586212Z" fill="white"/>
<path d="M178.776 0.586212H204.158V7.0345H186.17V13.6782H201.959V20.1265H186.17V26.9656H204.358V33.4138H178.776V0.586212Z" fill="white"/>
<path d="M223.844 17.0977C223.844 7.71839 231.239 0 241.432 0C247.428 0 251.125 1.56322 254.623 4.49426L249.926 9.96553C247.328 7.81611 245.029 6.6437 241.132 6.6437C235.736 6.6437 231.539 11.3333 231.539 16.9023V17C231.539 22.9598 235.736 27.4541 241.732 27.4541C244.43 27.4541 246.828 26.7702 248.727 25.5V20.8103H241.332V14.5575H255.822V28.8218C252.324 31.6552 247.628 34 241.432 34C231.039 34 223.844 26.7701 223.844 17.0977Z" fill="white"/>
<path d="M274.409 0.390839H281.204L295.594 33.4138H287.899L284.801 26.0862H270.611L267.514 33.4138H260.019L274.409 0.390839ZM282.203 19.638L277.706 8.98853L273.21 19.638H282.203Z" fill="white"/>
<path d="M300.79 0.586212H308.785L317.579 14.4598L326.472 0.586212H334.367V33.4138H327.072V12.0172L317.579 25.9885H317.379L308.085 12.115V33.4138H300.79V0.586212Z" fill="white"/>
<path d="M342.461 0.586212H367.743V7.0345H349.756V13.6782H365.645V20.1265H349.756V26.9656H368.043V33.4138H342.461V0.586212Z" fill="white"/>
<path d="M372.24 28.6264L376.637 23.546C379.635 25.9886 382.833 27.5518 386.63 27.5518C389.628 27.5518 391.427 26.3793 391.427 24.4253V24.3276C391.427 22.4713 390.228 21.592 384.632 20.1265C377.836 18.4656 373.539 16.6092 373.539 10.0632V9.96554C373.539 4.00577 378.436 0.0977173 385.331 0.0977173C390.228 0.0977173 394.425 1.56325 397.822 4.29889L394.025 9.77013C391.027 7.7184 388.129 6.546 385.331 6.546C382.533 6.546 381.034 7.81614 381.034 9.37936V9.47704C381.034 11.6265 382.433 12.3104 388.229 13.7759C395.024 15.5345 398.922 17.8793 398.922 23.6437V23.7414C398.922 30.2874 393.825 33.9023 386.63 33.9023C381.434 33.9023 376.337 32.1437 372.24 28.6264Z" fill="white"/>
<path d="M419.707 0.586212H435.296C439.094 0.586212 442.191 1.66093 444.09 3.51725C445.589 4.98277 446.389 6.83907 446.389 9.0862V9.18393C446.389 12.8966 444.39 14.9483 441.992 16.2184C445.889 17.6839 448.287 19.8334 448.287 24.3276V24.4253C448.287 30.3851 443.291 33.4138 435.696 33.4138H419.707V0.586212ZM438.994 10.2586C438.994 8.1092 437.295 6.83908 434.197 6.83908H426.902V13.7759H433.697C436.995 13.8736 438.994 12.7989 438.994 10.2586ZM435.396 19.8333H426.902V27.0632H435.696C438.994 27.0632 440.892 25.8908 440.892 23.546V23.4483C440.892 21.2012 439.194 19.8333 435.396 19.8333Z" fill="white"/>
<path d="M454.283 0.586212H479.665V7.0345H461.678V13.6782H477.467V20.1265H461.678V26.9656H479.865V33.4138H454.283V0.586212Z" fill="white"/>
<path d="M484.962 17.0977C484.962 7.71839 492.356 0 502.549 0C508.545 0 512.242 1.56322 515.74 4.49426L511.043 9.96553C508.445 7.81611 506.147 6.6437 502.249 6.6437C496.853 6.6437 492.656 11.3333 492.656 16.9023V17C492.656 22.9598 496.853 27.4541 502.849 27.4541C505.547 27.4541 507.945 26.7702 509.844 25.5V20.8103H502.449V14.5575H517.039V28.8218C513.542 31.6552 508.845 34 502.649 34C492.157 34 484.962 26.7701 484.962 17.0977Z" fill="white"/>
<path d="M531.829 0.586212H524.434V33.4138H531.829V0.586212Z" fill="white"/>
<path d="M540.123 0.586212H547.018L562.707 20.8103V0.586212H570.002V33.4138H563.706L547.418 12.5057V33.4138H540.123V0.586212Z" fill="white"/>
</svg>
