<svg width="335" height="81" viewBox="0 0 335 81" fill="none" xmlns="http://www.w3.org/2000/svg">
<path d="M72.6558 0H79.6364V25.572H95.5922V31.9828H72.6558V0Z" fill="#F8008B"/>
<path d="M100.863 0H125.011V6.26833H107.844V12.7504H122.945V19.0187H107.844V25.7144H125.224V31.9828H100.863V0Z" fill="#F8008B"/>
<path d="M138.901 6.48204H129.142V0H155.64V6.48204H145.953V31.9828H138.901V6.48204Z" fill="#F8008B"/>
<path d="M182.138 6.48204H172.451V0H198.877V6.48204H189.19V31.9828H182.138V6.48204Z" fill="#F8008B"/>
<path d="M204.291 0H211.271V12.6791H224.235V0H231.287V31.9828H224.235V19.1612H211.271V31.9828H204.291V0Z" fill="#F8008B"/>
<path d="M238.909 0H263.057V6.26833H245.89V12.7504H260.991V19.0187H245.89V25.7144H263.27V31.9828H238.909V0Z" fill="#F8008B"/>
<path d="M5.69873 64.3929V64.3217C5.69873 55.2753 12.7506 47.7961 22.438 47.7961C28.2078 47.7961 31.6269 49.3631 34.9747 52.1411L30.5584 57.4835C28.0653 55.4178 25.9284 54.2781 22.2244 54.2781C17.0957 54.2781 13.0355 58.7656 13.0355 64.2504V64.3217C13.0355 70.1627 17.0245 74.4365 22.723 74.4365C25.2873 74.4365 27.5667 73.7954 29.3475 72.5133V67.9545H22.2956V61.8998H36.1857V75.7899C32.909 78.5679 28.3502 80.8473 22.5093 80.8473C12.5369 80.7761 5.69873 73.7954 5.69873 64.3929Z" fill="#F8008B"/>
<path d="M53.8507 48.081H60.3327L74.0091 80.2775H66.6723L63.7518 73.0832H50.2179L47.2974 80.2775H40.1743L53.8507 48.081ZM61.2587 66.886L56.9849 56.5575L52.711 66.886H61.2587Z" fill="#F8008B"/>
<path d="M78.9238 48.2947H86.5456L94.8796 61.8287L103.285 48.2947H110.907V80.2775H103.926V59.4068L94.8796 73.0119H94.7371L85.8333 59.5492V80.2775H78.9238V48.2947Z" fill="#F8008B"/>
<path d="M118.528 48.2947H142.604V54.5631H125.509V61.0451H140.61V67.3134H125.509V74.0092H142.889V80.2775H118.528V48.2947Z" fill="#F8008B"/>
<path d="M146.95 75.5762L151.081 70.59C153.93 72.9407 156.993 74.4365 160.626 74.4365C163.475 74.4365 165.256 73.2968 165.256 71.4448V71.3736C165.256 69.5928 164.188 68.6668 158.845 67.3134C152.435 65.6751 148.232 63.8943 148.232 57.5547V57.4835C148.232 51.7138 152.862 47.8673 159.415 47.8673C164.045 47.8673 168.034 49.2919 171.311 51.9275L167.678 57.1986C164.829 55.2041 162.051 54.0644 159.344 54.0644C156.637 54.0644 155.213 55.2753 155.213 56.8424V56.9136C155.213 58.9793 156.566 59.6917 162.122 61.1163C168.604 62.8258 172.237 65.1052 172.237 70.7325V70.8037C172.237 77.1433 167.393 80.7049 160.484 80.7049C155.64 80.7049 150.725 78.9953 146.95 75.5762Z" fill="#F8008B"/>
<path d="M191.968 48.2947H206.784C210.417 48.2947 213.337 49.292 215.118 51.144C216.543 52.5686 217.326 54.3494 217.326 56.5575V56.6287C217.326 60.2615 215.403 62.256 213.123 63.5382C216.827 64.9628 219.107 67.0997 219.107 71.3736V71.4449C219.107 77.2858 214.334 80.2063 207.14 80.2063H191.968V48.2947ZM210.345 57.7685C210.345 55.7028 208.707 54.4918 205.715 54.4918H198.806V61.2588H205.288C208.422 61.2588 210.345 60.2616 210.345 57.9109V57.7685ZM206.926 67.0285H198.806V74.0804H207.211C210.345 74.0804 212.197 73.0119 212.197 70.5901V70.5188C212.126 68.3819 210.559 67.0285 206.926 67.0285Z" fill="#F8008B"/>
<path d="M224.948 48.2947H249.024V54.5631H231.928V61.0451H246.958V67.3134H231.928V74.0092H249.238V80.2775H224.948V48.2947Z" fill="#F8008B"/>
<path d="M254.082 64.3929V64.3217C254.082 55.2753 261.133 47.7961 270.821 47.7961C276.591 47.7961 280.01 49.3631 283.358 52.1411L278.941 57.4835C276.448 55.4178 274.311 54.2781 270.607 54.2781C265.479 54.2781 261.418 58.7656 261.418 64.2504V64.3217C261.418 70.1627 265.407 74.4365 271.106 74.4365C273.67 74.4365 275.95 73.7954 277.73 72.5133V67.9545H270.678V61.8998H284.568V75.7899C281.292 78.5679 276.733 80.8473 270.892 80.8473C260.92 80.7761 254.082 73.7954 254.082 64.3929Z" fill="#F8008B"/>
<path d="M298.672 48.2947H291.62V80.2063H298.672V48.2947Z" fill="#F8008B"/>
<path d="M306.579 48.2947H313.061L328.019 67.9545V48.2947H335V80.2775H329.016L313.559 59.9766V80.2775H306.579V48.2947Z" fill="#F8008B"/>
<path d="M66.957 0H73.9377V25.572H89.8935V31.9828H66.957V0Z" fill="#00D7DD"/>
<path d="M95.165 0H119.241V6.26833H102.146V12.7504H117.247V19.0187H102.146V25.7144H119.526V31.9828H95.165V0Z" fill="#00D7DD"/>
<path d="M133.202 6.48204H123.443V0H149.941V6.48204H140.183V31.9828H133.202V6.48204Z" fill="#00D7DD"/>
<path d="M176.439 6.48204H166.752V0H193.179V6.48204H183.491V31.9828H176.439V6.48204Z" fill="#00D7DD"/>
<path d="M198.592 0H205.573V12.6791H218.537V0H225.589V31.9828H218.537V19.1612H205.573V31.9828H198.592V0Z" fill="#00D7DD"/>
<path d="M233.21 0H257.358V6.26833H240.191V12.7504H255.292V19.0187H240.191V25.7144H257.572V31.9828H233.21V0Z" fill="#00D7DD"/>
<path d="M0 64.3929V64.3217C0 55.2753 7.05188 47.7961 16.7393 47.7961C22.509 47.7961 25.9281 49.3631 29.276 52.1411L24.8597 57.4835C22.3666 55.4178 20.2296 54.2781 16.5256 54.2781C11.397 54.2781 7.33681 58.7656 7.33681 64.2504V64.3217C7.33681 70.1627 11.3258 74.4365 17.0242 74.4365C19.5886 74.4365 21.868 73.7954 23.6487 72.5133V67.9545H16.5969V61.8998H30.4869V75.7899C27.2103 78.5679 22.6515 80.8473 16.8105 80.8473C6.83819 80.7761 0 73.7954 0 64.3929Z" fill="#00D7DD"/>
<path d="M48.152 48.081H54.634L68.3104 80.2775H60.9736L58.0531 73.0832H44.5192L41.5987 80.2775H34.4756L48.152 48.081ZM55.56 66.886L51.2861 56.5575L47.0123 66.886H55.56Z" fill="#00D7DD"/>
<path d="M73.2256 48.2947H80.7761L89.1814 61.8287L97.5866 48.2947H105.208V80.2775H98.2277V59.4068L89.1814 73.0119H89.0389L80.135 59.5492V80.2775H73.2256V48.2947Z" fill="#00D7DD"/>
<path d="M112.83 48.2947H136.906V54.5631H119.811V61.0451H134.84V67.3134H119.811V74.0092H137.191V80.2775H112.83V48.2947Z" fill="#00D7DD"/>
<path d="M141.18 75.5762L145.312 70.59C148.161 72.9407 151.224 74.4365 154.857 74.4365C157.706 74.4365 159.487 73.2968 159.487 71.4448V71.3736C159.487 69.5928 158.418 68.6668 153.076 67.3134C146.665 65.6751 142.462 63.8943 142.462 57.5547V57.4835C142.462 51.7138 147.092 47.8673 153.646 47.8673C158.276 47.8673 162.265 49.2919 165.541 51.9275L161.908 57.1986C159.059 55.2041 156.281 54.0644 153.574 54.0644C150.868 54.0644 149.443 55.2753 149.443 56.8424V56.9136C149.443 58.9793 150.796 59.6917 156.352 61.1163C162.834 62.8258 166.467 65.1052 166.467 70.7325V70.8037C166.467 77.1433 161.624 80.7049 154.714 80.7049C149.942 80.7049 145.027 78.9953 141.18 75.5762Z" fill="#00D7DD"/>
<path d="M186.27 48.2947H201.086C204.718 48.2947 207.639 49.292 209.42 51.144C210.844 52.5686 211.628 54.3494 211.628 56.5575V56.6287C211.628 60.2615 209.705 62.256 207.425 63.5382C211.129 64.9628 213.409 67.0997 213.409 71.3736V71.4449C213.409 77.2858 208.636 80.2063 201.442 80.2063H186.27V48.2947ZM204.647 57.7685C204.647 55.7028 203.009 54.4918 200.017 54.4918H193.108V61.2588H199.59C202.724 61.2588 204.647 60.2616 204.647 57.9109V57.7685ZM201.228 67.0285H193.108V74.0804H201.513C204.647 74.0804 206.499 73.0119 206.499 70.5901V70.5188C206.428 68.3819 204.861 67.0285 201.228 67.0285Z" fill="#00D7DD"/>
<path d="M219.25 48.2947H243.326V54.5631H226.23V61.0451H241.26V67.3134H226.23V74.0092H243.539V80.2775H219.25V48.2947Z" fill="#00D7DD"/>
<path d="M248.383 64.3929V64.3217C248.383 55.2753 255.435 47.7961 265.123 47.7961C270.892 47.7961 274.311 49.3631 277.659 52.1411L273.243 57.4835C270.75 55.4178 268.613 54.2781 264.909 54.2781C259.78 54.2781 255.72 58.7656 255.72 64.2504V64.3217C255.72 70.1627 259.709 74.4365 265.408 74.4365C267.972 74.4365 270.251 73.7954 272.032 72.5133V67.9545H264.98V61.8998H278.87V75.7899C275.594 78.5679 271.035 80.8473 265.194 80.8473C255.221 80.7761 248.383 73.7954 248.383 64.3929Z" fill="#00D7DD"/>
<path d="M292.974 48.2947H285.922V80.2063H292.974V48.2947Z" fill="#00D7DD"/>
<path d="M300.88 48.2947H307.362L322.321 67.9545V48.2947H329.302V80.2775H323.318L307.861 59.9766V80.2775H300.88V48.2947Z" fill="#00D7DD"/>
<path d="M69.8066 0H76.7873V25.572H92.7431V31.9828H69.8066V0Z" fill="white"/>
<path d="M98.0142 0H122.09V6.26833H104.995V12.7504H120.096V19.0187H104.995V25.7144H122.375V31.9828H98.0142V0Z" fill="white"/>
<path d="M136.051 6.48204H126.292V0H152.79V6.48204H143.032V31.9828H136.051V6.48204Z" fill="white"/>
<path d="M179.289 6.48204H169.602V0H196.028V6.48204H186.341V31.9828H179.289V6.48204Z" fill="white"/>
<path d="M201.441 0H208.422V12.6791H221.386V0H228.438V31.9828H221.386V19.1612H208.422V31.9828H201.441V0Z" fill="white"/>
<path d="M236.06 0H260.207V6.26833H243.041V12.7504H258.142V19.0187H243.041V25.7144H260.421V31.9828H236.06V0Z" fill="white"/>
<path d="M2.84912 64.3929V64.3217C2.84912 55.2753 9.901 47.7961 19.5884 47.7961C25.3582 47.7961 28.7773 49.3631 32.1251 52.1411L27.7088 57.4835C25.2157 55.4178 23.0788 54.2781 19.3747 54.2781C14.2461 54.2781 10.1859 58.7656 10.1859 64.2504V64.3217C10.1859 70.1627 14.1749 74.4365 19.8734 74.4365C22.4377 74.4365 24.7171 73.7954 26.4979 72.5133V67.9545H19.446V61.8998H33.336V75.7899C30.0594 78.5679 25.5006 80.8473 19.6597 80.8473C9.68731 80.7761 2.84912 73.7954 2.84912 64.3929Z" fill="white"/>
<path d="M51.0016 48.081H57.4836L71.16 80.2775H63.8232L60.9027 73.0832H47.3688L44.4483 80.2775H37.3252L51.0016 48.081ZM58.4096 66.886L54.1357 56.5575L49.8619 66.886H58.4096Z" fill="white"/>
<path d="M76.0747 48.2947H83.6252L92.0305 61.8287L100.436 48.2947H108.057V80.2775H101.077V59.4068L92.0305 73.0119H91.888L82.9841 59.5492V80.2775H76.0747V48.2947Z" fill="white"/>
<path d="M115.679 48.2947H139.755V54.5631H122.66V61.0451H137.761V67.3134H122.66V74.0092H140.04V80.2775H115.679V48.2947Z" fill="white"/>
<path d="M144.029 75.5762L148.161 70.59C151.01 72.9407 154.073 74.4365 157.706 74.4365C160.555 74.4365 162.336 73.2968 162.336 71.4448V71.3736C162.336 69.5928 161.267 68.6668 155.925 67.3134C149.514 65.6751 145.311 63.8943 145.311 57.5547V57.4835C145.311 51.7138 149.941 47.8673 156.495 47.8673C161.125 47.8673 165.114 49.2919 168.39 51.9275L164.758 57.1986C161.908 55.2041 159.13 54.0644 156.424 54.0644C153.717 54.0644 152.292 55.2753 152.292 56.8424V56.9136C152.292 58.9793 153.646 59.6917 159.202 61.1163C165.684 62.8258 169.316 65.1052 169.316 70.7325V70.8037C169.316 77.1433 164.473 80.7049 157.563 80.7049C152.791 80.7049 147.876 78.9953 144.029 75.5762Z" fill="white"/>
<path d="M189.119 48.2947H203.935C207.568 48.2947 210.488 49.292 212.269 51.144C213.693 52.5686 214.477 54.3494 214.477 56.5575V56.6287C214.477 60.2615 212.554 62.256 210.274 63.5382C213.978 64.9628 216.258 67.0997 216.258 71.3736V71.4449C216.258 77.2858 211.485 80.2063 204.291 80.2063H189.119V48.2947ZM207.496 57.7685C207.496 55.7028 205.858 54.4918 202.866 54.4918H195.957V61.2588H202.439C205.573 61.2588 207.496 60.2616 207.496 57.9109V57.7685ZM204.077 67.0285H195.957V74.0804H204.362C207.496 74.0804 209.348 73.0119 209.348 70.5901V70.5188C209.277 68.3819 207.71 67.0285 204.077 67.0285Z" fill="white"/>
<path d="M222.099 48.2947H246.175V54.5631H229.079V61.0451H244.109V67.3134H229.079V74.0092H246.388V80.2775H222.099V48.2947Z" fill="white"/>
<path d="M251.232 64.3929V64.3217C251.232 55.2753 258.284 47.7961 267.972 47.7961C273.741 47.7961 277.161 49.3631 280.508 52.1411L276.092 57.4835C273.599 55.4178 271.462 54.2781 267.758 54.2781C262.629 54.2781 258.569 58.7656 258.569 64.2504V64.3217C258.569 70.1627 262.558 74.4365 268.257 74.4365C270.821 74.4365 273.1 73.7954 274.881 72.5133V67.9545H267.829V61.8998H281.719V75.7899C278.443 78.5679 273.884 80.8473 268.043 80.8473C258.071 80.7761 251.232 73.7954 251.232 64.3929Z" fill="white"/>
<path d="M295.823 48.2947H288.771V80.2063H295.823V48.2947Z" fill="white"/>
<path d="M303.729 48.2947H310.212L325.17 67.9545V48.2947H332.151V80.2775H326.167L310.71 59.9766V80.2775H303.729V48.2947Z" fill="white"/>
</svg>
