<svg width="50" height="50" viewBox="0 0 50 50" fill="none" xmlns="http://www.w3.org/2000/svg">
<path d="M25 50C38.8071 50 50 38.8071 50 25C50 11.1929 38.8071 0 25 0C11.1929 0 0 11.1929 0 25C0 38.8071 11.1929 50 25 50Z" fill="#18D5DD"/>
<path d="M39.1052 14.616C36.5249 12.5518 33.4286 11.5197 30.1602 11.3477L29.6442 11.8637C32.5685 12.5518 35.1488 13.9279 37.557 15.8201C34.6327 14.272 31.3644 13.2399 27.924 12.8958C26.8919 12.7238 26.0318 12.7238 24.9997 12.7238C23.9676 12.7238 23.1075 12.7238 22.0754 12.8958C18.635 13.2399 15.3667 14.272 12.4424 15.8201C14.8506 13.9279 17.4309 12.5518 20.3552 11.8637L19.8391 11.3477C16.5708 11.5197 13.4745 12.5518 10.8942 14.616C7.96988 20.1206 6.42171 26.3133 6.24969 32.6779C8.82997 35.4302 12.4424 37.1504 16.2268 37.1504C16.2268 37.1504 17.4309 35.7743 18.291 34.5701C16.0547 34.0541 13.9905 32.85 12.6144 30.9577C13.8185 31.6458 15.0226 32.3339 16.2268 32.85C17.7749 33.538 19.3231 33.8821 20.8713 34.2261C22.2474 34.3981 23.6235 34.5701 24.9997 34.5701C26.3758 34.5701 27.752 34.3981 29.1281 34.2261C30.6763 33.8821 32.2245 33.538 33.7726 32.85C34.9768 32.3339 36.1809 31.6458 37.385 30.9577C36.0089 32.85 33.9446 34.0541 31.7084 34.5701C32.5685 35.7743 33.7726 37.1504 33.7726 37.1504C37.557 37.1504 41.1694 35.4302 43.7497 32.6779C43.5777 26.3133 42.0295 20.1206 39.1052 14.616ZM19.3231 29.5816C17.6029 29.5816 16.0547 28.0334 16.0547 26.1412C16.0547 24.249 17.6029 22.7009 19.3231 22.7009C21.0433 22.7009 22.5914 24.249 22.5914 26.1412C22.5914 28.0334 21.0433 29.5816 19.3231 29.5816ZM30.6763 29.5816C28.9561 29.5816 27.408 28.0334 27.408 26.1412C27.408 24.249 28.9561 22.7009 30.6763 22.7009C32.3965 22.7009 33.9447 24.249 33.9447 26.1412C33.9447 28.0334 32.3965 29.5816 30.6763 29.5816Z" fill="#11004F"/>
</svg>
