<svg width="50" height="50" viewBox="0 0 50 50" fill="none" xmlns="http://www.w3.org/2000/svg">
<path d="M50 25.0002C50 38.7655 38.8664 50 25 50C11.2348 50 0 38.8667 0 25.0002C0 11.235 11.1336 0 25 0C38.8664 0.101215 50 11.235 50 25.0002Z" fill="#18D5DD"/>
<path fill-rule="evenodd" clip-rule="evenodd" d="M37.349 11.4377H14.0691C12.4496 11.4377 11.1338 12.7539 11.1338 14.3734V40.5881L16.9032 34.8186H37.2478C38.8673 34.8186 40.1831 33.5029 40.1831 31.8834V14.4742C40.2843 12.7535 38.9685 11.4377 37.349 11.4377ZM37.349 31.8834H15.7898L14.9801 32.693L14.1703 33.503V14.3734H37.4502V31.8834H37.349Z" fill="#11004F"/>
<path d="M37.7537 14.373H13.6641V33.5033H37.7537V14.373Z" fill="#11004F"/>
<path d="M16.7007 22.6721V22.3687C16.8019 22.1662 17.1056 21.9638 17.308 21.8626C17.5105 21.7614 17.8141 21.6598 18.0166 21.5586C22.7738 19.7367 27.4298 17.9149 32.187 16.093C32.2882 16.093 32.3894 15.9917 32.5918 15.9917C32.8955 15.9917 33.1992 16.0933 33.3004 16.397C33.3004 16.397 33.3003 16.4978 33.4016 16.4978V17.0039V17.1052C32.693 20.4453 31.9845 23.8867 31.276 27.2269C31.1748 27.8342 31.0736 28.5426 30.8711 29.1499C30.6687 29.8584 30.0614 30.0609 29.4541 29.656C29.4541 29.656 29.4541 29.656 29.3529 29.656C28.1383 28.745 27.0249 27.9357 25.8103 27.0247C25.709 26.9235 25.6078 26.9235 25.5066 27.0247C24.8993 27.632 24.292 28.1378 23.6847 28.7451C23.5835 28.8463 23.381 28.9478 23.2798 28.9478C23.0774 28.9478 23.0774 28.9476 23.0774 28.7451C23.1787 27.6317 23.2798 26.4172 23.2798 25.3039C23.2798 25.2026 23.381 25.1016 23.4823 25.0004C24.4944 24.0894 25.5066 23.1783 26.5188 22.2673C27.531 21.3564 28.5431 20.4452 29.5553 19.5343C29.859 19.2306 30.1626 19.0284 30.365 18.7248C30.4663 18.6235 30.4663 18.6233 30.4663 18.5221C30.4663 18.4209 30.3651 18.4213 30.2638 18.4213C30.1626 18.4213 30.0614 18.5221 29.9602 18.5221C29.7578 18.6233 29.5553 18.8262 29.3529 18.9274C26.7212 20.6481 23.9884 22.2675 21.3567 23.9882C21.2555 24.0894 21.1543 24.0894 21.0531 23.9882C19.8385 23.5834 18.6238 23.2796 17.4092 22.8747C17.1056 22.976 16.9031 22.8745 16.7007 22.6721Z" fill="#18D5DD"/>
</svg>
