<svg width="50" height="50" viewBox="0 0 50 50" fill="none" xmlns="http://www.w3.org/2000/svg">
<path d="M50 25C50 38.7755 38.7755 50 25 50C11.2245 50 0 38.7755 0 25C0 11.2245 11.2245 0 25 0C38.8776 0 50 11.2245 50 25Z" fill="#18D5DD"/>
<path d="M8.57129 24.2859V23.8778C8.77538 23.4696 9.18352 23.1636 9.69374 22.9595C10.1019 22.7554 10.5101 22.6534 10.9183 22.4493C19.0817 19.2859 27.2452 16.2244 35.5107 13.061C35.7148 12.959 35.9189 12.9588 36.123 12.8567C36.7352 12.7547 37.1434 13.0611 37.4495 13.6734C37.4495 13.7754 37.5516 13.8773 37.5516 13.9793V14.8976C37.5516 14.9997 37.5515 14.9999 37.4495 15.1019C36.225 20.9184 35.0005 26.7351 33.6739 32.5516C33.4698 33.6741 33.2658 34.7963 32.9596 35.8167C32.6535 37.0412 31.6331 37.3477 30.5106 36.6334L30.4086 36.5312C28.3677 35.0005 26.3268 33.572 24.286 32.0414C24.0819 31.8373 23.9798 31.9393 23.7758 32.0414C22.7553 33.0618 21.6328 34.0821 20.6124 35.0005C20.4083 35.2046 20.1021 35.3066 19.8981 35.4086C19.5919 35.5107 19.4899 35.4088 19.4899 35.1027C19.592 33.0618 19.796 31.1231 19.8981 29.0822C19.8981 28.8781 20.0002 28.6739 20.2042 28.4698C21.939 26.8371 23.7757 25.3062 25.5104 23.6735C27.2452 22.1429 28.9799 20.5101 30.7147 18.9794C31.2249 18.5712 31.7351 18.0612 32.2453 17.653C32.3474 17.551 32.4494 17.4491 32.3473 17.3471C32.2453 17.245 32.1433 17.2449 32.0412 17.2449C31.8371 17.2449 31.6331 17.3467 31.429 17.4487C31.1229 17.6528 30.7147 17.8571 30.3065 18.1632C25.7145 21.0205 21.0206 23.9798 16.4286 26.837C16.2245 26.939 16.1225 26.9391 15.9184 26.9391C13.7755 26.3269 11.7346 25.6127 9.59172 25.0004C9.18355 24.8984 8.77538 24.6941 8.57129 24.2859Z" fill="#11004F"/>
</svg>
