<svg width="50" height="50" viewBox="0 0 50 50" fill="none" xmlns="http://www.w3.org/2000/svg">
<path d="M50 25C50 38.7755 38.7755 50 25 50C11.2245 50 0 38.7755 0 25C0 11.2245 11.2245 0 25 0C38.7755 0 50 11.2245 50 25Z" fill="#18D5DD"/>
<path d="M40.0004 17.5509C39.2861 18.4693 38.4697 19.3877 37.5513 20.102C37.2452 20.3061 37.2452 20.6125 37.2452 20.9187C37.2452 23.7759 36.6329 26.4289 35.2043 28.878C32.5512 33.6741 28.6735 36.6333 23.1632 37.4496C19.3876 37.9598 15.8161 37.4498 12.4487 35.613C12.3466 35.511 12.2446 35.5108 12.1425 35.4087C12.0405 35.3067 11.8364 35.3069 11.8364 35.1028C11.8364 34.8987 12.0405 34.8985 12.2446 34.8985C12.7548 34.8985 13.163 34.8985 13.6732 34.8985C15.9181 34.8985 17.8569 34.0821 19.6937 32.8576L19.7958 32.7555C19.5917 32.5514 19.3876 32.5517 19.1835 32.5517C17.2447 32.0414 15.8161 30.9186 14.9997 29.1839C14.7957 28.6737 14.8977 28.572 15.4079 28.572C15.9182 28.572 16.3263 28.5719 16.8365 28.4699C16.2243 28.1637 15.612 27.8576 15.1018 27.4494C13.7752 26.429 12.9589 25.1024 12.8569 23.3676C12.8569 22.7554 12.8568 22.6533 13.5711 22.8574C13.9793 22.9595 14.3875 23.1634 14.8977 23.1634C14.8977 22.8572 14.5916 22.7551 14.4895 22.551C12.9589 20.7142 12.5507 18.5716 13.3671 16.3267C13.6732 15.6123 13.7752 15.5101 14.2854 16.1224C16.2243 18.1633 18.4692 19.796 21.1223 20.7144C22.2448 21.1226 23.4693 21.3264 24.6939 21.5305C25.4082 21.6326 25.5102 21.5308 25.5102 20.8165C25.4082 18.6736 26.1224 16.9388 27.8572 15.7143C30.1021 14.0816 32.8573 14.1833 35.1023 15.9181C35.5105 16.2242 35.9186 16.3265 36.4288 16.1224C37.2452 15.8162 37.9595 15.6122 38.6738 15.2041C38.7759 15.102 38.9799 14.9999 39.184 15.1019C39.3881 15.306 39.184 15.4081 39.0819 15.6121C38.7758 16.2244 38.3677 16.8369 37.8575 17.3471C37.6534 17.5512 37.4493 17.6528 37.3473 17.959C38.2656 17.8569 39.082 17.449 40.0004 17.245V17.5509Z" fill="#11004F"/>
</svg>
