<svg width="50" height="50" viewBox="0 0 50 50" fill="none" xmlns="http://www.w3.org/2000/svg">
<path d="M50 25C50 38.8106 38.8105 50 25 50C11.1895 50 0 38.8106 0 25C0 11.1894 11.1895 0 25 0C38.8105 0 50 11.1894 50 25Z" fill="#18D5DD"/>
<path d="M17.0362 35.3837C11.2901 35.3837 6.65283 30.7466 6.65283 25.0004C6.65283 19.1534 11.3909 14.5163 17.0362 14.6171C22.7823 14.6171 27.4195 19.2543 27.4195 25.1013C27.4195 30.7467 22.7823 35.3837 17.0362 35.3837Z" fill="#11004F"/>
<path d="M38.9116 25.1009C38.9116 25.5042 38.9116 26.1091 38.8108 26.714C38.71 27.218 38.71 27.8225 38.6092 28.3265C38.4075 29.5363 38.0043 30.6456 37.5003 31.7545C37.1979 32.4601 36.7946 33.0648 36.2906 33.5688C35.9881 33.9721 35.5849 34.2744 35.0809 34.476C34.6776 34.6777 34.1736 34.8792 33.6696 34.8792C33.1655 34.8792 32.7622 34.7786 32.359 34.5769C31.855 34.3753 31.4517 33.9721 31.0485 33.5688C30.5445 33.0648 30.1412 32.4601 29.8388 31.7545C29.4356 30.948 29.1332 30.1411 28.9315 29.3346C28.7299 28.7298 28.6291 28.0242 28.5283 27.4193C28.4275 26.5121 28.3267 25.5041 28.3267 24.496C28.3267 24.0927 28.3267 23.5889 28.4275 23.1856C28.5283 22.48 28.6291 21.7743 28.7299 21.1694C28.9315 20.2621 29.234 19.3546 29.6372 18.4474C29.9396 17.7417 30.3428 17.1369 30.8469 16.5321C31.2501 16.028 31.7542 15.7255 32.2582 15.4231C32.7623 15.2214 33.2663 15.02 33.8711 15.1208C34.2744 15.1208 34.6776 15.3223 35.0809 15.524C35.5849 15.8264 35.9881 16.1288 36.3914 16.5321C36.7946 17.0361 37.1979 17.5403 37.5003 18.1451C38.0043 19.0524 38.3068 20.0604 38.5084 21.0685C38.6092 21.5726 38.71 22.1775 38.8108 22.6816C38.9116 23.4881 38.9116 24.1936 38.9116 25.1009Z" fill="#11004F"/>
<path d="M39.5156 24.5973C39.5156 24.1941 39.5156 23.4881 39.6164 22.7824C39.6164 22.0767 39.7172 21.4719 39.818 20.7662C39.9188 19.9597 40.0197 19.2543 40.2213 18.5486C40.3221 18.0446 40.5237 17.4396 40.7253 16.9355C40.8261 16.7339 40.9269 16.5323 41.0277 16.4315C41.1285 16.3307 41.2293 16.2301 41.3302 16.1292C41.5318 15.9276 41.8342 15.9276 42.0358 16.1292C42.1366 16.2301 42.2374 16.3308 42.3382 16.5324C42.5398 16.8348 42.6407 17.1372 42.7415 17.4396C42.9431 17.9437 43.0439 18.5486 43.1447 19.0527C43.2455 19.5567 43.3463 19.9599 43.3463 20.464C43.4471 20.8672 43.4471 21.2706 43.4471 21.6739C43.5479 22.2788 43.5479 22.9843 43.5479 23.5892C43.5479 24.2949 43.5479 25.0007 43.5479 25.7064C43.5479 26.412 43.5479 27.1173 43.4471 27.823C43.3463 28.4279 43.3463 28.9321 43.2455 29.537C43.1447 30.4443 42.9431 31.2509 42.7415 32.1582C42.6407 32.4607 42.5398 32.763 42.439 33.0654C42.3382 33.267 42.2374 33.3679 42.1366 33.5695C42.0358 33.6703 42.0358 33.6705 41.935 33.7713C41.7334 33.8721 41.6325 33.8721 41.4309 33.7713C41.3301 33.6705 41.2294 33.6703 41.2294 33.5695C41.1286 33.3679 40.9269 33.1661 40.9269 32.9645C40.7253 32.5613 40.6245 32.1583 40.5237 31.7551C40.3221 31.1502 40.2213 30.4441 40.1204 29.8393C40.0196 29.3352 40.0196 28.932 39.9188 28.428C39.9188 28.1255 39.818 27.7223 39.818 27.4199C39.6164 26.6134 39.5156 25.8071 39.5156 24.5973Z" fill="#11004F"/>
</svg>
