<svg width="27" height="26" viewBox="0 0 27 26" fill="none" xmlns="http://www.w3.org/2000/svg">
<g clip-path="url(#clip0)">
<path d="M13.5473 0C20.7327 0 26.5 5.86181 26.5 13.1418C26.5 20.2327 20.5436 26 13.4527 26C6.26728 26 0.5 20.1382 0.5 12.7636C0.5 5.86182 6.45635 0 13.5473 0ZM24.2309 13.1418C24.3255 7.18545 19.5982 2.45818 13.5473 2.36364C7.77999 2.26909 2.86366 6.99636 2.76911 12.7636C2.76911 19.2873 7.78001 23.7309 13.4527 23.7309C19.4091 23.7309 24.1364 19.0982 24.2309 13.1418Z" fill="#060033"/>
<path d="M13.5474 9.73801C15.3437 9.73801 16.8565 11.3453 16.8565 13.0471C16.8565 14.7489 15.3437 16.3562 13.5474 16.3562C11.751 16.3562 10.2383 14.8435 10.2383 13.0471C10.2383 11.2507 11.751 9.73801 13.5474 9.73801ZM13.5474 12.1016C12.9801 12.1016 12.6019 12.4798 12.6019 13.0471C12.6019 13.6144 12.8856 13.9926 13.5474 13.9926C14.1146 13.9926 14.5874 13.6144 14.4928 12.9525C14.4928 12.3853 14.1146 12.1016 13.5474 12.1016Z" fill="#060033"/>
</g>
<defs>
<clipPath id="clip0">
<rect width="26" height="26" fill="white" transform="translate(0.5)"/>
</clipPath>
</defs>
</svg>
