<svg width="36" height="42" viewBox="0 0 36 42" fill="none" xmlns="http://www.w3.org/2000/svg">
<path d="M17.9 2.59998L33.5 11.6V29.6L17.9 38.6L2.30002 29.6V11.6L17.9 2.59998ZM17.9 0L0 10.3V30.9L17.9 41.2L35.8 30.9V10.3L17.9 0Z" fill="#18D5DD"/>
<path d="M16.9 30.1002C16.9 29.1002 16.9 28.2002 16.9 27.2002C16.9 26.9002 16.8 26.8003 16.5 26.9003C16 27.1003 15.5 27.2003 15 27.4003C14.8 27.5003 14.6 27.4003 14.5 27.3003C13.7 26.5003 12.8 25.6003 12 24.8003C11.8 24.6003 11.8 24.5003 11.9 24.3003C12.1 23.8003 12.2 23.3003 12.4 22.8003C12.5 22.5003 12.4 22.4003 12.1 22.4003C10.4 22.4003 8.7 22.4003 7 22.4003C6.8 22.4003 6.59999 22.4003 6.39999 22.4003C6.29999 22.4003 6.10001 22.5003 6.10001 22.3003C6.00001 22.2003 6.20002 22.1002 6.30002 22.0002C7.20002 21.1002 8.00001 20.2002 9.10001 19.5002C10.7 18.4002 12.4 18.0002 14.3 18.0002C14.6 18.0002 14.9 17.9002 15.1 17.6002C16.8 15.7002 18.7 13.9003 21.1 12.8003C23.2 11.8003 25.3 11.3003 27.6 11.4003C27.9 11.4003 28 11.6003 28 11.8003C28.1 13.1003 27.9 14.4002 27.6 15.6002C27 17.9002 25.7 19.9002 24.2 21.7002C23.4 22.6002 22.6 23.6003 21.6 24.3003C21.4 24.4003 21.4 24.6003 21.4 24.8003C21.4 26.3003 21.1 27.8002 20.4 29.2002C19.9 30.1002 19.3 30.9002 18.6 31.6002C18.2 32.0002 17.8 32.4003 17.4 32.8003C17.3 32.9003 17.3 33.0002 17.1 33.0002C17 32.9002 17 32.8002 17 32.7002C16.9 31.9002 16.9 31.0002 16.9 30.1002ZM9.89999 20.8003C9.99999 20.9003 10.1 20.9003 10.1 20.9003C11.5 20.9003 12.8 20.9003 14.2 20.9003C14.5 20.9003 14.6 21.0003 14.5 21.3003C14.2 22.2003 13.9 23.0003 13.6 23.9003C13.5 24.1003 13.6 24.3003 13.7 24.4003C14.1 24.8003 14.5 25.1002 14.8 25.5002C15 25.7002 15.1 25.7002 15.4 25.6002C16.2 25.3002 17.1 25.0002 17.9 24.7002C18.2 24.6002 18.3 24.7002 18.3 25.0002C18.3 25.9002 18.3 26.8003 18.3 27.8003V29.3003C18.7 28.8003 19 28.3002 19.2 27.7002C19.6 26.5002 19.7 25.3002 19.7 24.1002C19.7 23.9002 19.7 23.7002 19.9 23.6002C21 22.8002 21.8 21.8003 22.7 20.9003C24.5 18.8003 25.9 16.5002 26.2 13.7002C26.3 13.0002 26.2 12.9002 25.5 13.0002C23.7 13.2002 22.1 13.8002 20.6 14.7002C18.7 15.9002 17.1 17.4002 15.6 19.1002C15.4 19.4002 15.1 19.5002 14.8 19.5002C14 19.5002 13.2 19.5002 12.4 19.7002C11.6 19.9002 10.7 20.3003 9.89999 20.8003Z" fill="#E7298B"/>
<path d="M9.90017 30.4003C8.90017 30.4003 8.80017 30.4002 8.90017 29.7002C9.00017 28.2002 9.60019 27.0003 10.7002 26.0003C10.9002 25.9003 11.0002 25.9003 11.1002 26.0003C11.5002 26.4003 11.5002 26.4003 11.3002 26.9003C11.2002 27.2003 11.1002 27.5003 11.1002 27.8003C11.1002 28.1003 11.2002 28.2002 11.5002 28.2002C11.9002 28.2002 12.3002 28.1003 12.6002 27.9003C13.0002 27.7003 13.1002 28.1003 13.3002 28.3003C13.5002 28.5003 13.3002 28.6002 13.2002 28.7002C12.2002 29.8002 11.0002 30.4003 9.90017 30.4003Z" fill="#E7298B"/>
<path d="M19.8 18C19.8 17.2 20.4 16.5 21.3 16.5C22.1 16.5 22.8 17.2 22.8 18C22.8 18.8 22.1 19.5 21.3 19.5C20.4 19.5 19.8 18.8 19.8 18Z" fill="#E7298B"/>
</svg>
