<svg width="20" height="20" viewBox="0 0 20 20" fill="none" xmlns="http://www.w3.org/2000/svg">
<path d="M20 10C20 15.5 15.5 20 10 20C4.5 20 0 15.5 0 10C0 4.5 4.5 0 10 0C15.5 0 20 4.5 20 10Z" fill="#F61186"/>
<path d="M6.80005 14.2C4.50005 14.2 2.6001 12.4 2.6001 10C2.6001 7.70005 4.50005 5.80005 6.80005 5.80005C9.10005 5.80005 11.0001 7.70005 11.0001 10C11.0001 12.4 9.10005 14.2 6.80005 14.2Z" fill="#11004F"/>
<path d="M15.6 10.1C15.6 10.3 15.6 10.5 15.6 10.7C15.6 10.9 15.5 11.0999 15.5 11.3999C15.4 11.8999 15.3 12.3 15 12.8C14.9 13.1 14.7 13.3 14.5 13.5C14.4 13.6 14.2 13.7999 14 13.8999C13.8 13.9999 13.6 14 13.4 14.1C13.2 14.1 13 14.1 12.9 14C12.7 13.9 12.5 13.8 12.4 13.6C12.2 13.4 12 13.0999 11.9 12.8999C11.7 12.5999 11.6 12.2999 11.5 11.8999C11.4 11.5999 11.3999 11.4 11.2999 11.1C11.1999 10.7 11.2 10.2999 11.2 9.89995C11.2 9.69995 11.2 9.49995 11.2 9.39995C11.2 9.09995 11.2999 8.79996 11.2999 8.59996C11.3999 8.19996 11.5 7.89995 11.7 7.49995C11.8 7.19995 12 6.99995 12.2 6.69995C12.4 6.49995 12.4999 6.39996 12.7999 6.29996C12.9999 6.19996 13.2 6.19995 13.5 6.19995C13.7 6.19995 13.8 6.29996 14 6.29996C14.2 6.39996 14.4 6.59995 14.5 6.69995C14.7 6.89995 14.8 7.09995 14.9 7.39995C15.1 7.79995 15.1999 8.19996 15.2999 8.59996C15.3999 8.79996 15.4 8.99996 15.4 9.29996C15.6 9.39996 15.6 9.69996 15.6 10.1Z" fill="#11004F"/>
<path d="M15.8 9.90001C15.8 9.70001 15.8 9.50002 15.8 9.20002C15.8 8.90002 15.8001 8.70001 15.9001 8.40001C15.9001 8.10001 16.0001 7.80002 16.0001 7.50002C16.0001 7.30002 16.1001 7.10001 16.2001 6.90001C16.2001 6.80001 16.3 6.80002 16.3 6.70002L16.4001 6.60002C16.5001 6.50002 16.6001 6.50002 16.7001 6.60002L16.8 6.70002C16.9 6.80002 16.9001 6.90002 17.0001 7.10002C17.1001 7.30002 17.1001 7.50002 17.2001 7.80002C17.2001 8.00002 17.3 8.20001 17.3 8.40001C17.3 8.60001 17.3001 8.70001 17.4001 8.90001C17.4001 9.20001 17.4001 9.40002 17.4001 9.70002C17.4001 10 17.4001 10.3 17.4001 10.6C17.4001 10.9 17.4001 11.2 17.4001 11.5C17.4001 11.7 17.4 12 17.3 12.2C17.3 12.6 17.2001 12.9 17.1001 13.2C17.1001 13.3 17.0001 13.4 17.0001 13.6C17.0001 13.7 16.9001 13.7 16.9001 13.8L16.8 13.9C16.7 13.9 16.7001 13.9 16.6001 13.9L16.5001 13.8C16.4001 13.7 16.4001 13.7 16.4001 13.6C16.3001 13.4 16.3001 13.3 16.2001 13.1C16.1001 12.8 16.1001 12.6 16.1001 12.3C16.1001 12.1 16.1001 11.9 16.0001 11.7C16.0001 11.6 16.0001 11.4 16.0001 11.3C15.8001 10.7 15.8 10.4 15.8 9.90001Z" fill="#11004F"/>
</svg>
