<svg width="36" height="42" viewBox="0 0 36 42" fill="none" xmlns="http://www.w3.org/2000/svg">
<path d="M35.7064 27.9538C35.7064 22.4538 35.7064 16.8538 35.7064 11.3538C35.7064 11.2538 35.7064 11.2538 35.7064 11.1538C35.6064 11.0538 35.5064 11.0538 35.4064 10.9538C35.4064 10.9538 35.4064 10.9538 35.3064 10.8538C34.3064 10.2538 33.3064 9.75383 32.4064 9.15383C32.1064 8.95383 31.9064 8.85381 31.6064 8.75381C31.5064 8.75381 31.5064 8.65383 31.4064 8.65383C28.9064 7.25383 26.5063 5.85378 24.0063 4.35378C23.7063 4.15378 23.3063 3.95381 23.0063 3.75381C22.9063 3.65381 22.8064 3.65386 22.7064 3.55386C21.8064 3.05386 20.8064 2.45376 19.9064 1.95376C19.4064 1.65376 18.8064 1.35386 18.3064 1.05386L18.2064 0.95376C17.9064 0.65376 17.8063 0.65376 17.5063 0.95376C17.5063 0.95376 17.4064 0.953857 17.4064 1.05386H17.3064C16.4064 1.55386 15.5064 2.15383 14.6064 2.65383C14.2064 2.85383 13.8064 3.15378 13.4064 3.35378C13.4064 3.35378 13.4063 3.35378 13.5063 3.35378C13.5063 3.35378 13.5064 3.35378 13.4064 3.35378C13.3064 3.35378 13.3064 3.45376 13.2064 3.45376C13.2064 3.45376 13.2064 3.45386 13.2064 3.55386C13.2064 3.55386 13.2064 3.55376 13.2064 3.45376C12.6064 3.75376 12.1063 4.05378 11.5063 4.35378C11.3063 4.45378 11.0064 4.65381 10.8064 4.75381H10.7064C10.0064 5.15381 9.20635 5.65386 8.50635 6.05386C7.40635 6.65386 6.4064 7.25376 5.3064 7.95376C4.9064 8.15376 4.60636 8.35386 4.20636 8.55386H4.10638C3.70638 8.75386 3.30637 9.05381 2.90637 9.25381C2.40637 9.55381 1.90637 9.85383 1.40637 10.1538L0.306396 10.7538C0.106396 10.8538 0.00634766 10.9538 0.00634766 11.2538C0.00634766 14.3538 0.00634766 17.4538 0.00634766 20.6538C0.00634766 24.2538 0.00634766 27.7538 0.00634766 31.3538C0.00634766 31.4538 0.00638428 31.5538 0.106384 31.6538C0.706384 32.0538 1.40635 32.3538 2.00635 32.7538C2.40635 32.9538 2.70638 33.1538 3.10638 33.3538C3.40638 33.4538 3.60637 33.6538 3.90637 33.7538C5.90637 34.9538 8.00635 36.0538 10.0063 37.2538C12.6063 38.7538 15.2064 40.2538 17.7064 41.7538C17.8064 41.8538 17.9064 41.8538 18.1064 41.7538C21.1064 39.9538 24.2064 38.2538 27.3064 36.4538C28.8064 35.5538 30.3064 34.7538 31.8064 33.8538C32.9064 33.1538 34.1064 32.5538 35.2064 31.8538C35.4064 31.7538 35.6064 31.6539 35.7064 31.5539C35.7064 31.4539 35.7064 31.4538 35.7064 31.3538C35.7064 30.2538 35.7064 29.0538 35.7064 27.9538ZM13.5063 3.45376C13.4063 3.45376 13.4063 3.45376 13.5063 3.45376C13.4063 3.45376 13.4063 3.45376 13.5063 3.45376ZM5.20636 8.45376C5.20636 8.35376 5.20636 8.35376 5.20636 8.45376C5.20636 8.35376 5.20636 8.35376 5.20636 8.45376ZM33.4064 30.5539C31.4064 31.6539 29.5063 32.8538 27.5063 33.9538C24.8063 35.5538 22.1064 37.1538 19.3064 38.6538C18.9064 38.9538 18.4063 39.1538 18.0063 39.4538C17.9063 39.5538 17.8064 39.5538 17.7064 39.4538C16.7064 38.8538 15.7064 38.2538 14.7064 37.7538C12.2064 36.3538 9.70636 34.8538 7.20636 33.4538C5.50636 32.4538 3.80636 31.5539 2.20636 30.5539C2.10636 30.4539 2.10638 30.4538 2.10638 30.3538C2.10638 27.4538 2.10638 24.5538 2.10638 21.6538V21.3538C2.10638 18.3538 2.10638 15.4538 2.10638 12.4538C2.10638 12.2538 2.1064 12.2538 2.3064 12.1538C5.1064 10.5538 7.80638 8.95378 10.6064 7.35378C12.5064 6.25378 14.5064 5.15376 16.4064 3.95376C16.9064 3.65376 17.3064 3.45383 17.8064 3.15383C17.9064 3.15383 17.9063 3.15383 18.0063 3.15383C20.4063 4.55383 22.7064 5.85381 25.1064 7.25381C27.3064 8.55381 29.5064 9.85386 31.7064 11.0539C32.3064 11.3539 32.9063 11.7539 33.5063 12.0539C33.6063 12.1539 33.6064 12.1538 33.6064 12.2538C33.6064 14.8538 33.6064 17.4538 33.6064 19.9538C33.6064 23.3538 33.6064 26.6539 33.6064 30.0539C33.5064 30.3539 33.5064 30.4539 33.4064 30.5539Z" fill="#18D5DD"/>
<path d="M10.5065 10.1538C9.90647 10.5538 9.20651 10.8538 8.60651 11.2538C8.50651 11.3538 8.50647 11.3537 8.50647 11.4537C8.50647 11.8537 8.50647 12.1538 8.50647 12.5538C8.50647 15.1538 8.50647 17.7538 8.50647 20.3538V21.6538C8.40647 21.6538 8.40649 21.6538 8.40649 21.5538C8.10649 20.6538 7.90651 19.8537 7.60651 18.9537C7.00651 17.1537 6.50649 15.2537 5.90649 13.4537C5.80649 13.1537 5.80647 13.1538 5.50647 13.3538C5.40647 13.3538 5.40649 13.3537 5.40649 13.4537C5.10649 13.5537 4.90651 13.7538 4.60651 13.8538C4.40651 13.9538 4.20647 14.0538 4.00647 14.1538C3.90647 14.1538 3.90649 14.2538 3.90649 14.3538C3.90649 17.8538 3.90649 21.3538 3.90649 24.8538C3.90649 26.2538 3.90649 27.6538 3.90649 29.0538C3.90649 29.1538 3.90647 29.2538 4.00647 29.2538C4.50647 29.5538 5.10651 29.8538 5.60651 30.1538C5.80651 30.2538 5.80652 30.2538 5.80652 30.0538C5.80652 27.2538 5.80652 24.4538 5.80652 21.7538V19.9537L5.90649 20.0538C6.00649 20.5538 6.20652 21.1538 6.30652 21.6538C6.80652 23.3538 7.20651 25.0538 7.60651 26.6538C8.10651 28.4538 8.50647 30.1537 9.00647 31.9537C9.00647 32.0537 9.10648 32.1538 9.20648 32.1538C9.60648 32.3538 10.0065 32.6538 10.4065 32.8538C10.7065 33.0538 10.7065 33.0538 10.7065 32.6538C10.7065 27.8538 10.7065 23.0538 10.7065 18.2538C10.7065 15.4538 10.7065 12.6538 10.7065 9.85376C10.7065 9.95376 10.7065 9.95381 10.5065 10.1538Z" fill="#E7298B"/>
<path d="M24.2064 9.15398C23.5064 8.75398 22.8064 8.35391 22.1064 7.95391C20.7064 7.15391 19.3064 6.354 17.9064 5.554C17.8064 5.454 17.7064 5.454 17.6064 5.554C16.4064 6.254 15.2064 6.95398 14.1064 7.65398C13.6064 7.95398 13.1064 8.254 12.7064 8.554C12.6064 8.554 12.6064 8.65396 12.6064 8.75396C12.6064 11.154 12.6064 13.5539 12.6064 15.9539C12.6064 22.0539 12.6064 28.054 12.6064 34.154C12.6064 34.354 12.6065 34.3539 12.8065 34.4539C13.4065 34.8539 14.0064 35.254 14.6064 35.654L14.7064 35.754V35.654C14.7064 31.454 14.7064 27.254 14.7064 23.054C14.7064 22.754 14.7064 22.8539 15.0064 22.8539C17.5064 22.8539 19.9064 22.8539 22.4064 22.8539C22.7064 22.8539 22.7064 22.854 22.7064 22.554C22.7064 21.854 22.7064 21.1539 22.7064 20.3539C22.7064 20.1539 22.6064 20.154 22.5064 20.154C20.0064 20.154 17.5064 20.154 15.0064 20.154C14.9064 20.154 14.8065 20.1539 14.8065 19.9539C14.8065 16.6539 14.8065 13.354 14.8065 10.054C14.8065 9.954 14.8065 9.95393 14.8065 9.85393C14.9065 9.85393 15.0064 9.75395 15.0064 9.75395C15.1064 9.75395 15.1064 9.75398 15.1064 9.65398C15.5064 9.45398 15.9065 9.25391 16.3065 8.95391C16.4065 8.95391 16.5064 8.85396 16.6064 8.75396C16.7064 8.75396 16.8065 8.65398 16.8065 8.65398C17.0065 8.55398 17.2064 8.45393 17.4064 8.35393C17.5064 8.25393 17.6064 8.25393 17.7064 8.35393C18.2064 8.65393 18.8065 8.95396 19.3065 9.25396C20.5065 9.95396 21.6065 10.554 22.8065 11.254C22.9065 11.354 23.0064 11.354 23.0064 11.154C23.3064 10.654 23.7064 10.054 24.0064 9.554C24.4064 9.254 24.3064 9.25398 24.2064 9.15398Z" fill="#E7298B"/>
<path d="M32.3063 14.5538C32.3063 14.4538 32.3063 14.4538 32.2063 14.3538C31.9063 14.1538 31.5063 13.9538 31.2063 13.7538C31.1063 13.7538 31.1063 13.6538 31.0063 13.6538C30.0063 13.0538 29.0063 12.3538 28.0063 11.7538C27.2063 11.2538 26.3063 10.6538 25.5063 10.1538C25.4063 10.1538 25.4063 10.0538 25.3063 10.1538C25.0063 10.6538 24.7063 11.0538 24.4063 11.5538L24.3063 11.6538C24.2063 11.8538 24.4063 11.7538 24.4063 11.8538L24.5063 11.9537C24.6063 12.0537 24.6063 12.0538 24.7063 12.0538C24.8063 12.1538 24.8063 12.1538 24.9063 12.1538C25.2063 12.3538 25.6063 12.6538 26.0063 12.8538C26.1063 12.9538 26.2063 13.0538 26.3063 13.0538C26.4063 13.1538 26.5063 13.1538 26.6063 13.2538L26.7063 13.3538C26.8063 13.3538 26.8063 13.4537 26.9063 13.4537C27.0063 13.5537 27.1063 13.5538 27.1063 13.6538C27.1063 13.7538 27.1063 13.7538 27.1063 13.8538V32.1538V32.3538C27.2063 32.3538 27.2063 32.3538 27.3063 32.3538C28.0063 31.9538 28.6063 31.6538 29.3063 31.2538C29.4063 31.1538 29.5063 31.1537 29.5063 30.9537C29.5063 25.8537 29.5063 20.6538 29.5063 15.5538C29.5063 15.4538 29.5063 15.4538 29.5063 15.3538V15.2538C29.5063 15.1538 29.5063 15.1538 29.5063 15.0538C29.5063 14.9538 29.5063 14.8537 29.6063 14.9537C29.8063 15.0537 29.9063 15.1538 30.1063 15.2538C30.4063 15.4538 30.7063 15.6538 31.0063 15.8538C31.1063 15.9538 31.3063 16.0538 31.4063 16.1538C31.7063 16.3538 32.0063 16.5538 32.3063 16.7538C32.4063 16.5538 32.3063 16.4538 32.3063 16.3538C32.3063 15.7538 32.3063 15.1538 32.3063 14.5538Z" fill="#E7298B"/>
</svg>
