<svg width="20" height="20" viewBox="0 0 20 20" fill="none" xmlns="http://www.w3.org/2000/svg">
<path d="M20 10C20 15.5 15.5 20 10 20C4.5 20 0 15.5 0 10C0 4.5 4.5 0 10 0C15.6 0.1 20 4.5 20 10Z" fill="#F61186"/>
<path fill-rule="evenodd" clip-rule="evenodd" d="M15 4.59998H5.70001C5.10001 4.59998 4.5 5.09997 4.5 5.79997V16.3L6.79999 14H14.9C15.5 14 16.1 13.5 16.1 12.8V5.79997C16.1 5.19997 15.6 4.59998 15 4.59998ZM15 12.8H6.40002L6.10004 13.1L5.79999 13.4V5.69998H15.1V12.8H15Z" fill="#11004F"/>
<path d="M15.1 5.79999H5.5V13.5H15.1V5.79999Z" fill="#11004F"/>
<path d="M6.7002 9.10001V9C6.8002 8.9 6.80021 8.8 6.90021 8.8C7.00021 8.8 7.1002 8.70001 7.2002 8.70001L12.9002 6.5C12.9002 6.5 13.0002 6.5 13.1002 6.5C13.2002 6.5 13.3002 6.60001 13.4002 6.70001C13.4002 6.70001 13.4002 6.7 13.4002 6.8V7C13.1002 8.3 12.8002 9.7 12.5002 11C12.4002 11.3 12.4002 11.5 12.3002 11.8C12.2002 12.1 12.0002 12.2 11.7002 12C11.2002 11.7 10.8002 11.3 10.3002 11C10.2002 11 10.2002 11 10.2002 11C10.0002 11.2 9.70018 11.5 9.50018 11.7C9.50018 11.7 9.40017 11.8 9.30017 11.8C9.20017 11.8 9.2002 11.8 9.2002 11.7C9.2002 11.2 9.30017 10.8 9.30017 10.3C9.30017 10.2 9.30021 10.2 9.40021 10.2C9.80021 9.80001 10.2002 9.50001 10.6002 9.10001C11.0002 8.70001 11.4002 8.4 11.8002 8C11.9002 7.9 12.0002 7.80001 12.1002 7.70001C12.1002 7.70001 12.1002 7.70001 12.1002 7.60001H12.0002C12.0002 7.60001 11.9002 7.60001 11.9002 7.70001C11.8002 7.80001 11.7002 7.80001 11.7002 7.90001C10.6002 8.60001 9.60018 9.20001 8.50018 9.90001H8.40021C7.90021 9.70001 7.40021 9.60001 6.90021 9.40001C6.90021 9.20001 6.8002 9.20001 6.7002 9.10001Z" fill="#F61186"/>
</svg>
