<svg width="20" height="20" viewBox="0 0 20 20" fill="none" xmlns="http://www.w3.org/2000/svg">
<path d="M20 9.99997C20 15.5555 15.5555 20 10 20C4.44446 20 0 15.5555 0 9.99997C0 4.44443 4.44446 0 10 0C15.5555 0 20 4.54544 20 9.99997Z" fill="#F61186"/>
<path d="M3.43449 9.79795V9.59593C3.5355 9.39391 3.73754 9.2929 3.83855 9.2929C4.04057 9.19189 4.14158 9.19189 4.3436 9.09088C7.57592 7.87876 10.9092 6.56564 14.1415 5.35352C14.2425 5.35352 14.3436 5.2525 14.4446 5.2525C14.6466 5.2525 14.8486 5.35352 14.9496 5.55554V5.65655V6.06058C14.9496 6.06058 14.9496 6.06059 14.9496 6.1616C14.4446 8.48483 13.9395 10.808 13.4345 13.1313C13.3335 13.5353 13.2324 14.0404 13.1314 14.4444C13.0304 14.9495 12.6264 15.0505 12.1213 14.7474C11.3132 14.1414 10.5052 13.5353 9.69711 12.9293C9.5961 12.8282 9.59609 12.8282 9.49508 12.9293C9.09104 13.3333 8.68699 13.7373 8.28295 14.1414C8.18194 14.2424 8.08094 14.2424 7.97993 14.3434C7.87892 14.3434 7.77794 14.3434 7.87894 14.2424C7.97995 13.4343 7.97991 12.6262 8.08091 11.8181C8.08091 11.7171 8.08095 11.6161 8.18196 11.6161C8.88903 11.0101 9.59608 10.303 10.3031 9.69694C11.0102 9.09089 11.7173 8.48482 12.4244 7.77775C12.6264 7.57573 12.8284 7.37371 13.0304 7.2727C13.0304 7.2727 13.1314 7.1717 13.0304 7.1717C13.0304 7.07069 12.9294 7.07069 12.9294 7.1717C12.8284 7.1717 12.7274 7.17169 12.7274 7.2727C12.6264 7.37371 12.4244 7.47472 12.3233 7.57573C10.5052 8.68684 8.58598 9.89895 6.7678 11.0101C6.66679 11.0101 6.66678 11.1111 6.56577 11.0101C5.75769 10.707 4.8486 10.505 4.04052 10.202C3.63648 9.99997 3.5355 9.89896 3.43449 9.79795Z" fill="#11004F"/>
</svg>
