<svg width="25" height="25" viewBox="0 0 25 25" fill="none" xmlns="http://www.w3.org/2000/svg">
<path d="M25 10C25 9.9 25 9.90002 25 9.80002C25 9.60002 25 9.50002 24.9 9.30002C24.7 7.70002 24.2 6.30001 23.4 5.10001C22.3 3.30001 20.7 1.9 18.8 1C17.8 0.5 16.7 0.200006 15.6 0.100006C15.3 0.100006 15 0 14.6 0H14.5H13.3L13.1 0.5C13 0.7 13 0.9 13 1V11V11.1C13 11.4 13.1 11.6 13.3 11.8C13.5 12 13.7 12 13.9 12C13.9 12 13.9 12 14 12H24.1H24.2H25V10ZM15.4 2.20001C16.4 2.30001 17.3 2.6 18.1 3C20.6 4.3 22.1 6.3 22.7 9C22.7 9.2 22.8 9.3 22.8 9.5H19.1H15.4C15.3 7.1 15.3 4.70001 15.4 2.20001Z" fill="#060033"/>
<path d="M20.7 12.9002H12V4.90018C12 4.60018 12 4.40019 12 4.10019C12 3.80019 11.9 3.60018 11.7 3.50018C11.6 3.40018 11.4 3.2002 11.1 3.2002C10.4 3.2002 9.7 3.2002 9 3.3002C6.8 3.7002 4.80001 4.7002 3.20001 6.3002C2.30001 7.2002 1.6 8.20018 1 9.40018C0.4 10.7002 0.1 12.0002 0 13.4002C0 14.3002 1.22041e-05 15.1002 0.200012 15.9002C0.700012 18.6002 2.09999 20.9002 4.29999 22.5002C5.99999 23.8002 7.89996 24.5002 9.89996 24.7002C10.2 24.7002 10.6 24.7002 11 24.7002C11.4 24.7002 11.8 24.7002 12.2 24.6002C13.4 24.4002 14.5 24.1002 15.4 23.7002C17.9 22.5002 19.7 20.6002 20.8 18.1002C21.4 16.7002 21.7 15.2002 21.7 13.7002C21.6 13.0002 21 12.9002 20.7 12.9002ZM9.70001 5.50018V14.1002C9.70001 14.7002 10.1 15.1002 10.7 15.1002H19.3C19.1 16.9002 18.3 18.4002 17.1 19.8002C15.8 21.2002 14.2 22.1002 12.3 22.4002C11.8 22.5002 11.2 22.5002 10.6 22.5002C9.49998 22.5002 8.39999 22.3002 7.29999 21.8002C6.29999 21.3002 5.39998 20.7002 4.59998 19.8002C3.49998 18.7002 2.8 17.3002 2.5 15.7002C2.4 15.0002 2.29999 14.4002 2.29999 13.7002C2.29999 12.3002 2.69996 11.0002 3.39996 9.8002C4.09996 8.5002 5.09996 7.5002 6.39996 6.7002C7.39996 6.1002 8.4 5.70018 9.5 5.50018C9.6 5.50018 9.60001 5.50018 9.70001 5.50018Z" fill="#060033"/>
</svg>
