<svg width="26" height="26" viewBox="0 0 26 26" fill="none" xmlns="http://www.w3.org/2000/svg">
<path d="M20.8392 18.5592C20.1392 18.5592 19.3393 18.5592 18.4393 18.5592C18.1393 18.5592 17.8392 18.6592 17.7392 18.8592C17.5392 19.0592 17.5392 19.2592 17.5392 19.4592C17.5392 19.9592 17.9392 20.2592 18.5392 20.2592C18.7392 20.2592 18.8392 20.2592 19.0392 20.2592C16.9392 22.0592 14.4392 22.7592 11.7392 22.5592C9.53924 22.3592 7.43922 21.4592 5.83922 19.9592C4.23922 18.4592 3.13922 16.3592 2.83922 14.2592C2.73922 13.6592 2.73924 13.0592 2.73924 12.3592C2.73924 12.0592 2.73924 11.7592 2.73924 11.5592C2.73924 11.2592 2.63922 10.9592 2.43922 10.8592C2.23922 10.6592 2.03924 10.6592 1.73924 10.6592C1.43924 10.6592 1.03923 10.8592 1.03923 11.5592C0.939228 12.9592 1.03924 13.9592 1.23924 14.9592C2.03924 19.0592 4.93922 22.3592 8.83922 23.7592C10.1392 24.1592 11.4392 24.4592 12.7392 24.4592C15.4392 24.4592 18.0392 23.5592 20.2392 21.7592C20.2392 21.8592 20.2392 21.9592 20.2392 21.9592C20.2392 22.4592 20.6392 22.8592 21.1392 22.8592C21.3392 22.8592 21.6392 22.7592 21.7392 22.6592C21.9392 22.4592 22.0392 22.2592 22.0392 21.9592C22.0392 21.1592 22.0392 20.3592 22.0392 19.5592C21.8392 18.8592 21.4392 18.5592 20.8392 18.5592Z" fill="#060033"/>
<path d="M24.1392 11.4592C23.8392 9.25922 23.1393 7.3592 21.9393 5.7592C20.7393 4.1592 19.1392 2.95922 17.1392 2.05922C15.1392 1.15922 13.1393 0.859223 11.2393 1.05922C9.33926 1.25922 7.43925 1.9592 5.63925 3.2592C5.43925 3.4592 5.23924 3.5592 4.93924 3.7592C4.93924 3.6592 4.93924 3.55922 4.93924 3.45922C4.93924 2.95922 4.53925 2.65923 4.03925 2.65923C3.53925 2.65923 3.23926 3.05922 3.23926 3.55922C3.23926 4.45922 3.23926 5.25922 3.23926 6.05922C3.23926 6.55922 3.63925 6.95922 4.13925 6.95922C4.93925 6.95922 5.63923 6.95922 6.33923 6.95922C6.83923 6.95922 7.13926 6.65923 7.23926 6.15923C7.23926 5.95923 7.23925 5.75922 7.03925 5.55922C6.83925 5.35922 6.63923 5.2592 6.33923 5.2592C6.23923 5.2592 6.13925 5.2592 6.03925 5.2592C8.23925 3.3592 11.0392 2.55922 13.9392 2.95922C16.8392 3.35922 19.4393 5.05922 20.9393 7.55922C22.0393 9.45922 22.5392 11.4592 22.3392 13.6592C22.2392 14.3592 22.5392 14.7592 23.0392 14.8592H23.1392C23.3392 14.8592 23.5393 14.7592 23.7393 14.6592C23.8393 14.5592 24.0392 14.2592 24.1392 13.8592C24.1392 13.0592 24.2392 12.2592 24.1392 11.4592Z" fill="#060033"/>
<path d="M11.1394 5.25879C11.0394 5.25879 10.8394 5.2588 10.7394 5.3588C10.7394 5.3588 10.7394 5.3588 10.6394 5.3588C8.93937 5.7588 7.53936 6.75881 6.43936 8.05881C5.33936 9.45881 4.83936 11.2588 4.83936 13.1588C4.93936 15.3588 6.03937 17.3588 8.03937 18.7588C8.83937 19.3588 9.73936 19.7588 10.8394 19.9588C10.9394 19.9588 11.0394 19.9588 11.1394 19.9588C11.5394 19.9588 11.9394 19.6588 12.0394 19.2588C12.1394 18.7588 11.8394 18.3588 11.2394 18.1588H11.1394C11.1394 18.1588 11.1394 18.1588 11.0394 18.1588C9.53937 17.7588 8.33936 16.8588 7.43936 15.6588C6.63936 14.3588 6.33937 12.8588 6.63937 11.3588C7.13937 9.0588 8.63936 7.5588 10.9394 6.8588H11.0394C11.1394 6.8588 11.2394 6.85879 11.3394 6.75879C11.7394 6.55879 11.9394 6.25879 11.8394 5.75879C12.0394 5.55879 11.6394 5.25879 11.1394 5.25879Z" fill="#060033"/>
<path d="M13.7392 18.3589C13.0392 18.5589 12.8392 19.0589 12.9392 19.4589C12.9392 19.6589 13.1392 19.8589 13.2392 19.9589C13.3392 20.0589 13.5392 20.0589 13.7392 20.0589C13.8392 20.0589 13.9392 20.0589 14.0392 20.0589C17.6392 19.2589 19.9392 16.0589 19.9392 11.7589C19.9392 11.1589 19.7392 10.3589 19.3392 9.5589C18.9392 8.7589 18.3392 7.85888 17.6392 7.25888C16.6392 6.25888 15.3392 5.55888 13.9392 5.25888C13.4392 5.15888 13.0392 5.35888 12.9392 5.75888C12.8392 6.05888 12.8392 6.35891 13.0392 6.65891C13.1392 6.85891 13.4392 6.9589 13.7392 7.0589C15.4392 7.4589 16.8392 8.55891 17.6392 10.1589C18.4392 11.6589 18.4392 13.4589 17.7392 15.0589C17.0392 16.7589 15.7392 17.9589 13.7392 18.3589Z" fill="#060033"/>
<path d="M11.6394 9.45917C11.6394 9.65917 11.6394 9.65916 11.3394 9.75916C10.7394 10.1592 10.3394 10.7592 10.3394 11.4592C10.3394 12.1592 10.7394 12.7592 11.3394 13.0592C11.6394 13.2592 11.9394 13.3592 12.2394 13.3592C12.4394 13.3592 12.5394 13.4592 12.7394 13.5592C12.8394 13.5592 12.8394 13.5592 12.9394 13.6592C13.0394 13.6592 13.1394 13.7592 13.1394 13.7592C13.1394 13.7592 13.0394 13.8592 12.5394 14.0592C12.5394 14.0592 12.4394 14.0592 12.1394 13.9592C11.8394 13.8592 11.5394 13.6592 11.3394 13.5592C10.8394 13.2592 10.3394 13.3592 10.0394 13.7592C9.93938 13.9592 9.83937 14.1592 9.93937 14.3592C9.93937 14.6592 10.1394 14.8592 10.4394 15.0592C10.7394 15.2592 10.9394 15.4592 11.2394 15.5592C11.5394 15.6592 11.5394 15.7592 11.5394 15.9592C11.5394 16.1592 11.5394 16.3592 11.7394 16.5592C11.8394 16.7592 12.1394 16.8592 12.3394 16.8592C12.3394 16.8592 12.3394 16.8592 12.4394 16.8592C12.8394 16.8592 13.2394 16.5592 13.2394 16.0592C13.2394 15.9592 13.2394 15.8592 13.2394 15.7592C13.4394 15.6592 13.5394 15.6592 13.7394 15.5592C14.1394 15.2592 14.7394 14.8592 14.8394 14.0592C14.9394 12.9592 14.1394 12.0592 12.9394 11.9592C12.7394 11.9592 12.4394 11.8592 12.1394 11.7592L12.0394 11.6592C12.0394 11.5592 12.1394 11.4592 12.2394 11.4592C12.2394 11.4592 12.3394 11.4592 12.6394 11.5592C12.8394 11.6592 13.0394 11.7592 13.1394 11.8592C13.2394 11.8592 13.2394 11.9592 13.3394 11.9592C13.7394 12.2592 14.2394 12.1592 14.5394 11.7592C14.6394 11.5592 14.7394 11.3592 14.7394 11.1592C14.7394 10.9592 14.5394 10.6592 14.3394 10.5592C14.0394 10.3592 13.7394 10.1592 13.4394 10.0592C13.2394 9.95917 13.2394 9.95916 13.2394 9.75916C13.2394 9.55916 13.1394 9.35918 13.0394 9.15918C12.8394 8.95918 12.6394 8.95917 12.3394 8.95917C12.0394 8.75917 11.6394 9.05917 11.6394 9.45917Z" fill="#060033"/>
</svg>
