<svg width="24" height="24" viewBox="0 0 24 24" fill="none" xmlns="http://www.w3.org/2000/svg">
<path d="M0 11.9945C0 9.43067 0 6.86688 0 4.30307C0 3.02117 0.564706 2.13371 1.41176 1.44345C2.44706 0.654586 3.57648 0.358744 4.80001 0.161528C6.49412 -0.134295 8.09411 -0.0356633 9.69411 0.555984C10.6353 0.851808 11.4824 1.34485 12.2353 2.0351C12.8 2.62675 13.0823 3.4156 13.0823 4.20446C13.0823 5.68358 13.0823 7.1627 13.0823 8.64182C13.0823 8.83903 13.0824 8.93765 13.2706 8.83904C14.3059 8.346 15.4353 8.14877 16.5647 8.05016C17.9764 7.95155 19.2941 8.05016 20.7059 8.5432C21.7412 8.93763 22.7765 9.4307 23.4353 10.4168C23.8118 10.9098 24 11.5014 24 12.0931C24 14.6569 24 17.2207 24 19.6859C24 20.9678 23.4353 21.9539 22.4 22.6442C21.4588 23.3344 20.3294 23.6302 19.2 23.8274C17.5059 24.1233 15.8118 24.0247 14.1176 23.433C13.3647 23.2358 12.7059 22.8414 12.1412 22.3483C12.0471 22.2497 11.9529 22.2497 11.8588 22.3483C10.6353 23.3344 9.22354 23.7288 7.71766 23.926C6.02354 24.1233 4.42353 23.926 2.82353 23.3344C2.07059 23.0386 1.31764 22.6441 0.75293 21.9539C0.188224 21.3622 0 20.672 0 19.7845C0 17.2207 0 14.5583 0 11.9945ZM17.3177 13.6708C18.1647 13.6708 18.9176 13.5722 19.5765 13.375C20.2353 13.1778 20.8941 12.9806 21.4588 12.3889C21.8353 11.9945 21.8353 11.7973 21.4588 11.4029C21.0823 11.107 20.7059 10.9098 20.3294 10.7126C18.5412 10.0223 16.6588 10.0223 14.8706 10.614C14.3059 10.8112 13.8353 11.0084 13.3647 11.4029C13.0824 11.6987 13.0824 11.9945 13.3647 12.2903C13.6471 12.5861 14.0235 12.7833 14.4 12.9806C15.3412 13.4736 16.3765 13.6708 17.3177 13.6708ZM6.58824 5.68358C7.24706 5.68358 7.90589 5.58499 8.56471 5.48638C9.31765 5.28917 9.97648 5.09195 10.5412 4.5003C10.9177 4.20448 10.8235 3.90865 10.5412 3.51422C10.2588 3.2184 9.88236 3.02118 9.60001 2.92257C8.84707 2.62674 8.00001 2.42952 7.24707 2.33091C6.02354 2.23231 4.79999 2.33091 3.67058 2.82395C3.29411 3.02117 2.82354 3.2184 2.54119 3.51422C2.25884 3.81005 2.25884 4.10586 2.54119 4.40169C2.72942 4.5989 3.01176 4.79612 3.29412 4.89473C4.32941 5.48637 5.36471 5.68358 6.58824 5.68358ZM17.4118 21.6581C17.7882 21.6581 18.1647 21.6581 18.5412 21.5595C19.3882 21.4609 20.2353 21.2636 20.9882 20.7706C21.647 20.3762 21.8353 19.9817 21.7412 19.1929C21.7412 19.0943 21.6471 18.9957 21.553 19.0943C21.3647 19.1929 21.2706 19.2915 21.0824 19.2915C19.0118 20.0804 16.9412 20.179 14.8706 19.6859C14.3059 19.5873 13.8353 19.3901 13.2706 19.0943C13.1765 19.0943 13.0823 18.9957 13.0823 19.0943C12.9882 19.8831 13.0824 20.179 13.7412 20.672C13.9294 20.7706 14.1176 20.8692 14.2117 20.9678C15.247 21.4608 16.2824 21.6581 17.4118 21.6581ZM6.58824 13.6708C6.87059 13.6708 7.24706 13.6708 7.52941 13.5722C8.37647 13.4736 9.22354 13.2764 9.97648 12.882C10.6353 12.5862 10.9176 12.0931 10.8235 11.3042C10.8235 11.107 10.7294 11.0084 10.5412 11.107C8.65884 11.9945 6.68235 12.0931 4.61176 11.7973C3.85882 11.6987 3.10589 11.5014 2.44706 11.107C2.35295 11.107 2.25882 11.0084 2.25882 11.2056C2.1647 11.8959 2.25883 12.2903 2.91765 12.6847C3.01177 12.7834 3.10588 12.7834 3.19999 12.882C4.23529 13.4736 5.36471 13.6708 6.58824 13.6708ZM17.5059 17.6151C18.0706 17.6151 18.7294 17.6151 19.2941 17.4179C20.0471 17.2207 20.8 17.0235 21.3647 16.4318C21.553 16.2346 21.647 16.136 21.7412 15.8402C21.7412 15.643 21.7412 15.3472 21.7412 15.1499C21.7412 15.0513 21.7412 14.9527 21.553 15.0513C20.5177 15.5444 19.4824 15.8402 18.3529 15.9388C16.6588 16.0374 15.0588 15.9388 13.5529 15.2486C13.0823 15.0513 13.1765 15.0513 13.0823 15.5444C13.0823 16.136 13.2706 16.4319 13.7412 16.7277C14.0235 16.9249 14.2118 17.0235 14.4941 17.1221C15.4353 17.5165 16.3764 17.6151 17.5059 17.6151ZM6.58824 21.6581C6.96471 21.6581 7.34119 21.6581 7.71766 21.5595C8.56472 21.4609 9.50588 21.2636 10.2588 20.7706C10.7294 20.4748 11.0118 20.1789 10.9177 19.4887C10.9177 19.3901 10.9177 19.3901 10.9177 19.2915C10.9177 19.0943 10.9176 18.9957 10.6353 19.0943C8.94116 19.8831 7.15295 20.0803 5.27059 19.8831C4.32942 19.7845 3.29412 19.4887 2.44706 19.0943C2.35295 18.9957 2.25882 18.9957 2.25882 19.1929C2.1647 19.9817 2.25884 20.3762 3.01178 20.7706C3.20001 20.8692 3.29413 20.9678 3.48236 20.9678C4.42354 21.4608 5.45882 21.6581 6.58824 21.6581ZM6.68236 9.6279C6.87059 9.6279 7.24706 9.62789 7.62354 9.52928C8.47059 9.43067 9.31764 9.23347 10.1647 8.74043C10.6353 8.44461 11.0118 8.05019 10.9177 7.45854V7.35993C10.9177 7.0641 10.9176 7.06409 10.6353 7.1627C8.94116 7.95156 7.15295 8.1488 5.36472 7.95158C4.32942 7.85297 3.38824 7.65574 2.44706 7.1627C2.35295 7.1627 2.25882 7.0641 2.25882 7.26131C2.1647 8.05017 2.25883 8.44461 2.91765 8.83904C3.10589 8.93765 3.20001 9.03625 3.38824 9.13486C4.42354 9.52929 5.45883 9.6279 6.68236 9.6279ZM6.49411 17.6151C7.99999 17.6151 9.12942 17.3193 10.0706 16.8263C10.5412 16.5305 10.9176 16.136 10.8235 15.5444V15.4458C10.8235 15.1499 10.8235 15.15 10.5412 15.2486C8.37648 16.136 6.21178 16.2346 3.95295 15.7416C3.48236 15.643 2.91765 15.4458 2.44706 15.2486C2.35295 15.2486 2.25882 15.15 2.25882 15.3472C2.1647 16.0374 2.25882 16.4319 2.82353 16.8263C2.91765 16.8263 2.91766 16.9249 3.01178 16.9249C4.14119 17.4179 5.27058 17.6151 6.49411 17.6151Z" fill="#060033"/>
</svg>
