<svg width="37" height="42" viewBox="0 0 37 42" fill="none" xmlns="http://www.w3.org/2000/svg">
<path d="M18.4064 3.05371L34.0063 12.0537V30.0537L18.4064 39.0537L2.8064 30.0537V12.0537L18.4064 3.05371ZM18.4064 0.453613L0.506348 10.7537V31.3536L18.4064 41.6537L36.3064 31.3536V10.7537L18.4064 0.453613Z" fill="#18D5DD"/>
<path d="M18.4063 9.85363C21.0063 9.85363 23.5064 9.85363 26.1064 9.85363C26.3064 9.85363 26.5064 9.7536 26.6064 9.9536C26.7064 10.1536 26.4064 10.2536 26.3064 10.3536C25.8064 10.7536 25.6063 11.2536 25.5063 11.8536C25.4063 12.3536 25.5063 12.4536 26.0063 12.4536C27.1063 12.4536 28.1063 12.4536 29.2063 12.4536C29.9063 12.4536 30.0063 12.5537 29.7063 13.1537C28.7063 15.3537 27.7063 17.5536 26.7063 19.7536C26.5063 20.2536 26.2063 20.4536 25.7063 20.4536C25.2063 20.4536 24.7063 20.4536 24.2063 20.4536C23.8063 20.4536 23.6064 20.5536 23.6064 20.9536C23.3064 22.6536 22.4064 23.6536 20.8064 24.2536C20.7064 24.2536 20.5063 24.3537 20.5063 24.5537C20.4063 25.2537 20.4063 25.9537 20.5063 26.6537C20.5063 26.9537 20.8063 26.8536 21.0063 26.8536C21.8063 26.8536 22.6063 26.8536 23.4063 26.8536C23.9063 26.8536 24.1064 27.0537 24.1064 27.5537C24.1064 28.4537 24.1064 29.2537 24.1064 30.1537C24.1064 30.7537 24.3064 31.1536 24.8064 31.4536C24.9064 31.5536 25.0064 31.5537 25.1064 31.6537C25.2064 31.7537 25.5063 31.8537 25.5063 32.0537C25.4063 32.3537 25.2063 32.2537 25.0063 32.2537C20.7063 32.2537 16.4064 32.2537 12.1064 32.2537C11.9064 32.2537 11.6063 32.3537 11.5063 32.0537C11.4063 31.8537 11.7063 31.7537 11.9063 31.6537C12.7063 31.2537 13.0063 30.6537 12.9063 29.7537C12.8063 29.0536 12.9063 28.2537 12.9063 27.5537C12.9063 27.0537 13.1064 26.8536 13.6064 26.8536C14.4064 26.8536 15.2063 26.8536 16.0063 26.8536C16.4063 26.8536 16.6064 26.7537 16.6064 26.2537C16.6064 26.1537 16.6064 26.0537 16.6064 26.0537C16.7064 25.0537 16.6063 24.2536 15.4063 23.8536C14.3063 23.4536 13.7063 22.3537 13.5063 21.2536C13.4063 20.7536 13.2064 20.4537 12.6064 20.5537C12.6064 20.5537 12.6063 20.5537 12.5063 20.5537C11.0063 20.8537 10.2064 20.1536 9.60636 18.7536C8.90636 16.8536 8.00633 15.0536 7.20633 13.2536C6.90633 12.6536 7.00633 12.5537 7.70633 12.5537C8.80633 12.5537 9.90634 12.5537 10.9063 12.5537C11.3063 12.5537 11.5063 12.4536 11.4063 11.9536C11.3063 11.3536 11.1064 10.8536 10.6064 10.4536C10.5064 10.3536 10.3064 10.2537 10.3064 10.0537C10.4064 9.8537 10.6064 9.9536 10.8064 9.9536C13.2064 9.8536 15.8063 9.85363 18.4063 9.85363ZM18.3064 11.3536C16.9064 11.3536 15.5064 11.3536 14.1064 11.3536C13.8064 11.3536 13.5064 11.3536 13.6064 11.8536C14.1064 14.7536 14.6064 17.7537 15.3064 20.6537C15.6064 21.9537 16.3063 22.8536 17.7063 22.9536C18.1063 22.9536 18.3063 22.9537 18.4063 22.5537C19.9063 18.9537 21.3064 15.4536 22.8064 11.8536C23.0064 11.4536 22.9063 11.2536 22.4063 11.2536C21.1063 11.3536 19.7064 11.3536 18.3064 11.3536ZM20.4063 28.2537C18.3063 28.2537 16.4063 28.2537 14.5063 28.2537C14.2063 28.2537 14.1064 28.4537 14.1064 28.7537C14.1064 29.2537 14.1064 29.7537 14.1064 30.1537C14.1064 30.6537 14.3063 30.7537 14.7063 30.7537C15.7063 30.7537 16.8064 30.7537 17.8064 30.7537C18.0064 30.7537 18.3063 30.7537 18.4063 30.5537C19.1063 29.8537 19.7063 29.1537 20.4063 28.2537ZM10.5063 14.0537C10.2063 14.0537 9.90636 14.0537 9.60636 14.0537C9.30636 14.0537 9.20637 14.1536 9.30637 14.4536C9.90637 15.8536 10.5063 17.2537 11.2063 18.5537C11.5063 19.0537 12.0063 18.8537 12.4063 18.7536C12.9063 18.6536 12.6063 18.2537 12.5063 18.0537C12.3063 17.1537 12.1063 16.1536 11.9063 15.2536C11.7063 13.9536 11.9063 14.0537 10.5063 14.0537ZM26.2063 14.0537C25.9063 14.0537 25.7063 14.0537 25.4063 14.0537C25.1063 14.0537 24.9063 14.1536 24.9063 14.4536C24.6063 15.7536 24.3064 17.0536 24.1064 18.3536C24.1064 18.5536 24.0064 18.7536 24.3064 18.8536C24.8064 19.0536 25.5063 18.8536 25.7063 18.3536C26.2063 17.3536 26.6064 16.3536 27.1064 15.2536C27.5064 14.0536 27.5063 14.0537 26.2063 14.0537ZM18.2063 24.7536C17.4063 24.7536 17.4063 24.7537 17.4063 25.5537C17.4063 25.7537 17.4063 25.8537 17.4063 26.0537C17.4063 26.2537 17.4063 26.5537 17.7063 26.5537C18.0063 26.5537 18.3063 26.5536 18.4063 26.2537C18.5063 26.0536 18.6063 25.7537 18.7063 25.5537C19.1063 24.7537 19.1063 24.7536 18.2063 24.7536Z" fill="#E7298B"/>
</svg>
