<svg width="20" height="20" viewBox="0 0 20 20" fill="none" xmlns="http://www.w3.org/2000/svg">
<path d="M20 9.99997C20 15.5555 15.5555 20 10 20C4.44446 20 0 15.5555 0 9.99997C0 4.44443 4.44446 0 10 0C15.5555 0 20 4.54544 20 9.99997Z" fill="#F61186"/>
<path d="M15.9595 7.07066C15.6565 7.4747 15.3535 7.77773 14.9494 8.08076C14.8484 8.18177 14.8483 8.28278 14.8483 8.38379C14.8483 9.4949 14.5454 10.606 14.0403 11.6161C13.0302 13.5353 11.414 14.7474 9.1918 15.0504C7.67665 15.2525 6.26257 15.0504 4.94944 14.3434C4.94944 14.3434 4.84839 14.3434 4.84839 14.2424L4.74741 14.1414C4.74741 14.0403 4.84839 14.0403 4.84839 14.0403C5.05041 14.0403 5.25247 14.0403 5.45449 14.0403C6.36358 14.0403 7.17168 13.7373 7.87875 13.2323C7.87875 13.2323 7.87875 13.2323 7.87875 13.1313C7.77774 13.0302 7.67668 13.0302 7.57567 13.0302C6.76759 12.8282 6.26259 12.4242 5.85855 11.6161C5.75754 11.4141 5.8585 11.3131 6.06052 11.4141C6.26254 11.4141 6.46454 11.4141 6.66656 11.4141C6.46454 11.3131 6.16156 11.2121 5.95954 11.01C5.45449 10.606 5.05042 10.101 5.05042 9.39389C5.05042 9.09086 5.05041 9.09087 5.35344 9.19188C5.55546 9.29289 5.65653 9.29288 5.85855 9.29288C5.85855 9.19187 5.75747 9.09086 5.65646 9.09086C5.0504 8.38379 4.84842 7.4747 5.25246 6.56561C5.35347 6.26258 5.45444 6.26258 5.65646 6.4646C6.46454 7.27268 7.3737 7.97975 8.3838 8.28278C8.88885 8.4848 9.29279 8.58581 9.79784 8.58581C10.1009 8.58581 10.1009 8.58581 10.1009 8.28278C10.1009 7.4747 10.303 6.76763 11.01 6.26258C11.9191 5.55551 13.0303 5.65653 13.9393 6.3636C14.1414 6.46461 14.2424 6.56561 14.4444 6.4646C14.7474 6.36359 15.0504 6.26258 15.3534 6.06056C15.4544 6.06056 15.4545 5.95955 15.5555 6.06056C15.6565 6.16157 15.5555 6.16157 15.5555 6.26258C15.4545 6.56561 15.2524 6.76763 15.0504 6.96965C14.9494 7.07066 14.8483 7.07067 14.8483 7.17168C15.3534 7.17168 15.6565 7.07066 15.9595 7.07066Z" fill="#11004F"/>
</svg>
